<?xml version="1.0" encoding="utf-8" standalone="no"?>
<!DOCTYPE svg PUBLIC "-//W3C//DTD SVG 1.1//EN"
  "http://www.w3.org/Graphics/SVG/1.1/DTD/svg11.dtd">
<!-- Created with matplotlib (https://matplotlib.org/) -->
<svg height="432pt" version="1.1" viewBox="0 0 1728 432" width="1728pt" xmlns="http://www.w3.org/2000/svg" xmlns:xlink="http://www.w3.org/1999/xlink">
 <metadata>
  <rdf:RDF xmlns:cc="http://creativecommons.org/ns#" xmlns:dc="http://purl.org/dc/elements/1.1/" xmlns:rdf="http://www.w3.org/1999/02/22-rdf-syntax-ns#">
   <cc:Work>
    <dc:type rdf:resource="http://purl.org/dc/dcmitype/StillImage"/>
    <dc:date>2021-02-28T23:15:09.191740</dc:date>
    <dc:format>image/svg+xml</dc:format>
    <dc:creator>
     <cc:Agent>
      <dc:title>Matplotlib v3.3.3, https://matplotlib.org/</dc:title>
     </cc:Agent>
    </dc:creator>
   </cc:Work>
  </rdf:RDF>
 </metadata>
 <defs>
  <style type="text/css">*{stroke-linecap:butt;stroke-linejoin:round;}</style>
 </defs>
 <g id="figure_1">
  <g id="patch_1">
   <path d="M 0 432 
L 1728 432 
L 1728 0 
L 0 0 
z
" style="fill:none;"/>
  </g>
  <g id="axes_1">
   <g id="patch_2">
    <path d="M 216 378 
L 1555.2 378 
L 1555.2 51.84 
L 216 51.84 
z
" style="fill:#ffffff;"/>
   </g>
   <g id="PathCollection_1">
    <defs>
     <path d="M 0 7.071068 
C 1.875269 7.071068 3.673985 6.326016 5 5 
C 6.326016 3.673985 7.071068 1.875269 7.071068 0 
C 7.071068 -1.875269 6.326016 -3.673985 5 -5 
C 3.673985 -6.326016 1.875269 -7.071068 0 -7.071068 
C -1.875269 -7.071068 -3.673985 -6.326016 -5 -5 
C -6.326016 -3.673985 -7.071068 -1.875269 -7.071068 0 
C -7.071068 1.875269 -6.326016 3.673985 -5 5 
C -3.673985 6.326016 -1.875269 7.071068 0 7.071068 
z
" id="m332f7a0fc4" style="stroke:#1f77b4;"/>
    </defs>
    <g clip-path="url(#pbcd0340f41)">
     <use style="fill:#1f77b4;stroke:#1f77b4;" x="243.9" xlink:href="#m332f7a0fc4" y="325.594974"/>
     <use style="fill:#1f77b4;stroke:#1f77b4;" x="299.7" xlink:href="#m332f7a0fc4" y="325.594974"/>
     <use style="fill:#1f77b4;stroke:#1f77b4;" x="355.5" xlink:href="#m332f7a0fc4" y="318.623578"/>
     <use style="fill:#1f77b4;stroke:#1f77b4;" x="411.3" xlink:href="#m332f7a0fc4" y="66.665455"/>
     <use style="fill:#1f77b4;stroke:#1f77b4;" x="467.1" xlink:href="#m332f7a0fc4" y="325.594974"/>
     <use style="fill:#1f77b4;stroke:#1f77b4;" x="522.9" xlink:href="#m332f7a0fc4" y="325.594974"/>
     <use style="fill:#1f77b4;stroke:#1f77b4;" x="578.7" xlink:href="#m332f7a0fc4" y="325.594974"/>
     <use style="fill:#1f77b4;stroke:#1f77b4;" x="634.5" xlink:href="#m332f7a0fc4" y="321.110912"/>
     <use style="fill:#1f77b4;stroke:#1f77b4;" x="690.3" xlink:href="#m332f7a0fc4" y="323.707013"/>
     <use style="fill:#1f77b4;stroke:#1f77b4;" x="746.1" xlink:href="#m332f7a0fc4" y="325.594974"/>
     <use style="fill:#1f77b4;stroke:#1f77b4;" x="801.9" xlink:href="#m332f7a0fc4" y="320.079275"/>
     <use style="fill:#1f77b4;stroke:#1f77b4;" x="857.7" xlink:href="#m332f7a0fc4" y="325.594974"/>
     <use style="fill:#1f77b4;stroke:#1f77b4;" x="913.5" xlink:href="#m332f7a0fc4" y="325.594974"/>
     <use style="fill:#1f77b4;stroke:#1f77b4;" x="969.3" xlink:href="#m332f7a0fc4" y="161.243477"/>
     <use style="fill:#1f77b4;stroke:#1f77b4;" x="1025.1" xlink:href="#m332f7a0fc4" y="237.451267"/>
     <use style="fill:#1f77b4;stroke:#1f77b4;" x="1080.9" xlink:href="#m332f7a0fc4" y="325.594974"/>
     <use style="fill:#1f77b4;stroke:#1f77b4;" x="1136.7" xlink:href="#m332f7a0fc4" y="325.594974"/>
     <use style="fill:#1f77b4;stroke:#1f77b4;" x="1192.5" xlink:href="#m332f7a0fc4" y="325.594974"/>
     <use style="fill:#1f77b4;stroke:#1f77b4;" x="1248.3" xlink:href="#m332f7a0fc4" y="325.594974"/>
     <use style="fill:#1f77b4;stroke:#1f77b4;" x="1304.1" xlink:href="#m332f7a0fc4" y="323.445958"/>
     <use style="fill:#1f77b4;stroke:#1f77b4;" x="1359.9" xlink:href="#m332f7a0fc4" y="325.594974"/>
     <use style="fill:#1f77b4;stroke:#1f77b4;" x="1415.7" xlink:href="#m332f7a0fc4" y="325.594974"/>
     <use style="fill:#1f77b4;stroke:#1f77b4;" x="1471.5" xlink:href="#m332f7a0fc4" y="319.078428"/>
     <use style="fill:#1f77b4;stroke:#1f77b4;" x="1527.3" xlink:href="#m332f7a0fc4" y="129.926644"/>
    </g>
   </g>
   <g id="matplotlib.axis_1">
    <g id="xtick_1">
     <g id="line2d_1">
      <defs>
       <path d="M 0 0 
L 0 3.5 
" id="mbe3326b75a" style="stroke:#000000;stroke-width:0.8;"/>
      </defs>
      <g>
       <use style="stroke:#000000;stroke-width:0.8;" x="243.9" xlink:href="#mbe3326b75a" y="378"/>
      </g>
     </g>
     <g id="text_1">
      <!-- In -->
      <g transform="translate(239.25625 392.598437)scale(0.1 -0.1)">
       <defs>
        <path d="M 9.8125 72.90625 
L 19.671875 72.90625 
L 19.671875 0 
L 9.8125 0 
z
" id="DejaVuSans-73"/>
        <path d="M 54.890625 33.015625 
L 54.890625 0 
L 45.90625 0 
L 45.90625 32.71875 
Q 45.90625 40.484375 42.875 44.328125 
Q 39.84375 48.1875 33.796875 48.1875 
Q 26.515625 48.1875 22.3125 43.546875 
Q 18.109375 38.921875 18.109375 30.90625 
L 18.109375 0 
L 9.078125 0 
L 9.078125 54.6875 
L 18.109375 54.6875 
L 18.109375 46.1875 
Q 21.34375 51.125 25.703125 53.5625 
Q 30.078125 56 35.796875 56 
Q 45.21875 56 50.046875 50.171875 
Q 54.890625 44.34375 54.890625 33.015625 
z
" id="DejaVuSans-110"/>
       </defs>
       <use xlink:href="#DejaVuSans-73"/>
       <use x="29.492188" xlink:href="#DejaVuSans-110"/>
      </g>
     </g>
    </g>
    <g id="xtick_2">
     <g id="line2d_2">
      <g>
       <use style="stroke:#000000;stroke-width:0.8;" x="299.7" xlink:href="#mbe3326b75a" y="378"/>
      </g>
     </g>
     <g id="text_2">
      <!-- any -->
      <g transform="translate(290.507812 392.598437)scale(0.1 -0.1)">
       <defs>
        <path d="M 34.28125 27.484375 
Q 23.390625 27.484375 19.1875 25 
Q 14.984375 22.515625 14.984375 16.5 
Q 14.984375 11.71875 18.140625 8.90625 
Q 21.296875 6.109375 26.703125 6.109375 
Q 34.1875 6.109375 38.703125 11.40625 
Q 43.21875 16.703125 43.21875 25.484375 
L 43.21875 27.484375 
z
M 52.203125 31.203125 
L 52.203125 0 
L 43.21875 0 
L 43.21875 8.296875 
Q 40.140625 3.328125 35.546875 0.953125 
Q 30.953125 -1.421875 24.3125 -1.421875 
Q 15.921875 -1.421875 10.953125 3.296875 
Q 6 8.015625 6 15.921875 
Q 6 25.140625 12.171875 29.828125 
Q 18.359375 34.515625 30.609375 34.515625 
L 43.21875 34.515625 
L 43.21875 35.40625 
Q 43.21875 41.609375 39.140625 45 
Q 35.0625 48.390625 27.6875 48.390625 
Q 23 48.390625 18.546875 47.265625 
Q 14.109375 46.140625 10.015625 43.890625 
L 10.015625 52.203125 
Q 14.9375 54.109375 19.578125 55.046875 
Q 24.21875 56 28.609375 56 
Q 40.484375 56 46.34375 49.84375 
Q 52.203125 43.703125 52.203125 31.203125 
z
" id="DejaVuSans-97"/>
        <path d="M 32.171875 -5.078125 
Q 28.375 -14.84375 24.75 -17.8125 
Q 21.140625 -20.796875 15.09375 -20.796875 
L 7.90625 -20.796875 
L 7.90625 -13.28125 
L 13.1875 -13.28125 
Q 16.890625 -13.28125 18.9375 -11.515625 
Q 21 -9.765625 23.484375 -3.21875 
L 25.09375 0.875 
L 2.984375 54.6875 
L 12.5 54.6875 
L 29.59375 11.921875 
L 46.6875 54.6875 
L 56.203125 54.6875 
z
" id="DejaVuSans-121"/>
       </defs>
       <use xlink:href="#DejaVuSans-97"/>
       <use x="61.279297" xlink:href="#DejaVuSans-110"/>
       <use x="124.658203" xlink:href="#DejaVuSans-121"/>
      </g>
     </g>
    </g>
    <g id="xtick_3">
     <g id="line2d_3">
      <g>
       <use style="stroke:#000000;stroke-width:0.8;" x="355.5" xlink:href="#mbe3326b75a" y="378"/>
      </g>
     </g>
     <g id="text_3">
      <!-- given -->
      <g transform="translate(341.732031 392.598437)scale(0.1 -0.1)">
       <defs>
        <path d="M 45.40625 27.984375 
Q 45.40625 37.75 41.375 43.109375 
Q 37.359375 48.484375 30.078125 48.484375 
Q 22.859375 48.484375 18.828125 43.109375 
Q 14.796875 37.75 14.796875 27.984375 
Q 14.796875 18.265625 18.828125 12.890625 
Q 22.859375 7.515625 30.078125 7.515625 
Q 37.359375 7.515625 41.375 12.890625 
Q 45.40625 18.265625 45.40625 27.984375 
z
M 54.390625 6.78125 
Q 54.390625 -7.171875 48.1875 -13.984375 
Q 42 -20.796875 29.203125 -20.796875 
Q 24.46875 -20.796875 20.265625 -20.09375 
Q 16.0625 -19.390625 12.109375 -17.921875 
L 12.109375 -9.1875 
Q 16.0625 -11.328125 19.921875 -12.34375 
Q 23.78125 -13.375 27.78125 -13.375 
Q 36.625 -13.375 41.015625 -8.765625 
Q 45.40625 -4.15625 45.40625 5.171875 
L 45.40625 9.625 
Q 42.625 4.78125 38.28125 2.390625 
Q 33.9375 0 27.875 0 
Q 17.828125 0 11.671875 7.65625 
Q 5.515625 15.328125 5.515625 27.984375 
Q 5.515625 40.671875 11.671875 48.328125 
Q 17.828125 56 27.875 56 
Q 33.9375 56 38.28125 53.609375 
Q 42.625 51.21875 45.40625 46.390625 
L 45.40625 54.6875 
L 54.390625 54.6875 
z
" id="DejaVuSans-103"/>
        <path d="M 9.421875 54.6875 
L 18.40625 54.6875 
L 18.40625 0 
L 9.421875 0 
z
M 9.421875 75.984375 
L 18.40625 75.984375 
L 18.40625 64.59375 
L 9.421875 64.59375 
z
" id="DejaVuSans-105"/>
        <path d="M 2.984375 54.6875 
L 12.5 54.6875 
L 29.59375 8.796875 
L 46.6875 54.6875 
L 56.203125 54.6875 
L 35.6875 0 
L 23.484375 0 
z
" id="DejaVuSans-118"/>
        <path d="M 56.203125 29.59375 
L 56.203125 25.203125 
L 14.890625 25.203125 
Q 15.484375 15.921875 20.484375 11.0625 
Q 25.484375 6.203125 34.421875 6.203125 
Q 39.59375 6.203125 44.453125 7.46875 
Q 49.3125 8.734375 54.109375 11.28125 
L 54.109375 2.78125 
Q 49.265625 0.734375 44.1875 -0.34375 
Q 39.109375 -1.421875 33.890625 -1.421875 
Q 20.796875 -1.421875 13.15625 6.1875 
Q 5.515625 13.8125 5.515625 26.8125 
Q 5.515625 40.234375 12.765625 48.109375 
Q 20.015625 56 32.328125 56 
Q 43.359375 56 49.78125 48.890625 
Q 56.203125 41.796875 56.203125 29.59375 
z
M 47.21875 32.234375 
Q 47.125 39.59375 43.09375 43.984375 
Q 39.0625 48.390625 32.421875 48.390625 
Q 24.90625 48.390625 20.390625 44.140625 
Q 15.875 39.890625 15.1875 32.171875 
z
" id="DejaVuSans-101"/>
       </defs>
       <use xlink:href="#DejaVuSans-103"/>
       <use x="63.476562" xlink:href="#DejaVuSans-105"/>
       <use x="91.259766" xlink:href="#DejaVuSans-118"/>
       <use x="150.439453" xlink:href="#DejaVuSans-101"/>
       <use x="211.962891" xlink:href="#DejaVuSans-110"/>
      </g>
     </g>
    </g>
    <g id="xtick_4">
     <g id="line2d_4">
      <g>
       <use style="stroke:#000000;stroke-width:0.8;" x="411.3" xlink:href="#mbe3326b75a" y="378"/>
      </g>
     </g>
     <g id="text_4">
      <!-- concrescence -->
      <g transform="translate(377.128906 392.598437)scale(0.1 -0.1)">
       <defs>
        <path d="M 48.78125 52.59375 
L 48.78125 44.1875 
Q 44.96875 46.296875 41.140625 47.34375 
Q 37.3125 48.390625 33.40625 48.390625 
Q 24.65625 48.390625 19.8125 42.84375 
Q 14.984375 37.3125 14.984375 27.296875 
Q 14.984375 17.28125 19.8125 11.734375 
Q 24.65625 6.203125 33.40625 6.203125 
Q 37.3125 6.203125 41.140625 7.25 
Q 44.96875 8.296875 48.78125 10.40625 
L 48.78125 2.09375 
Q 45.015625 0.34375 40.984375 -0.53125 
Q 36.96875 -1.421875 32.421875 -1.421875 
Q 20.0625 -1.421875 12.78125 6.34375 
Q 5.515625 14.109375 5.515625 27.296875 
Q 5.515625 40.671875 12.859375 48.328125 
Q 20.21875 56 33.015625 56 
Q 37.15625 56 41.109375 55.140625 
Q 45.0625 54.296875 48.78125 52.59375 
z
" id="DejaVuSans-99"/>
        <path d="M 30.609375 48.390625 
Q 23.390625 48.390625 19.1875 42.75 
Q 14.984375 37.109375 14.984375 27.296875 
Q 14.984375 17.484375 19.15625 11.84375 
Q 23.34375 6.203125 30.609375 6.203125 
Q 37.796875 6.203125 41.984375 11.859375 
Q 46.1875 17.53125 46.1875 27.296875 
Q 46.1875 37.015625 41.984375 42.703125 
Q 37.796875 48.390625 30.609375 48.390625 
z
M 30.609375 56 
Q 42.328125 56 49.015625 48.375 
Q 55.71875 40.765625 55.71875 27.296875 
Q 55.71875 13.875 49.015625 6.21875 
Q 42.328125 -1.421875 30.609375 -1.421875 
Q 18.84375 -1.421875 12.171875 6.21875 
Q 5.515625 13.875 5.515625 27.296875 
Q 5.515625 40.765625 12.171875 48.375 
Q 18.84375 56 30.609375 56 
z
" id="DejaVuSans-111"/>
        <path d="M 41.109375 46.296875 
Q 39.59375 47.171875 37.8125 47.578125 
Q 36.03125 48 33.890625 48 
Q 26.265625 48 22.1875 43.046875 
Q 18.109375 38.09375 18.109375 28.8125 
L 18.109375 0 
L 9.078125 0 
L 9.078125 54.6875 
L 18.109375 54.6875 
L 18.109375 46.1875 
Q 20.953125 51.171875 25.484375 53.578125 
Q 30.03125 56 36.53125 56 
Q 37.453125 56 38.578125 55.875 
Q 39.703125 55.765625 41.0625 55.515625 
z
" id="DejaVuSans-114"/>
        <path d="M 44.28125 53.078125 
L 44.28125 44.578125 
Q 40.484375 46.53125 36.375 47.5 
Q 32.28125 48.484375 27.875 48.484375 
Q 21.1875 48.484375 17.84375 46.4375 
Q 14.5 44.390625 14.5 40.28125 
Q 14.5 37.15625 16.890625 35.375 
Q 19.28125 33.59375 26.515625 31.984375 
L 29.59375 31.296875 
Q 39.15625 29.25 43.1875 25.515625 
Q 47.21875 21.78125 47.21875 15.09375 
Q 47.21875 7.46875 41.1875 3.015625 
Q 35.15625 -1.421875 24.609375 -1.421875 
Q 20.21875 -1.421875 15.453125 -0.5625 
Q 10.6875 0.296875 5.421875 2 
L 5.421875 11.28125 
Q 10.40625 8.6875 15.234375 7.390625 
Q 20.0625 6.109375 24.8125 6.109375 
Q 31.15625 6.109375 34.5625 8.28125 
Q 37.984375 10.453125 37.984375 14.40625 
Q 37.984375 18.0625 35.515625 20.015625 
Q 33.0625 21.96875 24.703125 23.78125 
L 21.578125 24.515625 
Q 13.234375 26.265625 9.515625 29.90625 
Q 5.8125 33.546875 5.8125 39.890625 
Q 5.8125 47.609375 11.28125 51.796875 
Q 16.75 56 26.8125 56 
Q 31.78125 56 36.171875 55.265625 
Q 40.578125 54.546875 44.28125 53.078125 
z
" id="DejaVuSans-115"/>
       </defs>
       <use xlink:href="#DejaVuSans-99"/>
       <use x="54.980469" xlink:href="#DejaVuSans-111"/>
       <use x="116.162109" xlink:href="#DejaVuSans-110"/>
       <use x="179.541016" xlink:href="#DejaVuSans-99"/>
       <use x="234.521484" xlink:href="#DejaVuSans-114"/>
       <use x="273.384766" xlink:href="#DejaVuSans-101"/>
       <use x="334.908203" xlink:href="#DejaVuSans-115"/>
       <use x="387.007812" xlink:href="#DejaVuSans-99"/>
       <use x="441.988281" xlink:href="#DejaVuSans-101"/>
       <use x="503.511719" xlink:href="#DejaVuSans-110"/>
       <use x="566.890625" xlink:href="#DejaVuSans-99"/>
       <use x="621.871094" xlink:href="#DejaVuSans-101"/>
      </g>
     </g>
    </g>
    <g id="xtick_5">
     <g id="line2d_5">
      <g>
       <use style="stroke:#000000;stroke-width:0.8;" x="467.1" xlink:href="#mbe3326b75a" y="378"/>
      </g>
     </g>
     <g id="text_5">
      <!-- it -->
      <g transform="translate(463.750781 392.598437)scale(0.1 -0.1)">
       <defs>
        <path d="M 18.3125 70.21875 
L 18.3125 54.6875 
L 36.8125 54.6875 
L 36.8125 47.703125 
L 18.3125 47.703125 
L 18.3125 18.015625 
Q 18.3125 11.328125 20.140625 9.421875 
Q 21.96875 7.515625 27.59375 7.515625 
L 36.8125 7.515625 
L 36.8125 0 
L 27.59375 0 
Q 17.1875 0 13.234375 3.875 
Q 9.28125 7.765625 9.28125 18.015625 
L 9.28125 47.703125 
L 2.6875 47.703125 
L 2.6875 54.6875 
L 9.28125 54.6875 
L 9.28125 70.21875 
z
" id="DejaVuSans-116"/>
       </defs>
       <use xlink:href="#DejaVuSans-105"/>
       <use x="27.783203" xlink:href="#DejaVuSans-116"/>
      </g>
     </g>
    </g>
    <g id="xtick_6">
     <g id="line2d_6">
      <g>
       <use style="stroke:#000000;stroke-width:0.8;" x="522.9" xlink:href="#mbe3326b75a" y="378"/>
      </g>
     </g>
     <g id="text_6">
      <!-- may -->
      <g transform="translate(512.00625 392.598437)scale(0.1 -0.1)">
       <defs>
        <path d="M 52 44.1875 
Q 55.375 50.25 60.0625 53.125 
Q 64.75 56 71.09375 56 
Q 79.640625 56 84.28125 50.015625 
Q 88.921875 44.046875 88.921875 33.015625 
L 88.921875 0 
L 79.890625 0 
L 79.890625 32.71875 
Q 79.890625 40.578125 77.09375 44.375 
Q 74.3125 48.1875 68.609375 48.1875 
Q 61.625 48.1875 57.5625 43.546875 
Q 53.515625 38.921875 53.515625 30.90625 
L 53.515625 0 
L 44.484375 0 
L 44.484375 32.71875 
Q 44.484375 40.625 41.703125 44.40625 
Q 38.921875 48.1875 33.109375 48.1875 
Q 26.21875 48.1875 22.15625 43.53125 
Q 18.109375 38.875 18.109375 30.90625 
L 18.109375 0 
L 9.078125 0 
L 9.078125 54.6875 
L 18.109375 54.6875 
L 18.109375 46.1875 
Q 21.1875 51.21875 25.484375 53.609375 
Q 29.78125 56 35.6875 56 
Q 41.65625 56 45.828125 52.96875 
Q 50 49.953125 52 44.1875 
z
" id="DejaVuSans-109"/>
       </defs>
       <use xlink:href="#DejaVuSans-109"/>
       <use x="97.412109" xlink:href="#DejaVuSans-97"/>
       <use x="158.691406" xlink:href="#DejaVuSans-121"/>
      </g>
     </g>
    </g>
    <g id="xtick_7">
     <g id="line2d_7">
      <g>
       <use style="stroke:#000000;stroke-width:0.8;" x="578.7" xlink:href="#mbe3326b75a" y="378"/>
      </g>
     </g>
     <g id="text_7">
      <!-- be -->
      <g transform="translate(572.449219 392.598437)scale(0.1 -0.1)">
       <defs>
        <path d="M 48.6875 27.296875 
Q 48.6875 37.203125 44.609375 42.84375 
Q 40.53125 48.484375 33.40625 48.484375 
Q 26.265625 48.484375 22.1875 42.84375 
Q 18.109375 37.203125 18.109375 27.296875 
Q 18.109375 17.390625 22.1875 11.75 
Q 26.265625 6.109375 33.40625 6.109375 
Q 40.53125 6.109375 44.609375 11.75 
Q 48.6875 17.390625 48.6875 27.296875 
z
M 18.109375 46.390625 
Q 20.953125 51.265625 25.265625 53.625 
Q 29.59375 56 35.59375 56 
Q 45.5625 56 51.78125 48.09375 
Q 58.015625 40.1875 58.015625 27.296875 
Q 58.015625 14.40625 51.78125 6.484375 
Q 45.5625 -1.421875 35.59375 -1.421875 
Q 29.59375 -1.421875 25.265625 0.953125 
Q 20.953125 3.328125 18.109375 8.203125 
L 18.109375 0 
L 9.078125 0 
L 9.078125 75.984375 
L 18.109375 75.984375 
z
" id="DejaVuSans-98"/>
       </defs>
       <use xlink:href="#DejaVuSans-98"/>
       <use x="63.476562" xlink:href="#DejaVuSans-101"/>
      </g>
     </g>
    </g>
    <g id="xtick_8">
     <g id="line2d_8">
      <g>
       <use style="stroke:#000000;stroke-width:0.8;" x="634.5" xlink:href="#mbe3326b75a" y="378"/>
      </g>
     </g>
     <g id="text_8">
      <!-- included -->
      <g transform="translate(613.210156 392.598437)scale(0.1 -0.1)">
       <defs>
        <path d="M 9.421875 75.984375 
L 18.40625 75.984375 
L 18.40625 0 
L 9.421875 0 
z
" id="DejaVuSans-108"/>
        <path d="M 8.5 21.578125 
L 8.5 54.6875 
L 17.484375 54.6875 
L 17.484375 21.921875 
Q 17.484375 14.15625 20.5 10.265625 
Q 23.53125 6.390625 29.59375 6.390625 
Q 36.859375 6.390625 41.078125 11.03125 
Q 45.3125 15.671875 45.3125 23.6875 
L 45.3125 54.6875 
L 54.296875 54.6875 
L 54.296875 0 
L 45.3125 0 
L 45.3125 8.40625 
Q 42.046875 3.421875 37.71875 1 
Q 33.40625 -1.421875 27.6875 -1.421875 
Q 18.265625 -1.421875 13.375 4.4375 
Q 8.5 10.296875 8.5 21.578125 
z
M 31.109375 56 
z
" id="DejaVuSans-117"/>
        <path d="M 45.40625 46.390625 
L 45.40625 75.984375 
L 54.390625 75.984375 
L 54.390625 0 
L 45.40625 0 
L 45.40625 8.203125 
Q 42.578125 3.328125 38.25 0.953125 
Q 33.9375 -1.421875 27.875 -1.421875 
Q 17.96875 -1.421875 11.734375 6.484375 
Q 5.515625 14.40625 5.515625 27.296875 
Q 5.515625 40.1875 11.734375 48.09375 
Q 17.96875 56 27.875 56 
Q 33.9375 56 38.25 53.625 
Q 42.578125 51.265625 45.40625 46.390625 
z
M 14.796875 27.296875 
Q 14.796875 17.390625 18.875 11.75 
Q 22.953125 6.109375 30.078125 6.109375 
Q 37.203125 6.109375 41.296875 11.75 
Q 45.40625 17.390625 45.40625 27.296875 
Q 45.40625 37.203125 41.296875 42.84375 
Q 37.203125 48.484375 30.078125 48.484375 
Q 22.953125 48.484375 18.875 42.84375 
Q 14.796875 37.203125 14.796875 27.296875 
z
" id="DejaVuSans-100"/>
       </defs>
       <use xlink:href="#DejaVuSans-105"/>
       <use x="27.783203" xlink:href="#DejaVuSans-110"/>
       <use x="91.162109" xlink:href="#DejaVuSans-99"/>
       <use x="146.142578" xlink:href="#DejaVuSans-108"/>
       <use x="173.925781" xlink:href="#DejaVuSans-117"/>
       <use x="237.304688" xlink:href="#DejaVuSans-100"/>
       <use x="300.78125" xlink:href="#DejaVuSans-101"/>
       <use x="362.304688" xlink:href="#DejaVuSans-100"/>
      </g>
     </g>
    </g>
    <g id="xtick_9">
     <g id="line2d_9">
      <g>
       <use style="stroke:#000000;stroke-width:0.8;" x="690.3" xlink:href="#mbe3326b75a" y="378"/>
      </g>
     </g>
     <g id="text_9">
      <!-- positively -->
      <g transform="translate(666.339062 392.598437)scale(0.1 -0.1)">
       <defs>
        <path d="M 18.109375 8.203125 
L 18.109375 -20.796875 
L 9.078125 -20.796875 
L 9.078125 54.6875 
L 18.109375 54.6875 
L 18.109375 46.390625 
Q 20.953125 51.265625 25.265625 53.625 
Q 29.59375 56 35.59375 56 
Q 45.5625 56 51.78125 48.09375 
Q 58.015625 40.1875 58.015625 27.296875 
Q 58.015625 14.40625 51.78125 6.484375 
Q 45.5625 -1.421875 35.59375 -1.421875 
Q 29.59375 -1.421875 25.265625 0.953125 
Q 20.953125 3.328125 18.109375 8.203125 
z
M 48.6875 27.296875 
Q 48.6875 37.203125 44.609375 42.84375 
Q 40.53125 48.484375 33.40625 48.484375 
Q 26.265625 48.484375 22.1875 42.84375 
Q 18.109375 37.203125 18.109375 27.296875 
Q 18.109375 17.390625 22.1875 11.75 
Q 26.265625 6.109375 33.40625 6.109375 
Q 40.53125 6.109375 44.609375 11.75 
Q 48.6875 17.390625 48.6875 27.296875 
z
" id="DejaVuSans-112"/>
       </defs>
       <use xlink:href="#DejaVuSans-112"/>
       <use x="63.476562" xlink:href="#DejaVuSans-111"/>
       <use x="124.658203" xlink:href="#DejaVuSans-115"/>
       <use x="176.757812" xlink:href="#DejaVuSans-105"/>
       <use x="204.541016" xlink:href="#DejaVuSans-116"/>
       <use x="243.75" xlink:href="#DejaVuSans-105"/>
       <use x="271.533203" xlink:href="#DejaVuSans-118"/>
       <use x="330.712891" xlink:href="#DejaVuSans-101"/>
       <use x="392.236328" xlink:href="#DejaVuSans-108"/>
       <use x="420.019531" xlink:href="#DejaVuSans-121"/>
      </g>
     </g>
    </g>
    <g id="xtick_10">
     <g id="line2d_10">
      <g>
       <use style="stroke:#000000;stroke-width:0.8;" x="746.1" xlink:href="#mbe3326b75a" y="378"/>
      </g>
     </g>
     <g id="text_10">
      <!-- by -->
      <g transform="translate(739.966406 392.598437)scale(0.1 -0.1)">
       <use xlink:href="#DejaVuSans-98"/>
       <use x="63.476562" xlink:href="#DejaVuSans-121"/>
      </g>
     </g>
    </g>
    <g id="xtick_11">
     <g id="line2d_11">
      <g>
       <use style="stroke:#000000;stroke-width:0.8;" x="801.9" xlink:href="#mbe3326b75a" y="378"/>
      </g>
     </g>
     <g id="text_11">
      <!-- means -->
      <g transform="translate(785.115625 392.598437)scale(0.1 -0.1)">
       <use xlink:href="#DejaVuSans-109"/>
       <use x="97.412109" xlink:href="#DejaVuSans-101"/>
       <use x="158.935547" xlink:href="#DejaVuSans-97"/>
       <use x="220.214844" xlink:href="#DejaVuSans-110"/>
       <use x="283.59375" xlink:href="#DejaVuSans-115"/>
      </g>
     </g>
    </g>
    <g id="xtick_12">
     <g id="line2d_12">
      <g>
       <use style="stroke:#000000;stroke-width:0.8;" x="857.7" xlink:href="#mbe3326b75a" y="378"/>
      </g>
     </g>
     <g id="text_12">
      <!-- of -->
      <g transform="translate(852.880469 392.598437)scale(0.1 -0.1)">
       <defs>
        <path d="M 37.109375 75.984375 
L 37.109375 68.5 
L 28.515625 68.5 
Q 23.6875 68.5 21.796875 66.546875 
Q 19.921875 64.59375 19.921875 59.515625 
L 19.921875 54.6875 
L 34.71875 54.6875 
L 34.71875 47.703125 
L 19.921875 47.703125 
L 19.921875 0 
L 10.890625 0 
L 10.890625 47.703125 
L 2.296875 47.703125 
L 2.296875 54.6875 
L 10.890625 54.6875 
L 10.890625 58.5 
Q 10.890625 67.625 15.140625 71.796875 
Q 19.390625 75.984375 28.609375 75.984375 
z
" id="DejaVuSans-102"/>
       </defs>
       <use xlink:href="#DejaVuSans-111"/>
       <use x="61.181641" xlink:href="#DejaVuSans-102"/>
      </g>
     </g>
    </g>
    <g id="xtick_13">
     <g id="line2d_13">
      <g>
       <use style="stroke:#000000;stroke-width:0.8;" x="913.5" xlink:href="#mbe3326b75a" y="378"/>
      </g>
     </g>
     <g id="text_13">
      <!-- a -->
      <g transform="translate(910.435937 392.598437)scale(0.1 -0.1)">
       <use xlink:href="#DejaVuSans-97"/>
      </g>
     </g>
    </g>
    <g id="xtick_14">
     <g id="line2d_14">
      <g>
       <use style="stroke:#000000;stroke-width:0.8;" x="969.3" xlink:href="#mbe3326b75a" y="378"/>
      </g>
     </g>
     <g id="text_14">
      <!-- conceptual -->
      <g transform="translate(941.740625 392.598437)scale(0.1 -0.1)">
       <use xlink:href="#DejaVuSans-99"/>
       <use x="54.980469" xlink:href="#DejaVuSans-111"/>
       <use x="116.162109" xlink:href="#DejaVuSans-110"/>
       <use x="179.541016" xlink:href="#DejaVuSans-99"/>
       <use x="234.521484" xlink:href="#DejaVuSans-101"/>
       <use x="296.044922" xlink:href="#DejaVuSans-112"/>
       <use x="359.521484" xlink:href="#DejaVuSans-116"/>
       <use x="398.730469" xlink:href="#DejaVuSans-117"/>
       <use x="462.109375" xlink:href="#DejaVuSans-97"/>
       <use x="523.388672" xlink:href="#DejaVuSans-108"/>
      </g>
     </g>
    </g>
    <g id="xtick_15">
     <g id="line2d_15">
      <g>
       <use style="stroke:#000000;stroke-width:0.8;" x="1025.1" xlink:href="#mbe3326b75a" y="378"/>
      </g>
     </g>
     <g id="text_15">
      <!-- feeling -->
      <g transform="translate(1008.065625 392.598437)scale(0.1 -0.1)">
       <use xlink:href="#DejaVuSans-102"/>
       <use x="35.205078" xlink:href="#DejaVuSans-101"/>
       <use x="96.728516" xlink:href="#DejaVuSans-101"/>
       <use x="158.251953" xlink:href="#DejaVuSans-108"/>
       <use x="186.035156" xlink:href="#DejaVuSans-105"/>
       <use x="213.818359" xlink:href="#DejaVuSans-110"/>
       <use x="277.197266" xlink:href="#DejaVuSans-103"/>
      </g>
     </g>
    </g>
    <g id="xtick_16">
     <g id="line2d_16">
      <g>
       <use style="stroke:#000000;stroke-width:0.8;" x="1080.9" xlink:href="#mbe3326b75a" y="378"/>
      </g>
     </g>
     <g id="text_16">
      <!-- but -->
      <g transform="translate(1072.596875 392.598437)scale(0.1 -0.1)">
       <use xlink:href="#DejaVuSans-98"/>
       <use x="63.476562" xlink:href="#DejaVuSans-117"/>
       <use x="126.855469" xlink:href="#DejaVuSans-116"/>
      </g>
     </g>
    </g>
    <g id="xtick_17">
     <g id="line2d_17">
      <g>
       <use style="stroke:#000000;stroke-width:0.8;" x="1136.7" xlink:href="#mbe3326b75a" y="378"/>
      </g>
     </g>
     <g id="text_17">
      <!-- it -->
      <g transform="translate(1133.350781 392.598437)scale(0.1 -0.1)">
       <use xlink:href="#DejaVuSans-105"/>
       <use x="27.783203" xlink:href="#DejaVuSans-116"/>
      </g>
     </g>
    </g>
    <g id="xtick_18">
     <g id="line2d_18">
      <g>
       <use style="stroke:#000000;stroke-width:0.8;" x="1192.5" xlink:href="#mbe3326b75a" y="378"/>
      </g>
     </g>
     <g id="text_18">
      <!-- may -->
      <g transform="translate(1181.60625 392.598437)scale(0.1 -0.1)">
       <use xlink:href="#DejaVuSans-109"/>
       <use x="97.412109" xlink:href="#DejaVuSans-97"/>
       <use x="158.691406" xlink:href="#DejaVuSans-121"/>
      </g>
     </g>
    </g>
    <g id="xtick_19">
     <g id="line2d_19">
      <g>
       <use style="stroke:#000000;stroke-width:0.8;" x="1248.3" xlink:href="#mbe3326b75a" y="378"/>
      </g>
     </g>
     <g id="text_19">
      <!-- be -->
      <g transform="translate(1242.049219 392.598437)scale(0.1 -0.1)">
       <use xlink:href="#DejaVuSans-98"/>
       <use x="63.476562" xlink:href="#DejaVuSans-101"/>
      </g>
     </g>
    </g>
    <g id="xtick_20">
     <g id="line2d_20">
      <g>
       <use style="stroke:#000000;stroke-width:0.8;" x="1304.1" xlink:href="#mbe3326b75a" y="378"/>
      </g>
     </g>
     <g id="text_20">
      <!-- excluded -->
      <g transform="translate(1281.507031 392.598437)scale(0.1 -0.1)">
       <defs>
        <path d="M 54.890625 54.6875 
L 35.109375 28.078125 
L 55.90625 0 
L 45.3125 0 
L 29.390625 21.484375 
L 13.484375 0 
L 2.875 0 
L 24.125 28.609375 
L 4.6875 54.6875 
L 15.28125 54.6875 
L 29.78125 35.203125 
L 44.28125 54.6875 
z
" id="DejaVuSans-120"/>
       </defs>
       <use xlink:href="#DejaVuSans-101"/>
       <use x="59.773438" xlink:href="#DejaVuSans-120"/>
       <use x="117.203125" xlink:href="#DejaVuSans-99"/>
       <use x="172.183594" xlink:href="#DejaVuSans-108"/>
       <use x="199.966797" xlink:href="#DejaVuSans-117"/>
       <use x="263.345703" xlink:href="#DejaVuSans-100"/>
       <use x="326.822266" xlink:href="#DejaVuSans-101"/>
       <use x="388.345703" xlink:href="#DejaVuSans-100"/>
      </g>
     </g>
    </g>
    <g id="xtick_21">
     <g id="line2d_21">
      <g>
       <use style="stroke:#000000;stroke-width:0.8;" x="1359.9" xlink:href="#mbe3326b75a" y="378"/>
      </g>
     </g>
     <g id="text_21">
      <!-- by -->
      <g transform="translate(1353.766406 392.598437)scale(0.1 -0.1)">
       <use xlink:href="#DejaVuSans-98"/>
       <use x="63.476562" xlink:href="#DejaVuSans-121"/>
      </g>
     </g>
    </g>
    <g id="xtick_22">
     <g id="line2d_22">
      <g>
       <use style="stroke:#000000;stroke-width:0.8;" x="1415.7" xlink:href="#mbe3326b75a" y="378"/>
      </g>
     </g>
     <g id="text_22">
      <!-- a -->
      <g transform="translate(1412.635937 392.598437)scale(0.1 -0.1)">
       <use xlink:href="#DejaVuSans-97"/>
      </g>
     </g>
    </g>
    <g id="xtick_23">
     <g id="line2d_23">
      <g>
       <use style="stroke:#000000;stroke-width:0.8;" x="1471.5" xlink:href="#mbe3326b75a" y="378"/>
      </g>
     </g>
     <g id="text_23">
      <!-- negative -->
      <g transform="translate(1449.63125 392.598437)scale(0.1 -0.1)">
       <use xlink:href="#DejaVuSans-110"/>
       <use x="63.378906" xlink:href="#DejaVuSans-101"/>
       <use x="124.902344" xlink:href="#DejaVuSans-103"/>
       <use x="188.378906" xlink:href="#DejaVuSans-97"/>
       <use x="249.658203" xlink:href="#DejaVuSans-116"/>
       <use x="288.867188" xlink:href="#DejaVuSans-105"/>
       <use x="316.650391" xlink:href="#DejaVuSans-118"/>
       <use x="375.830078" xlink:href="#DejaVuSans-101"/>
      </g>
     </g>
    </g>
    <g id="xtick_24">
     <g id="line2d_24">
      <g>
       <use style="stroke:#000000;stroke-width:0.8;" x="1527.3" xlink:href="#mbe3326b75a" y="378"/>
      </g>
     </g>
     <g id="text_24">
      <!-- prehension -->
      <g transform="translate(1499.470312 392.598437)scale(0.1 -0.1)">
       <defs>
        <path d="M 54.890625 33.015625 
L 54.890625 0 
L 45.90625 0 
L 45.90625 32.71875 
Q 45.90625 40.484375 42.875 44.328125 
Q 39.84375 48.1875 33.796875 48.1875 
Q 26.515625 48.1875 22.3125 43.546875 
Q 18.109375 38.921875 18.109375 30.90625 
L 18.109375 0 
L 9.078125 0 
L 9.078125 75.984375 
L 18.109375 75.984375 
L 18.109375 46.1875 
Q 21.34375 51.125 25.703125 53.5625 
Q 30.078125 56 35.796875 56 
Q 45.21875 56 50.046875 50.171875 
Q 54.890625 44.34375 54.890625 33.015625 
z
" id="DejaVuSans-104"/>
       </defs>
       <use xlink:href="#DejaVuSans-112"/>
       <use x="63.476562" xlink:href="#DejaVuSans-114"/>
       <use x="102.339844" xlink:href="#DejaVuSans-101"/>
       <use x="163.863281" xlink:href="#DejaVuSans-104"/>
       <use x="227.242188" xlink:href="#DejaVuSans-101"/>
       <use x="288.765625" xlink:href="#DejaVuSans-110"/>
       <use x="352.144531" xlink:href="#DejaVuSans-115"/>
       <use x="404.244141" xlink:href="#DejaVuSans-105"/>
       <use x="432.027344" xlink:href="#DejaVuSans-111"/>
       <use x="493.208984" xlink:href="#DejaVuSans-110"/>
      </g>
     </g>
    </g>
   </g>
   <g id="matplotlib.axis_2">
    <g id="ytick_1">
     <g id="line2d_25">
      <defs>
       <path d="M 0 0 
L -3.5 0 
" id="m7efea45284" style="stroke:#000000;stroke-width:0.8;"/>
      </defs>
      <g>
       <use style="stroke:#000000;stroke-width:0.8;" x="216" xlink:href="#m7efea45284" y="374.678106"/>
      </g>
     </g>
     <g id="text_25">
      <!-- −1 -->
      <g transform="translate(194.257812 378.477325)scale(0.1 -0.1)">
       <defs>
        <path d="M 10.59375 35.5 
L 73.1875 35.5 
L 73.1875 27.203125 
L 10.59375 27.203125 
z
" id="DejaVuSans-8722"/>
        <path d="M 12.40625 8.296875 
L 28.515625 8.296875 
L 28.515625 63.921875 
L 10.984375 60.40625 
L 10.984375 69.390625 
L 28.421875 72.90625 
L 38.28125 72.90625 
L 38.28125 8.296875 
L 54.390625 8.296875 
L 54.390625 0 
L 12.40625 0 
z
" id="DejaVuSans-49"/>
       </defs>
       <use xlink:href="#DejaVuSans-8722"/>
       <use x="83.789062" xlink:href="#DejaVuSans-49"/>
      </g>
     </g>
    </g>
    <g id="ytick_2">
     <g id="line2d_26">
      <g>
       <use style="stroke:#000000;stroke-width:0.8;" x="216" xlink:href="#m7efea45284" y="325.594974"/>
      </g>
     </g>
     <g id="text_26">
      <!-- 0 -->
      <g transform="translate(202.6375 329.394193)scale(0.1 -0.1)">
       <defs>
        <path d="M 31.78125 66.40625 
Q 24.171875 66.40625 20.328125 58.90625 
Q 16.5 51.421875 16.5 36.375 
Q 16.5 21.390625 20.328125 13.890625 
Q 24.171875 6.390625 31.78125 6.390625 
Q 39.453125 6.390625 43.28125 13.890625 
Q 47.125 21.390625 47.125 36.375 
Q 47.125 51.421875 43.28125 58.90625 
Q 39.453125 66.40625 31.78125 66.40625 
z
M 31.78125 74.21875 
Q 44.046875 74.21875 50.515625 64.515625 
Q 56.984375 54.828125 56.984375 36.375 
Q 56.984375 17.96875 50.515625 8.265625 
Q 44.046875 -1.421875 31.78125 -1.421875 
Q 19.53125 -1.421875 13.0625 8.265625 
Q 6.59375 17.96875 6.59375 36.375 
Q 6.59375 54.828125 13.0625 64.515625 
Q 19.53125 74.21875 31.78125 74.21875 
z
" id="DejaVuSans-48"/>
       </defs>
       <use xlink:href="#DejaVuSans-48"/>
      </g>
     </g>
    </g>
    <g id="ytick_3">
     <g id="line2d_27">
      <g>
       <use style="stroke:#000000;stroke-width:0.8;" x="216" xlink:href="#m7efea45284" y="276.511842"/>
      </g>
     </g>
     <g id="text_27">
      <!-- 1 -->
      <g transform="translate(202.6375 280.311061)scale(0.1 -0.1)">
       <use xlink:href="#DejaVuSans-49"/>
      </g>
     </g>
    </g>
    <g id="ytick_4">
     <g id="line2d_28">
      <g>
       <use style="stroke:#000000;stroke-width:0.8;" x="216" xlink:href="#m7efea45284" y="227.42871"/>
      </g>
     </g>
     <g id="text_28">
      <!-- 2 -->
      <g transform="translate(202.6375 231.227928)scale(0.1 -0.1)">
       <defs>
        <path d="M 19.1875 8.296875 
L 53.609375 8.296875 
L 53.609375 0 
L 7.328125 0 
L 7.328125 8.296875 
Q 12.9375 14.109375 22.625 23.890625 
Q 32.328125 33.6875 34.8125 36.53125 
Q 39.546875 41.84375 41.421875 45.53125 
Q 43.3125 49.21875 43.3125 52.78125 
Q 43.3125 58.59375 39.234375 62.25 
Q 35.15625 65.921875 28.609375 65.921875 
Q 23.96875 65.921875 18.8125 64.3125 
Q 13.671875 62.703125 7.8125 59.421875 
L 7.8125 69.390625 
Q 13.765625 71.78125 18.9375 73 
Q 24.125 74.21875 28.421875 74.21875 
Q 39.75 74.21875 46.484375 68.546875 
Q 53.21875 62.890625 53.21875 53.421875 
Q 53.21875 48.921875 51.53125 44.890625 
Q 49.859375 40.875 45.40625 35.40625 
Q 44.1875 33.984375 37.640625 27.21875 
Q 31.109375 20.453125 19.1875 8.296875 
z
" id="DejaVuSans-50"/>
       </defs>
       <use xlink:href="#DejaVuSans-50"/>
      </g>
     </g>
    </g>
    <g id="ytick_5">
     <g id="line2d_29">
      <g>
       <use style="stroke:#000000;stroke-width:0.8;" x="216" xlink:href="#m7efea45284" y="178.345577"/>
      </g>
     </g>
     <g id="text_29">
      <!-- 3 -->
      <g transform="translate(202.6375 182.144796)scale(0.1 -0.1)">
       <defs>
        <path d="M 40.578125 39.3125 
Q 47.65625 37.796875 51.625 33 
Q 55.609375 28.21875 55.609375 21.1875 
Q 55.609375 10.40625 48.1875 4.484375 
Q 40.765625 -1.421875 27.09375 -1.421875 
Q 22.515625 -1.421875 17.65625 -0.515625 
Q 12.796875 0.390625 7.625 2.203125 
L 7.625 11.71875 
Q 11.71875 9.328125 16.59375 8.109375 
Q 21.484375 6.890625 26.8125 6.890625 
Q 36.078125 6.890625 40.9375 10.546875 
Q 45.796875 14.203125 45.796875 21.1875 
Q 45.796875 27.640625 41.28125 31.265625 
Q 36.765625 34.90625 28.71875 34.90625 
L 20.21875 34.90625 
L 20.21875 43.015625 
L 29.109375 43.015625 
Q 36.375 43.015625 40.234375 45.921875 
Q 44.09375 48.828125 44.09375 54.296875 
Q 44.09375 59.90625 40.109375 62.90625 
Q 36.140625 65.921875 28.71875 65.921875 
Q 24.65625 65.921875 20.015625 65.03125 
Q 15.375 64.15625 9.8125 62.3125 
L 9.8125 71.09375 
Q 15.4375 72.65625 20.34375 73.4375 
Q 25.25 74.21875 29.59375 74.21875 
Q 40.828125 74.21875 47.359375 69.109375 
Q 53.90625 64.015625 53.90625 55.328125 
Q 53.90625 49.265625 50.4375 45.09375 
Q 46.96875 40.921875 40.578125 39.3125 
z
" id="DejaVuSans-51"/>
       </defs>
       <use xlink:href="#DejaVuSans-51"/>
      </g>
     </g>
    </g>
    <g id="ytick_6">
     <g id="line2d_30">
      <g>
       <use style="stroke:#000000;stroke-width:0.8;" x="216" xlink:href="#m7efea45284" y="129.262445"/>
      </g>
     </g>
     <g id="text_30">
      <!-- 4 -->
      <g transform="translate(202.6375 133.061664)scale(0.1 -0.1)">
       <defs>
        <path d="M 37.796875 64.3125 
L 12.890625 25.390625 
L 37.796875 25.390625 
z
M 35.203125 72.90625 
L 47.609375 72.90625 
L 47.609375 25.390625 
L 58.015625 25.390625 
L 58.015625 17.1875 
L 47.609375 17.1875 
L 47.609375 0 
L 37.796875 0 
L 37.796875 17.1875 
L 4.890625 17.1875 
L 4.890625 26.703125 
z
" id="DejaVuSans-52"/>
       </defs>
       <use xlink:href="#DejaVuSans-52"/>
      </g>
     </g>
    </g>
    <g id="ytick_7">
     <g id="line2d_31">
      <g>
       <use style="stroke:#000000;stroke-width:0.8;" x="216" xlink:href="#m7efea45284" y="80.179313"/>
      </g>
     </g>
     <g id="text_31">
      <!-- 5 -->
      <g transform="translate(202.6375 83.978532)scale(0.1 -0.1)">
       <defs>
        <path d="M 10.796875 72.90625 
L 49.515625 72.90625 
L 49.515625 64.59375 
L 19.828125 64.59375 
L 19.828125 46.734375 
Q 21.96875 47.46875 24.109375 47.828125 
Q 26.265625 48.1875 28.421875 48.1875 
Q 40.625 48.1875 47.75 41.5 
Q 54.890625 34.8125 54.890625 23.390625 
Q 54.890625 11.625 47.5625 5.09375 
Q 40.234375 -1.421875 26.90625 -1.421875 
Q 22.3125 -1.421875 17.546875 -0.640625 
Q 12.796875 0.140625 7.71875 1.703125 
L 7.71875 11.625 
Q 12.109375 9.234375 16.796875 8.0625 
Q 21.484375 6.890625 26.703125 6.890625 
Q 35.15625 6.890625 40.078125 11.328125 
Q 45.015625 15.765625 45.015625 23.390625 
Q 45.015625 31 40.078125 35.4375 
Q 35.15625 39.890625 26.703125 39.890625 
Q 22.75 39.890625 18.8125 39.015625 
Q 14.890625 38.140625 10.796875 36.28125 
z
" id="DejaVuSans-53"/>
       </defs>
       <use xlink:href="#DejaVuSans-53"/>
      </g>
     </g>
    </g>
    <g id="text_32">
     <!-- alpha scaled TF-IDF -->
     <g transform="translate(188.178125 263.950469)rotate(-90)scale(0.1 -0.1)">
      <defs>
       <path id="DejaVuSans-32"/>
       <path d="M -0.296875 72.90625 
L 61.375 72.90625 
L 61.375 64.59375 
L 35.5 64.59375 
L 35.5 0 
L 25.59375 0 
L 25.59375 64.59375 
L -0.296875 64.59375 
z
" id="DejaVuSans-84"/>
       <path d="M 9.8125 72.90625 
L 51.703125 72.90625 
L 51.703125 64.59375 
L 19.671875 64.59375 
L 19.671875 43.109375 
L 48.578125 43.109375 
L 48.578125 34.8125 
L 19.671875 34.8125 
L 19.671875 0 
L 9.8125 0 
z
" id="DejaVuSans-70"/>
       <path d="M 4.890625 31.390625 
L 31.203125 31.390625 
L 31.203125 23.390625 
L 4.890625 23.390625 
z
" id="DejaVuSans-45"/>
       <path d="M 19.671875 64.796875 
L 19.671875 8.109375 
L 31.59375 8.109375 
Q 46.6875 8.109375 53.6875 14.9375 
Q 60.6875 21.78125 60.6875 36.53125 
Q 60.6875 51.171875 53.6875 57.984375 
Q 46.6875 64.796875 31.59375 64.796875 
z
M 9.8125 72.90625 
L 30.078125 72.90625 
Q 51.265625 72.90625 61.171875 64.09375 
Q 71.09375 55.28125 71.09375 36.53125 
Q 71.09375 17.671875 61.125 8.828125 
Q 51.171875 0 30.078125 0 
L 9.8125 0 
z
" id="DejaVuSans-68"/>
      </defs>
      <use xlink:href="#DejaVuSans-97"/>
      <use x="61.279297" xlink:href="#DejaVuSans-108"/>
      <use x="89.0625" xlink:href="#DejaVuSans-112"/>
      <use x="152.539062" xlink:href="#DejaVuSans-104"/>
      <use x="215.917969" xlink:href="#DejaVuSans-97"/>
      <use x="277.197266" xlink:href="#DejaVuSans-32"/>
      <use x="308.984375" xlink:href="#DejaVuSans-115"/>
      <use x="361.083984" xlink:href="#DejaVuSans-99"/>
      <use x="416.064453" xlink:href="#DejaVuSans-97"/>
      <use x="477.34375" xlink:href="#DejaVuSans-108"/>
      <use x="505.126953" xlink:href="#DejaVuSans-101"/>
      <use x="566.650391" xlink:href="#DejaVuSans-100"/>
      <use x="630.126953" xlink:href="#DejaVuSans-32"/>
      <use x="661.914062" xlink:href="#DejaVuSans-84"/>
      <use x="722.998047" xlink:href="#DejaVuSans-70"/>
      <use x="780.517578" xlink:href="#DejaVuSans-45"/>
      <use x="816.601562" xlink:href="#DejaVuSans-73"/>
      <use x="846.09375" xlink:href="#DejaVuSans-68"/>
      <use x="923.095703" xlink:href="#DejaVuSans-70"/>
     </g>
    </g>
   </g>
   <g id="line2d_32">
    <path clip-path="url(#pbcd0340f41)" d="M 243.9 325.594974 
L 248.192308 311.389932 
L 252.484615 300.612251 
L 256.776923 292.972879 
L 261.069231 288.182765 
L 265.361538 285.952859 
L 269.653846 285.99411 
L 273.946154 288.017467 
L 278.238462 291.733878 
L 282.530769 296.854293 
L 286.823077 303.089662 
L 291.115385 310.150932 
L 295.407692 317.749053 
L 303.992308 333.399644 
L 308.284615 340.874013 
L 312.576923 347.729029 
L 316.869231 353.675641 
L 321.161538 358.424798 
L 325.453846 361.68745 
L 329.746154 363.174545 
L 334.038462 362.597033 
L 338.330769 359.665863 
L 342.623077 354.091983 
L 346.915385 345.586343 
L 351.207692 333.859892 
L 355.5 318.623578 
L 359.792308 299.769066 
L 364.084615 277.910877 
L 368.376923 253.844245 
L 376.961538 202.266598 
L 381.253846 176.346055 
L 385.546154 151.398011 
L 389.838462 128.217704 
L 394.130769 107.600369 
L 398.423077 90.34124 
L 402.715385 77.235555 
L 407.007692 69.078548 
L 411.3 66.665455 
L 415.592308 70.521038 
L 419.884615 80.088171 
L 424.176923 94.539251 
L 428.469231 113.046678 
L 432.761538 134.782851 
L 437.053846 158.920169 
L 441.346154 184.631031 
L 449.930769 237.462983 
L 454.223077 262.928871 
L 458.515385 286.6579 
L 462.807692 307.822468 
L 467.1 325.594974 
L 471.392308 339.354551 
L 475.684615 349.307266 
L 479.976923 355.865918 
L 484.269231 359.443308 
L 488.561538 360.452234 
L 492.853846 359.305498 
L 497.146154 356.415898 
L 501.438462 352.196236 
L 505.730769 347.05931 
L 518.607692 330.272953 
L 522.9 325.594974 
L 527.192308 321.975521 
L 531.484615 319.386341 
L 535.776923 317.710971 
L 540.069231 316.832949 
L 544.361538 316.635811 
L 548.653846 317.003094 
L 552.946154 317.818335 
L 557.238462 318.965072 
L 565.823077 321.787178 
L 570.115385 323.229621 
L 574.407692 324.537708 
L 578.7 325.594974 
L 582.992308 326.311169 
L 587.284615 326.700887 
L 591.576923 326.804934 
L 595.869231 326.664117 
L 600.161538 326.319242 
L 604.453846 325.811116 
L 613.038462 324.468333 
L 625.915385 322.249928 
L 630.207692 321.619224 
L 634.5 321.110912 
L 638.792308 320.756467 
L 643.084615 320.550041 
L 647.376923 320.476453 
L 655.961538 320.667071 
L 664.546154 321.206878 
L 677.423077 322.405663 
L 694.592308 324.095051 
L 703.176923 324.763274 
L 711.761538 325.278656 
L 720.346154 325.630357 
L 728.930769 325.807538 
L 737.515385 325.799357 
L 746.1 325.594974 
L 754.684615 325.188442 
L 763.269231 324.593387 
L 771.853846 323.828332 
L 784.730769 322.402512 
L 797.607692 320.698369 
L 814.776923 318.281835 
L 819.069231 317.837417 
L 823.361538 317.541097 
L 827.653846 317.435316 
L 831.946154 317.562516 
L 836.238462 317.965136 
L 840.530769 318.685618 
L 844.823077 319.766401 
L 849.115385 321.249928 
L 853.407692 323.178639 
L 857.7 325.594974 
L 861.992308 328.498089 
L 874.869231 338.215145 
L 879.161538 341.06584 
L 883.453846 343.36026 
L 887.746154 344.881137 
L 892.038462 345.411202 
L 896.330769 344.733188 
L 900.623077 342.629826 
L 904.915385 338.883848 
L 909.207692 333.277987 
L 913.5 325.594974 
L 917.792308 315.719228 
L 922.084615 303.941913 
L 926.376923 290.655882 
L 930.669231 276.253985 
L 939.253846 245.674002 
L 943.546154 230.281618 
L 947.838462 215.344776 
L 952.130769 201.256325 
L 956.423077 188.409119 
L 960.715385 177.196007 
L 965.007692 168.009843 
L 969.3 161.243477 
L 973.592308 157.182897 
L 977.884615 155.68664 
L 982.176923 156.506376 
L 986.469231 159.393779 
L 990.761538 164.100519 
L 995.053846 170.37827 
L 999.346154 177.978703 
L 1003.638462 186.653491 
L 1007.930769 196.154305 
L 1012.223077 206.232817 
L 1025.1 237.451267 
L 1029.392308 247.394697 
L 1033.684615 256.898605 
L 1037.976923 265.93908 
L 1042.269231 274.492214 
L 1046.561538 282.534096 
L 1050.853846 290.040818 
L 1055.146154 296.98847 
L 1059.438462 303.353142 
L 1063.730769 309.110925 
L 1068.023077 314.237909 
L 1072.315385 318.710185 
L 1076.607692 322.503843 
L 1080.9 325.594974 
L 1085.192308 327.975428 
L 1089.484615 329.700094 
L 1093.776923 330.839622 
L 1098.069231 331.464659 
L 1102.361538 331.645854 
L 1106.653846 331.453856 
L 1110.946154 330.959315 
L 1115.238462 330.232878 
L 1123.823077 328.366914 
L 1132.407692 326.421155 
L 1136.7 325.594974 
L 1140.992308 324.946021 
L 1145.284615 324.471101 
L 1149.576923 324.152247 
L 1153.869231 323.971494 
L 1162.453846 323.95243 
L 1171.038462 324.270185 
L 1188.207692 325.341261 
L 1196.792308 325.81033 
L 1205.376923 326.121235 
L 1218.253846 326.306268 
L 1231.130769 326.182822 
L 1244.007692 325.783645 
L 1256.884615 325.149532 
L 1282.638462 323.773944 
L 1291.223077 323.495519 
L 1299.807692 323.403742 
L 1308.392308 323.553265 
L 1316.976923 323.922728 
L 1347.023077 325.520359 
L 1355.607692 325.648529 
L 1364.192308 325.452558 
L 1377.069231 324.708949 
L 1385.653846 324.204452 
L 1394.238462 323.930832 
L 1398.530769 323.94432 
L 1402.823077 324.091991 
L 1407.115385 324.399332 
L 1411.407692 324.89183 
L 1415.7 325.594974 
L 1419.992308 326.51312 
L 1432.869231 329.671422 
L 1437.161538 330.521166 
L 1441.453846 331.100575 
L 1445.746154 331.308356 
L 1450.038462 331.043216 
L 1454.330769 330.203862 
L 1458.623077 328.688999 
L 1462.915385 326.397335 
L 1467.207692 323.227576 
L 1471.5 319.078428 
L 1475.792308 313.848599 
L 1480.084615 307.436794 
L 1484.376923 299.74172 
L 1488.669231 290.662085 
L 1492.961538 280.096593 
L 1497.253846 267.943953 
L 1501.546154 254.102869 
L 1505.838462 238.47205 
L 1510.130769 220.950202 
L 1514.423077 201.43603 
L 1518.715385 179.828242 
L 1523.007692 156.025545 
L 1527.3 129.926644 
L 1527.3 129.926644 
" style="fill:none;stroke:#1f77b4;stroke-linecap:square;stroke-width:1.5;"/>
   </g>
   <g id="patch_3">
    <path d="M 216 378 
L 216 51.84 
" style="fill:none;stroke:#000000;stroke-linecap:square;stroke-linejoin:miter;stroke-width:0.8;"/>
   </g>
   <g id="patch_4">
    <path d="M 1555.2 378 
L 1555.2 51.84 
" style="fill:none;stroke:#000000;stroke-linecap:square;stroke-linejoin:miter;stroke-width:0.8;"/>
   </g>
   <g id="patch_5">
    <path d="M 216 378 
L 1555.2 378 
" style="fill:none;stroke:#000000;stroke-linecap:square;stroke-linejoin:miter;stroke-width:0.8;"/>
   </g>
   <g id="patch_6">
    <path d="M 216 51.84 
L 1555.2 51.84 
" style="fill:none;stroke:#000000;stroke-linecap:square;stroke-linejoin:miter;stroke-width:0.8;"/>
   </g>
   <g id="text_33">
    <!-- Fluctuating degrees of characteristic verbal eccentricity in an excerpt from Whitehead's Process &amp; Reality -->
    <g transform="translate(567.647813 45.84)scale(0.12 -0.12)">
     <defs>
      <path d="M 3.328125 72.90625 
L 13.28125 72.90625 
L 28.609375 11.28125 
L 43.890625 72.90625 
L 54.984375 72.90625 
L 70.3125 11.28125 
L 85.59375 72.90625 
L 95.609375 72.90625 
L 77.296875 0 
L 64.890625 0 
L 49.515625 63.28125 
L 33.984375 0 
L 21.578125 0 
z
" id="DejaVuSans-87"/>
      <path d="M 17.921875 72.90625 
L 17.921875 45.796875 
L 9.625 45.796875 
L 9.625 72.90625 
z
" id="DejaVuSans-39"/>
      <path d="M 19.671875 64.796875 
L 19.671875 37.40625 
L 32.078125 37.40625 
Q 38.96875 37.40625 42.71875 40.96875 
Q 46.484375 44.53125 46.484375 51.125 
Q 46.484375 57.671875 42.71875 61.234375 
Q 38.96875 64.796875 32.078125 64.796875 
z
M 9.8125 72.90625 
L 32.078125 72.90625 
Q 44.34375 72.90625 50.609375 67.359375 
Q 56.890625 61.8125 56.890625 51.125 
Q 56.890625 40.328125 50.609375 34.8125 
Q 44.34375 29.296875 32.078125 29.296875 
L 19.671875 29.296875 
L 19.671875 0 
L 9.8125 0 
z
" id="DejaVuSans-80"/>
      <path d="M 24.3125 39.203125 
Q 19.875 35.25 17.796875 31.3125 
Q 15.71875 27.390625 15.71875 23.09375 
Q 15.71875 15.96875 20.890625 11.234375 
Q 26.078125 6.5 33.890625 6.5 
Q 38.53125 6.5 42.578125 8.03125 
Q 46.625 9.578125 50.203125 12.703125 
z
M 31.203125 44.671875 
L 56 19.28125 
Q 58.890625 23.640625 60.5 28.59375 
Q 62.109375 33.546875 62.40625 39.109375 
L 71.484375 39.109375 
Q 70.90625 32.671875 68.359375 26.359375 
Q 65.828125 20.0625 61.28125 13.921875 
L 74.90625 0 
L 62.59375 0 
L 55.609375 7.171875 
Q 50.53125 2.828125 44.96875 0.703125 
Q 39.40625 -1.421875 33.015625 -1.421875 
Q 21.234375 -1.421875 13.765625 5.296875 
Q 6.296875 12.015625 6.296875 22.515625 
Q 6.296875 28.765625 9.5625 34.25 
Q 12.84375 39.75 19.390625 44.578125 
Q 17.046875 47.65625 15.8125 50.703125 
Q 14.59375 53.765625 14.59375 56.6875 
Q 14.59375 64.59375 20.015625 69.40625 
Q 25.4375 74.21875 34.421875 74.21875 
Q 38.484375 74.21875 42.5 73.34375 
Q 46.53125 72.46875 50.6875 70.703125 
L 50.6875 61.8125 
Q 46.4375 64.109375 42.578125 65.296875 
Q 38.71875 66.5 35.40625 66.5 
Q 30.28125 66.5 27.078125 63.78125 
Q 23.875 61.078125 23.875 56.78125 
Q 23.875 54.296875 25.3125 51.78125 
Q 26.765625 49.265625 31.203125 44.671875 
z
" id="DejaVuSans-38"/>
      <path d="M 44.390625 34.1875 
Q 47.5625 33.109375 50.5625 29.59375 
Q 53.5625 26.078125 56.59375 19.921875 
L 66.609375 0 
L 56 0 
L 46.6875 18.703125 
Q 43.0625 26.03125 39.671875 28.421875 
Q 36.28125 30.8125 30.421875 30.8125 
L 19.671875 30.8125 
L 19.671875 0 
L 9.8125 0 
L 9.8125 72.90625 
L 32.078125 72.90625 
Q 44.578125 72.90625 50.734375 67.671875 
Q 56.890625 62.453125 56.890625 51.90625 
Q 56.890625 45.015625 53.6875 40.46875 
Q 50.484375 35.9375 44.390625 34.1875 
z
M 19.671875 64.796875 
L 19.671875 38.921875 
L 32.078125 38.921875 
Q 39.203125 38.921875 42.84375 42.21875 
Q 46.484375 45.515625 46.484375 51.90625 
Q 46.484375 58.296875 42.84375 61.546875 
Q 39.203125 64.796875 32.078125 64.796875 
z
" id="DejaVuSans-82"/>
     </defs>
     <use xlink:href="#DejaVuSans-70"/>
     <use x="57.519531" xlink:href="#DejaVuSans-108"/>
     <use x="85.302734" xlink:href="#DejaVuSans-117"/>
     <use x="148.681641" xlink:href="#DejaVuSans-99"/>
     <use x="203.662109" xlink:href="#DejaVuSans-116"/>
     <use x="242.871094" xlink:href="#DejaVuSans-117"/>
     <use x="306.25" xlink:href="#DejaVuSans-97"/>
     <use x="367.529297" xlink:href="#DejaVuSans-116"/>
     <use x="406.738281" xlink:href="#DejaVuSans-105"/>
     <use x="434.521484" xlink:href="#DejaVuSans-110"/>
     <use x="497.900391" xlink:href="#DejaVuSans-103"/>
     <use x="561.376953" xlink:href="#DejaVuSans-32"/>
     <use x="593.164062" xlink:href="#DejaVuSans-100"/>
     <use x="656.640625" xlink:href="#DejaVuSans-101"/>
     <use x="718.164062" xlink:href="#DejaVuSans-103"/>
     <use x="781.640625" xlink:href="#DejaVuSans-114"/>
     <use x="820.503906" xlink:href="#DejaVuSans-101"/>
     <use x="882.027344" xlink:href="#DejaVuSans-101"/>
     <use x="943.550781" xlink:href="#DejaVuSans-115"/>
     <use x="995.650391" xlink:href="#DejaVuSans-32"/>
     <use x="1027.4375" xlink:href="#DejaVuSans-111"/>
     <use x="1088.619141" xlink:href="#DejaVuSans-102"/>
     <use x="1123.824219" xlink:href="#DejaVuSans-32"/>
     <use x="1155.611328" xlink:href="#DejaVuSans-99"/>
     <use x="1210.591797" xlink:href="#DejaVuSans-104"/>
     <use x="1273.970703" xlink:href="#DejaVuSans-97"/>
     <use x="1335.25" xlink:href="#DejaVuSans-114"/>
     <use x="1376.363281" xlink:href="#DejaVuSans-97"/>
     <use x="1437.642578" xlink:href="#DejaVuSans-99"/>
     <use x="1492.623047" xlink:href="#DejaVuSans-116"/>
     <use x="1531.832031" xlink:href="#DejaVuSans-101"/>
     <use x="1593.355469" xlink:href="#DejaVuSans-114"/>
     <use x="1634.46875" xlink:href="#DejaVuSans-105"/>
     <use x="1662.251953" xlink:href="#DejaVuSans-115"/>
     <use x="1714.351562" xlink:href="#DejaVuSans-116"/>
     <use x="1753.560547" xlink:href="#DejaVuSans-105"/>
     <use x="1781.34375" xlink:href="#DejaVuSans-99"/>
     <use x="1836.324219" xlink:href="#DejaVuSans-32"/>
     <use x="1868.111328" xlink:href="#DejaVuSans-118"/>
     <use x="1927.291016" xlink:href="#DejaVuSans-101"/>
     <use x="1988.814453" xlink:href="#DejaVuSans-114"/>
     <use x="2029.927734" xlink:href="#DejaVuSans-98"/>
     <use x="2093.404297" xlink:href="#DejaVuSans-97"/>
     <use x="2154.683594" xlink:href="#DejaVuSans-108"/>
     <use x="2182.466797" xlink:href="#DejaVuSans-32"/>
     <use x="2214.253906" xlink:href="#DejaVuSans-101"/>
     <use x="2275.777344" xlink:href="#DejaVuSans-99"/>
     <use x="2330.757812" xlink:href="#DejaVuSans-99"/>
     <use x="2385.738281" xlink:href="#DejaVuSans-101"/>
     <use x="2447.261719" xlink:href="#DejaVuSans-110"/>
     <use x="2510.640625" xlink:href="#DejaVuSans-116"/>
     <use x="2549.849609" xlink:href="#DejaVuSans-114"/>
     <use x="2590.962891" xlink:href="#DejaVuSans-105"/>
     <use x="2618.746094" xlink:href="#DejaVuSans-99"/>
     <use x="2673.726562" xlink:href="#DejaVuSans-105"/>
     <use x="2701.509766" xlink:href="#DejaVuSans-116"/>
     <use x="2740.71875" xlink:href="#DejaVuSans-121"/>
     <use x="2799.898438" xlink:href="#DejaVuSans-32"/>
     <use x="2831.685547" xlink:href="#DejaVuSans-105"/>
     <use x="2859.46875" xlink:href="#DejaVuSans-110"/>
     <use x="2922.847656" xlink:href="#DejaVuSans-32"/>
     <use x="2954.634766" xlink:href="#DejaVuSans-97"/>
     <use x="3015.914062" xlink:href="#DejaVuSans-110"/>
     <use x="3079.292969" xlink:href="#DejaVuSans-32"/>
     <use x="3111.080078" xlink:href="#DejaVuSans-101"/>
     <use x="3170.853516" xlink:href="#DejaVuSans-120"/>
     <use x="3228.283203" xlink:href="#DejaVuSans-99"/>
     <use x="3283.263672" xlink:href="#DejaVuSans-101"/>
     <use x="3344.787109" xlink:href="#DejaVuSans-114"/>
     <use x="3385.900391" xlink:href="#DejaVuSans-112"/>
     <use x="3449.376953" xlink:href="#DejaVuSans-116"/>
     <use x="3488.585938" xlink:href="#DejaVuSans-32"/>
     <use x="3520.373047" xlink:href="#DejaVuSans-102"/>
     <use x="3555.578125" xlink:href="#DejaVuSans-114"/>
     <use x="3594.441406" xlink:href="#DejaVuSans-111"/>
     <use x="3655.623047" xlink:href="#DejaVuSans-109"/>
     <use x="3753.035156" xlink:href="#DejaVuSans-32"/>
     <use x="3784.822266" xlink:href="#DejaVuSans-87"/>
     <use x="3883.699219" xlink:href="#DejaVuSans-104"/>
     <use x="3947.078125" xlink:href="#DejaVuSans-105"/>
     <use x="3974.861328" xlink:href="#DejaVuSans-116"/>
     <use x="4014.070312" xlink:href="#DejaVuSans-101"/>
     <use x="4075.59375" xlink:href="#DejaVuSans-104"/>
     <use x="4138.972656" xlink:href="#DejaVuSans-101"/>
     <use x="4200.496094" xlink:href="#DejaVuSans-97"/>
     <use x="4261.775391" xlink:href="#DejaVuSans-100"/>
     <use x="4325.251953" xlink:href="#DejaVuSans-39"/>
     <use x="4352.742188" xlink:href="#DejaVuSans-115"/>
     <use x="4404.841797" xlink:href="#DejaVuSans-32"/>
     <use x="4436.628906" xlink:href="#DejaVuSans-80"/>
     <use x="4495.181641" xlink:href="#DejaVuSans-114"/>
     <use x="4534.044922" xlink:href="#DejaVuSans-111"/>
     <use x="4595.226562" xlink:href="#DejaVuSans-99"/>
     <use x="4650.207031" xlink:href="#DejaVuSans-101"/>
     <use x="4711.730469" xlink:href="#DejaVuSans-115"/>
     <use x="4763.830078" xlink:href="#DejaVuSans-115"/>
     <use x="4815.929688" xlink:href="#DejaVuSans-32"/>
     <use x="4847.716797" xlink:href="#DejaVuSans-38"/>
     <use x="4925.695312" xlink:href="#DejaVuSans-32"/>
     <use x="4957.482422" xlink:href="#DejaVuSans-82"/>
     <use x="5022.464844" xlink:href="#DejaVuSans-101"/>
     <use x="5083.988281" xlink:href="#DejaVuSans-97"/>
     <use x="5145.267578" xlink:href="#DejaVuSans-108"/>
     <use x="5173.050781" xlink:href="#DejaVuSans-105"/>
     <use x="5200.833984" xlink:href="#DejaVuSans-116"/>
     <use x="5240.042969" xlink:href="#DejaVuSans-121"/>
    </g>
   </g>
  </g>
 </g>
 <defs>
  <clipPath id="pbcd0340f41">
   <rect height="326.16" width="1339.2" x="216" y="51.84"/>
  </clipPath>
 </defs>
</svg>
