<?xml version="1.0" encoding="utf-8" standalone="no"?>
<!DOCTYPE svg PUBLIC "-//W3C//DTD SVG 1.1//EN"
  "http://www.w3.org/Graphics/SVG/1.1/DTD/svg11.dtd">
<!-- Created with matplotlib (https://matplotlib.org/) -->
<svg height="216pt" version="1.1" viewBox="0 0 2160 216" width="2160pt" xmlns="http://www.w3.org/2000/svg" xmlns:xlink="http://www.w3.org/1999/xlink">
 <metadata>
  <rdf:RDF xmlns:cc="http://creativecommons.org/ns#" xmlns:dc="http://purl.org/dc/elements/1.1/" xmlns:rdf="http://www.w3.org/1999/02/22-rdf-syntax-ns#">
   <cc:Work>
    <dc:type rdf:resource="http://purl.org/dc/dcmitype/StillImage"/>
    <dc:date>2021-02-28T23:20:20.756560</dc:date>
    <dc:format>image/svg+xml</dc:format>
    <dc:creator>
     <cc:Agent>
      <dc:title>Matplotlib v3.3.3, https://matplotlib.org/</dc:title>
     </cc:Agent>
    </dc:creator>
   </cc:Work>
  </rdf:RDF>
 </metadata>
 <defs>
  <style type="text/css">*{stroke-linecap:butt;stroke-linejoin:round;}</style>
 </defs>
 <g id="figure_1">
  <g id="patch_1">
   <path d="M 0 216 
L 2160 216 
L 2160 0 
L 0 0 
z
" style="fill:none;"/>
  </g>
  <g id="axes_1">
   <g id="PathCollection_1">
    <defs>
     <path d="M 0 5 
C 1.326016 5 2.597899 4.473168 3.535534 3.535534 
C 4.473168 2.597899 5 1.326016 5 0 
C 5 -1.326016 4.473168 -2.597899 3.535534 -3.535534 
C 2.597899 -4.473168 1.326016 -5 0 -5 
C -1.326016 -5 -2.597899 -4.473168 -3.535534 -3.535534 
C -4.473168 -2.597899 -5 -1.326016 -5 0 
C -5 1.326016 -4.473168 2.597899 -3.535534 3.535534 
C -2.597899 4.473168 -1.326016 5 0 5 
z
" id="m7ddbb2255b" style="stroke:#1f77b4;"/>
    </defs>
    <g clip-path="url(#pd2977b5c0e)">
     <use style="fill:#1f77b4;stroke:#1f77b4;" x="282.492537" xlink:href="#m7ddbb2255b" y="163.813613"/>
     <use style="fill:#1f77b4;stroke:#1f77b4;" x="307.477612" xlink:href="#m7ddbb2255b" y="163.813613"/>
     <use style="fill:#1f77b4;stroke:#1f77b4;" x="332.462687" xlink:href="#m7ddbb2255b" y="153.517598"/>
     <use style="fill:#1f77b4;stroke:#1f77b4;" x="357.447761" xlink:href="#m7ddbb2255b" y="163.813613"/>
     <use style="fill:#1f77b4;stroke:#1f77b4;" x="382.432836" xlink:href="#m7ddbb2255b" y="50.127297"/>
     <use style="fill:#1f77b4;stroke:#1f77b4;" x="407.41791" xlink:href="#m7ddbb2255b" y="163.813613"/>
     <use style="fill:#1f77b4;stroke:#1f77b4;" x="432.402985" xlink:href="#m7ddbb2255b" y="163.813613"/>
     <use style="fill:#1f77b4;stroke:#1f77b4;" x="457.38806" xlink:href="#m7ddbb2255b" y="163.813613"/>
     <use style="fill:#1f77b4;stroke:#1f77b4;" x="482.373134" xlink:href="#m7ddbb2255b" y="161.58393"/>
     <use style="fill:#1f77b4;stroke:#1f77b4;" x="507.358209" xlink:href="#m7ddbb2255b" y="163.813613"/>
     <use style="fill:#1f77b4;stroke:#1f77b4;" x="532.343284" xlink:href="#m7ddbb2255b" y="151.57409"/>
     <use style="fill:#1f77b4;stroke:#1f77b4;" x="557.328358" xlink:href="#m7ddbb2255b" y="163.813613"/>
     <use style="fill:#1f77b4;stroke:#1f77b4;" x="582.313433" xlink:href="#m7ddbb2255b" y="163.813613"/>
     <use style="fill:#1f77b4;stroke:#1f77b4;" x="607.298507" xlink:href="#m7ddbb2255b" y="162.051406"/>
     <use style="fill:#1f77b4;stroke:#1f77b4;" x="632.283582" xlink:href="#m7ddbb2255b" y="33.332727"/>
     <use style="fill:#1f77b4;stroke:#1f77b4;" x="657.268657" xlink:href="#m7ddbb2255b" y="159.151974"/>
     <use style="fill:#1f77b4;stroke:#1f77b4;" x="682.253731" xlink:href="#m7ddbb2255b" y="163.813613"/>
     <use style="fill:#1f77b4;stroke:#1f77b4;" x="707.238806" xlink:href="#m7ddbb2255b" y="155.52367"/>
     <use style="fill:#1f77b4;stroke:#1f77b4;" x="732.223881" xlink:href="#m7ddbb2255b" y="163.813613"/>
     <use style="fill:#1f77b4;stroke:#1f77b4;" x="757.208955" xlink:href="#m7ddbb2255b" y="33.332727"/>
     <use style="fill:#1f77b4;stroke:#1f77b4;" x="782.19403" xlink:href="#m7ddbb2255b" y="163.813613"/>
     <use style="fill:#1f77b4;stroke:#1f77b4;" x="807.179104" xlink:href="#m7ddbb2255b" y="140.576564"/>
     <use style="fill:#1f77b4;stroke:#1f77b4;" x="832.164179" xlink:href="#m7ddbb2255b" y="151.57409"/>
     <use style="fill:#1f77b4;stroke:#1f77b4;" x="857.149254" xlink:href="#m7ddbb2255b" y="163.813613"/>
     <use style="fill:#1f77b4;stroke:#1f77b4;" x="882.134328" xlink:href="#m7ddbb2255b" y="163.813613"/>
     <use style="fill:#1f77b4;stroke:#1f77b4;" x="907.119403" xlink:href="#m7ddbb2255b" y="152.832548"/>
     <use style="fill:#1f77b4;stroke:#1f77b4;" x="932.104478" xlink:href="#m7ddbb2255b" y="127.626125"/>
     <use style="fill:#1f77b4;stroke:#1f77b4;" x="957.089552" xlink:href="#m7ddbb2255b" y="162.96695"/>
     <use style="fill:#1f77b4;stroke:#1f77b4;" x="982.074627" xlink:href="#m7ddbb2255b" y="163.813613"/>
     <use style="fill:#1f77b4;stroke:#1f77b4;" x="1007.059701" xlink:href="#m7ddbb2255b" y="138.868204"/>
     <use style="fill:#1f77b4;stroke:#1f77b4;" x="1032.044776" xlink:href="#m7ddbb2255b" y="155.746447"/>
     <use style="fill:#1f77b4;stroke:#1f77b4;" x="1057.029851" xlink:href="#m7ddbb2255b" y="163.813613"/>
     <use style="fill:#1f77b4;stroke:#1f77b4;" x="1082.014925" xlink:href="#m7ddbb2255b" y="163.813613"/>
     <use style="fill:#1f77b4;stroke:#1f77b4;" x="1107" xlink:href="#m7ddbb2255b" y="163.813613"/>
     <use style="fill:#1f77b4;stroke:#1f77b4;" x="1131.985075" xlink:href="#m7ddbb2255b" y="159.119307"/>
     <use style="fill:#1f77b4;stroke:#1f77b4;" x="1156.970149" xlink:href="#m7ddbb2255b" y="163.813613"/>
     <use style="fill:#1f77b4;stroke:#1f77b4;" x="1181.955224" xlink:href="#m7ddbb2255b" y="163.813613"/>
     <use style="fill:#1f77b4;stroke:#1f77b4;" x="1206.940299" xlink:href="#m7ddbb2255b" y="162.56028"/>
     <use style="fill:#1f77b4;stroke:#1f77b4;" x="1231.925373" xlink:href="#m7ddbb2255b" y="163.813613"/>
     <use style="fill:#1f77b4;stroke:#1f77b4;" x="1256.910448" xlink:href="#m7ddbb2255b" y="158.232972"/>
     <use style="fill:#1f77b4;stroke:#1f77b4;" x="1281.895522" xlink:href="#m7ddbb2255b" y="160.312382"/>
     <use style="fill:#1f77b4;stroke:#1f77b4;" x="1306.880597" xlink:href="#m7ddbb2255b" y="33.332727"/>
     <use style="fill:#1f77b4;stroke:#1f77b4;" x="1331.865672" xlink:href="#m7ddbb2255b" y="163.813613"/>
     <use style="fill:#1f77b4;stroke:#1f77b4;" x="1356.850746" xlink:href="#m7ddbb2255b" y="163.813613"/>
     <use style="fill:#1f77b4;stroke:#1f77b4;" x="1381.835821" xlink:href="#m7ddbb2255b" y="163.520906"/>
     <use style="fill:#1f77b4;stroke:#1f77b4;" x="1406.820896" xlink:href="#m7ddbb2255b" y="33.332727"/>
     <use style="fill:#1f77b4;stroke:#1f77b4;" x="1431.80597" xlink:href="#m7ddbb2255b" y="162.96695"/>
     <use style="fill:#1f77b4;stroke:#1f77b4;" x="1456.791045" xlink:href="#m7ddbb2255b" y="163.813613"/>
     <use style="fill:#1f77b4;stroke:#1f77b4;" x="1481.776119" xlink:href="#m7ddbb2255b" y="163.813613"/>
     <use style="fill:#1f77b4;stroke:#1f77b4;" x="1506.761194" xlink:href="#m7ddbb2255b" y="138.868204"/>
     <use style="fill:#1f77b4;stroke:#1f77b4;" x="1531.746269" xlink:href="#m7ddbb2255b" y="155.746447"/>
     <use style="fill:#1f77b4;stroke:#1f77b4;" x="1556.731343" xlink:href="#m7ddbb2255b" y="163.813613"/>
     <use style="fill:#1f77b4;stroke:#1f77b4;" x="1581.716418" xlink:href="#m7ddbb2255b" y="153.517598"/>
     <use style="fill:#1f77b4;stroke:#1f77b4;" x="1606.701493" xlink:href="#m7ddbb2255b" y="163.813613"/>
     <use style="fill:#1f77b4;stroke:#1f77b4;" x="1631.686567" xlink:href="#m7ddbb2255b" y="163.813613"/>
     <use style="fill:#1f77b4;stroke:#1f77b4;" x="1656.671642" xlink:href="#m7ddbb2255b" y="163.634312"/>
     <use style="fill:#1f77b4;stroke:#1f77b4;" x="1681.656716" xlink:href="#m7ddbb2255b" y="163.813613"/>
     <use style="fill:#1f77b4;stroke:#1f77b4;" x="1706.641791" xlink:href="#m7ddbb2255b" y="33.332727"/>
     <use style="fill:#1f77b4;stroke:#1f77b4;" x="1731.626866" xlink:href="#m7ddbb2255b" y="163.813613"/>
     <use style="fill:#1f77b4;stroke:#1f77b4;" x="1756.61194" xlink:href="#m7ddbb2255b" y="159.897003"/>
     <use style="fill:#1f77b4;stroke:#1f77b4;" x="1781.597015" xlink:href="#m7ddbb2255b" y="163.813613"/>
     <use style="fill:#1f77b4;stroke:#1f77b4;" x="1806.58209" xlink:href="#m7ddbb2255b" y="163.813613"/>
     <use style="fill:#1f77b4;stroke:#1f77b4;" x="1831.567164" xlink:href="#m7ddbb2255b" y="163.813613"/>
     <use style="fill:#1f77b4;stroke:#1f77b4;" x="1856.552239" xlink:href="#m7ddbb2255b" y="139.168258"/>
     <use style="fill:#1f77b4;stroke:#1f77b4;" x="1881.537313" xlink:href="#m7ddbb2255b" y="160.312382"/>
     <use style="fill:#1f77b4;stroke:#1f77b4;" x="1906.522388" xlink:href="#m7ddbb2255b" y="148.758321"/>
    </g>
   </g>
   <g id="matplotlib.axis_1">
    <g id="xtick_1">
     <g id="line2d_1">
      <defs>
       <path d="M 0 0 
L 0 3.5 
" id="md8a809ec31" style="stroke:#000000;stroke-width:0.8;"/>
      </defs>
      <g>
       <use style="stroke:#000000;stroke-width:0.8;" x="282.492537" xlink:href="#md8a809ec31" y="189"/>
      </g>
     </g>
     <g id="text_1">
      <!-- In -->
      <g transform="translate(280.170662 199.799219)scale(0.05 -0.05)">
       <defs>
        <path d="M 9.8125 72.90625 
L 19.671875 72.90625 
L 19.671875 0 
L 9.8125 0 
z
" id="DejaVuSans-73"/>
        <path d="M 54.890625 33.015625 
L 54.890625 0 
L 45.90625 0 
L 45.90625 32.71875 
Q 45.90625 40.484375 42.875 44.328125 
Q 39.84375 48.1875 33.796875 48.1875 
Q 26.515625 48.1875 22.3125 43.546875 
Q 18.109375 38.921875 18.109375 30.90625 
L 18.109375 0 
L 9.078125 0 
L 9.078125 54.6875 
L 18.109375 54.6875 
L 18.109375 46.1875 
Q 21.34375 51.125 25.703125 53.5625 
Q 30.078125 56 35.796875 56 
Q 45.21875 56 50.046875 50.171875 
Q 54.890625 44.34375 54.890625 33.015625 
z
" id="DejaVuSans-110"/>
       </defs>
       <use xlink:href="#DejaVuSans-73"/>
       <use x="29.492188" xlink:href="#DejaVuSans-110"/>
      </g>
     </g>
    </g>
    <g id="xtick_2">
     <g id="line2d_2">
      <g>
       <use style="stroke:#000000;stroke-width:0.8;" x="307.477612" xlink:href="#md8a809ec31" y="189"/>
      </g>
     </g>
     <g id="text_2">
      <!-- a -->
      <g transform="translate(305.945581 199.799219)scale(0.05 -0.05)">
       <defs>
        <path d="M 34.28125 27.484375 
Q 23.390625 27.484375 19.1875 25 
Q 14.984375 22.515625 14.984375 16.5 
Q 14.984375 11.71875 18.140625 8.90625 
Q 21.296875 6.109375 26.703125 6.109375 
Q 34.1875 6.109375 38.703125 11.40625 
Q 43.21875 16.703125 43.21875 25.484375 
L 43.21875 27.484375 
z
M 52.203125 31.203125 
L 52.203125 0 
L 43.21875 0 
L 43.21875 8.296875 
Q 40.140625 3.328125 35.546875 0.953125 
Q 30.953125 -1.421875 24.3125 -1.421875 
Q 15.921875 -1.421875 10.953125 3.296875 
Q 6 8.015625 6 15.921875 
Q 6 25.140625 12.171875 29.828125 
Q 18.359375 34.515625 30.609375 34.515625 
L 43.21875 34.515625 
L 43.21875 35.40625 
Q 43.21875 41.609375 39.140625 45 
Q 35.0625 48.390625 27.6875 48.390625 
Q 23 48.390625 18.546875 47.265625 
Q 14.109375 46.140625 10.015625 43.890625 
L 10.015625 52.203125 
Q 14.9375 54.109375 19.578125 55.046875 
Q 24.21875 56 28.609375 56 
Q 40.484375 56 46.34375 49.84375 
Q 52.203125 43.703125 52.203125 31.203125 
z
" id="DejaVuSans-97"/>
       </defs>
       <use xlink:href="#DejaVuSans-97"/>
      </g>
     </g>
    </g>
    <g id="xtick_3">
     <g id="line2d_3">
      <g>
       <use style="stroke:#000000;stroke-width:0.8;" x="332.462687" xlink:href="#md8a809ec31" y="189"/>
      </g>
     </g>
     <g id="text_3">
      <!-- process -->
      <g transform="translate(322.856827 199.799219)scale(0.05 -0.05)">
       <defs>
        <path d="M 18.109375 8.203125 
L 18.109375 -20.796875 
L 9.078125 -20.796875 
L 9.078125 54.6875 
L 18.109375 54.6875 
L 18.109375 46.390625 
Q 20.953125 51.265625 25.265625 53.625 
Q 29.59375 56 35.59375 56 
Q 45.5625 56 51.78125 48.09375 
Q 58.015625 40.1875 58.015625 27.296875 
Q 58.015625 14.40625 51.78125 6.484375 
Q 45.5625 -1.421875 35.59375 -1.421875 
Q 29.59375 -1.421875 25.265625 0.953125 
Q 20.953125 3.328125 18.109375 8.203125 
z
M 48.6875 27.296875 
Q 48.6875 37.203125 44.609375 42.84375 
Q 40.53125 48.484375 33.40625 48.484375 
Q 26.265625 48.484375 22.1875 42.84375 
Q 18.109375 37.203125 18.109375 27.296875 
Q 18.109375 17.390625 22.1875 11.75 
Q 26.265625 6.109375 33.40625 6.109375 
Q 40.53125 6.109375 44.609375 11.75 
Q 48.6875 17.390625 48.6875 27.296875 
z
" id="DejaVuSans-112"/>
        <path d="M 41.109375 46.296875 
Q 39.59375 47.171875 37.8125 47.578125 
Q 36.03125 48 33.890625 48 
Q 26.265625 48 22.1875 43.046875 
Q 18.109375 38.09375 18.109375 28.8125 
L 18.109375 0 
L 9.078125 0 
L 9.078125 54.6875 
L 18.109375 54.6875 
L 18.109375 46.1875 
Q 20.953125 51.171875 25.484375 53.578125 
Q 30.03125 56 36.53125 56 
Q 37.453125 56 38.578125 55.875 
Q 39.703125 55.765625 41.0625 55.515625 
z
" id="DejaVuSans-114"/>
        <path d="M 30.609375 48.390625 
Q 23.390625 48.390625 19.1875 42.75 
Q 14.984375 37.109375 14.984375 27.296875 
Q 14.984375 17.484375 19.15625 11.84375 
Q 23.34375 6.203125 30.609375 6.203125 
Q 37.796875 6.203125 41.984375 11.859375 
Q 46.1875 17.53125 46.1875 27.296875 
Q 46.1875 37.015625 41.984375 42.703125 
Q 37.796875 48.390625 30.609375 48.390625 
z
M 30.609375 56 
Q 42.328125 56 49.015625 48.375 
Q 55.71875 40.765625 55.71875 27.296875 
Q 55.71875 13.875 49.015625 6.21875 
Q 42.328125 -1.421875 30.609375 -1.421875 
Q 18.84375 -1.421875 12.171875 6.21875 
Q 5.515625 13.875 5.515625 27.296875 
Q 5.515625 40.765625 12.171875 48.375 
Q 18.84375 56 30.609375 56 
z
" id="DejaVuSans-111"/>
        <path d="M 48.78125 52.59375 
L 48.78125 44.1875 
Q 44.96875 46.296875 41.140625 47.34375 
Q 37.3125 48.390625 33.40625 48.390625 
Q 24.65625 48.390625 19.8125 42.84375 
Q 14.984375 37.3125 14.984375 27.296875 
Q 14.984375 17.28125 19.8125 11.734375 
Q 24.65625 6.203125 33.40625 6.203125 
Q 37.3125 6.203125 41.140625 7.25 
Q 44.96875 8.296875 48.78125 10.40625 
L 48.78125 2.09375 
Q 45.015625 0.34375 40.984375 -0.53125 
Q 36.96875 -1.421875 32.421875 -1.421875 
Q 20.0625 -1.421875 12.78125 6.34375 
Q 5.515625 14.109375 5.515625 27.296875 
Q 5.515625 40.671875 12.859375 48.328125 
Q 20.21875 56 33.015625 56 
Q 37.15625 56 41.109375 55.140625 
Q 45.0625 54.296875 48.78125 52.59375 
z
" id="DejaVuSans-99"/>
        <path d="M 56.203125 29.59375 
L 56.203125 25.203125 
L 14.890625 25.203125 
Q 15.484375 15.921875 20.484375 11.0625 
Q 25.484375 6.203125 34.421875 6.203125 
Q 39.59375 6.203125 44.453125 7.46875 
Q 49.3125 8.734375 54.109375 11.28125 
L 54.109375 2.78125 
Q 49.265625 0.734375 44.1875 -0.34375 
Q 39.109375 -1.421875 33.890625 -1.421875 
Q 20.796875 -1.421875 13.15625 6.1875 
Q 5.515625 13.8125 5.515625 26.8125 
Q 5.515625 40.234375 12.765625 48.109375 
Q 20.015625 56 32.328125 56 
Q 43.359375 56 49.78125 48.890625 
Q 56.203125 41.796875 56.203125 29.59375 
z
M 47.21875 32.234375 
Q 47.125 39.59375 43.09375 43.984375 
Q 39.0625 48.390625 32.421875 48.390625 
Q 24.90625 48.390625 20.390625 44.140625 
Q 15.875 39.890625 15.1875 32.171875 
z
" id="DejaVuSans-101"/>
        <path d="M 44.28125 53.078125 
L 44.28125 44.578125 
Q 40.484375 46.53125 36.375 47.5 
Q 32.28125 48.484375 27.875 48.484375 
Q 21.1875 48.484375 17.84375 46.4375 
Q 14.5 44.390625 14.5 40.28125 
Q 14.5 37.15625 16.890625 35.375 
Q 19.28125 33.59375 26.515625 31.984375 
L 29.59375 31.296875 
Q 39.15625 29.25 43.1875 25.515625 
Q 47.21875 21.78125 47.21875 15.09375 
Q 47.21875 7.46875 41.1875 3.015625 
Q 35.15625 -1.421875 24.609375 -1.421875 
Q 20.21875 -1.421875 15.453125 -0.5625 
Q 10.6875 0.296875 5.421875 2 
L 5.421875 11.28125 
Q 10.40625 8.6875 15.234375 7.390625 
Q 20.0625 6.109375 24.8125 6.109375 
Q 31.15625 6.109375 34.5625 8.28125 
Q 37.984375 10.453125 37.984375 14.40625 
Q 37.984375 18.0625 35.515625 20.015625 
Q 33.0625 21.96875 24.703125 23.78125 
L 21.578125 24.515625 
Q 13.234375 26.265625 9.515625 29.90625 
Q 5.8125 33.546875 5.8125 39.890625 
Q 5.8125 47.609375 11.28125 51.796875 
Q 16.75 56 26.8125 56 
Q 31.78125 56 36.171875 55.265625 
Q 40.578125 54.546875 44.28125 53.078125 
z
" id="DejaVuSans-115"/>
       </defs>
       <use xlink:href="#DejaVuSans-112"/>
       <use x="63.476562" xlink:href="#DejaVuSans-114"/>
       <use x="102.339844" xlink:href="#DejaVuSans-111"/>
       <use x="163.521484" xlink:href="#DejaVuSans-99"/>
       <use x="218.501953" xlink:href="#DejaVuSans-101"/>
       <use x="280.025391" xlink:href="#DejaVuSans-115"/>
       <use x="332.125" xlink:href="#DejaVuSans-115"/>
      </g>
     </g>
    </g>
    <g id="xtick_4">
     <g id="line2d_4">
      <g>
       <use style="stroke:#000000;stroke-width:0.8;" x="357.447761" xlink:href="#md8a809ec31" y="189"/>
      </g>
     </g>
     <g id="text_4">
      <!-- of -->
      <g transform="translate(355.037996 199.799219)scale(0.05 -0.05)">
       <defs>
        <path d="M 37.109375 75.984375 
L 37.109375 68.5 
L 28.515625 68.5 
Q 23.6875 68.5 21.796875 66.546875 
Q 19.921875 64.59375 19.921875 59.515625 
L 19.921875 54.6875 
L 34.71875 54.6875 
L 34.71875 47.703125 
L 19.921875 47.703125 
L 19.921875 0 
L 10.890625 0 
L 10.890625 47.703125 
L 2.296875 47.703125 
L 2.296875 54.6875 
L 10.890625 54.6875 
L 10.890625 58.5 
Q 10.890625 67.625 15.140625 71.796875 
Q 19.390625 75.984375 28.609375 75.984375 
z
" id="DejaVuSans-102"/>
       </defs>
       <use xlink:href="#DejaVuSans-111"/>
       <use x="61.181641" xlink:href="#DejaVuSans-102"/>
      </g>
     </g>
    </g>
    <g id="xtick_5">
     <g id="line2d_5">
      <g>
       <use style="stroke:#000000;stroke-width:0.8;" x="382.432836" xlink:href="#md8a809ec31" y="189"/>
      </g>
     </g>
     <g id="text_5">
      <!-- concrescence -->
      <g transform="translate(365.347289 199.799219)scale(0.05 -0.05)">
       <use xlink:href="#DejaVuSans-99"/>
       <use x="54.980469" xlink:href="#DejaVuSans-111"/>
       <use x="116.162109" xlink:href="#DejaVuSans-110"/>
       <use x="179.541016" xlink:href="#DejaVuSans-99"/>
       <use x="234.521484" xlink:href="#DejaVuSans-114"/>
       <use x="273.384766" xlink:href="#DejaVuSans-101"/>
       <use x="334.908203" xlink:href="#DejaVuSans-115"/>
       <use x="387.007812" xlink:href="#DejaVuSans-99"/>
       <use x="441.988281" xlink:href="#DejaVuSans-101"/>
       <use x="503.511719" xlink:href="#DejaVuSans-110"/>
       <use x="566.890625" xlink:href="#DejaVuSans-99"/>
       <use x="621.871094" xlink:href="#DejaVuSans-101"/>
      </g>
     </g>
    </g>
    <g id="xtick_6">
     <g id="line2d_6">
      <g>
       <use style="stroke:#000000;stroke-width:0.8;" x="407.41791" xlink:href="#md8a809ec31" y="189"/>
      </g>
     </g>
     <g id="text_6">
      <!-- there -->
      <g transform="translate(400.80541 199.799219)scale(0.05 -0.05)">
       <defs>
        <path d="M 18.3125 70.21875 
L 18.3125 54.6875 
L 36.8125 54.6875 
L 36.8125 47.703125 
L 18.3125 47.703125 
L 18.3125 18.015625 
Q 18.3125 11.328125 20.140625 9.421875 
Q 21.96875 7.515625 27.59375 7.515625 
L 36.8125 7.515625 
L 36.8125 0 
L 27.59375 0 
Q 17.1875 0 13.234375 3.875 
Q 9.28125 7.765625 9.28125 18.015625 
L 9.28125 47.703125 
L 2.6875 47.703125 
L 2.6875 54.6875 
L 9.28125 54.6875 
L 9.28125 70.21875 
z
" id="DejaVuSans-116"/>
        <path d="M 54.890625 33.015625 
L 54.890625 0 
L 45.90625 0 
L 45.90625 32.71875 
Q 45.90625 40.484375 42.875 44.328125 
Q 39.84375 48.1875 33.796875 48.1875 
Q 26.515625 48.1875 22.3125 43.546875 
Q 18.109375 38.921875 18.109375 30.90625 
L 18.109375 0 
L 9.078125 0 
L 9.078125 75.984375 
L 18.109375 75.984375 
L 18.109375 46.1875 
Q 21.34375 51.125 25.703125 53.5625 
Q 30.078125 56 35.796875 56 
Q 45.21875 56 50.046875 50.171875 
Q 54.890625 44.34375 54.890625 33.015625 
z
" id="DejaVuSans-104"/>
       </defs>
       <use xlink:href="#DejaVuSans-116"/>
       <use x="39.208984" xlink:href="#DejaVuSans-104"/>
       <use x="102.587891" xlink:href="#DejaVuSans-101"/>
       <use x="164.111328" xlink:href="#DejaVuSans-114"/>
       <use x="202.974609" xlink:href="#DejaVuSans-101"/>
      </g>
     </g>
    </g>
    <g id="xtick_7">
     <g id="line2d_7">
      <g>
       <use style="stroke:#000000;stroke-width:0.8;" x="432.402985" xlink:href="#md8a809ec31" y="189"/>
      </g>
     </g>
     <g id="text_7">
      <!-- is -->
      <g transform="translate(430.40611 199.799219)scale(0.05 -0.05)">
       <defs>
        <path d="M 9.421875 54.6875 
L 18.40625 54.6875 
L 18.40625 0 
L 9.421875 0 
z
M 9.421875 75.984375 
L 18.40625 75.984375 
L 18.40625 64.59375 
L 9.421875 64.59375 
z
" id="DejaVuSans-105"/>
       </defs>
       <use xlink:href="#DejaVuSans-105"/>
       <use x="27.783203" xlink:href="#DejaVuSans-115"/>
      </g>
     </g>
    </g>
    <g id="xtick_8">
     <g id="line2d_8">
      <g>
       <use style="stroke:#000000;stroke-width:0.8;" x="457.38806" xlink:href="#md8a809ec31" y="189"/>
      </g>
     </g>
     <g id="text_8">
      <!-- a -->
      <g transform="translate(455.856028 199.799219)scale(0.05 -0.05)">
       <use xlink:href="#DejaVuSans-97"/>
      </g>
     </g>
    </g>
    <g id="xtick_9">
     <g id="line2d_9">
      <g>
       <use style="stroke:#000000;stroke-width:0.8;" x="482.373134" xlink:href="#md8a809ec31" y="189"/>
      </g>
     </g>
     <g id="text_9">
      <!-- succession -->
      <g transform="translate(468.785634 199.799219)scale(0.05 -0.05)">
       <defs>
        <path d="M 8.5 21.578125 
L 8.5 54.6875 
L 17.484375 54.6875 
L 17.484375 21.921875 
Q 17.484375 14.15625 20.5 10.265625 
Q 23.53125 6.390625 29.59375 6.390625 
Q 36.859375 6.390625 41.078125 11.03125 
Q 45.3125 15.671875 45.3125 23.6875 
L 45.3125 54.6875 
L 54.296875 54.6875 
L 54.296875 0 
L 45.3125 0 
L 45.3125 8.40625 
Q 42.046875 3.421875 37.71875 1 
Q 33.40625 -1.421875 27.6875 -1.421875 
Q 18.265625 -1.421875 13.375 4.4375 
Q 8.5 10.296875 8.5 21.578125 
z
M 31.109375 56 
z
" id="DejaVuSans-117"/>
       </defs>
       <use xlink:href="#DejaVuSans-115"/>
       <use x="52.099609" xlink:href="#DejaVuSans-117"/>
       <use x="115.478516" xlink:href="#DejaVuSans-99"/>
       <use x="170.458984" xlink:href="#DejaVuSans-99"/>
       <use x="225.439453" xlink:href="#DejaVuSans-101"/>
       <use x="286.962891" xlink:href="#DejaVuSans-115"/>
       <use x="339.0625" xlink:href="#DejaVuSans-115"/>
       <use x="391.162109" xlink:href="#DejaVuSans-105"/>
       <use x="418.945312" xlink:href="#DejaVuSans-111"/>
       <use x="480.126953" xlink:href="#DejaVuSans-110"/>
      </g>
     </g>
    </g>
    <g id="xtick_10">
     <g id="line2d_10">
      <g>
       <use style="stroke:#000000;stroke-width:0.8;" x="507.358209" xlink:href="#md8a809ec31" y="189"/>
      </g>
     </g>
     <g id="text_10">
      <!-- of -->
      <g transform="translate(504.948443 199.799219)scale(0.05 -0.05)">
       <use xlink:href="#DejaVuSans-111"/>
       <use x="61.181641" xlink:href="#DejaVuSans-102"/>
      </g>
     </g>
    </g>
    <g id="xtick_11">
     <g id="line2d_11">
      <g>
       <use style="stroke:#000000;stroke-width:0.8;" x="532.343284" xlink:href="#md8a809ec31" y="189"/>
      </g>
     </g>
     <g id="text_11">
      <!-- phases -->
      <g transform="translate(523.496799 199.799219)scale(0.05 -0.05)">
       <use xlink:href="#DejaVuSans-112"/>
       <use x="63.476562" xlink:href="#DejaVuSans-104"/>
       <use x="126.855469" xlink:href="#DejaVuSans-97"/>
       <use x="188.134766" xlink:href="#DejaVuSans-115"/>
       <use x="240.234375" xlink:href="#DejaVuSans-101"/>
       <use x="301.757812" xlink:href="#DejaVuSans-115"/>
      </g>
     </g>
    </g>
    <g id="xtick_12">
     <g id="line2d_12">
      <g>
       <use style="stroke:#000000;stroke-width:0.8;" x="557.328358" xlink:href="#md8a809ec31" y="189"/>
      </g>
     </g>
     <g id="text_12">
      <!-- in -->
      <g transform="translate(555.049452 199.799219)scale(0.05 -0.05)">
       <use xlink:href="#DejaVuSans-105"/>
       <use x="27.783203" xlink:href="#DejaVuSans-110"/>
      </g>
     </g>
    </g>
    <g id="xtick_13">
     <g id="line2d_13">
      <g>
       <use style="stroke:#000000;stroke-width:0.8;" x="582.313433" xlink:href="#md8a809ec31" y="189"/>
      </g>
     </g>
     <g id="text_13">
      <!-- which -->
      <g transform="translate(575.031011 199.799219)scale(0.05 -0.05)">
       <defs>
        <path d="M 4.203125 54.6875 
L 13.1875 54.6875 
L 24.421875 12.015625 
L 35.59375 54.6875 
L 46.1875 54.6875 
L 57.421875 12.015625 
L 68.609375 54.6875 
L 77.59375 54.6875 
L 63.28125 0 
L 52.6875 0 
L 40.921875 44.828125 
L 29.109375 0 
L 18.5 0 
z
" id="DejaVuSans-119"/>
       </defs>
       <use xlink:href="#DejaVuSans-119"/>
       <use x="81.787109" xlink:href="#DejaVuSans-104"/>
       <use x="145.166016" xlink:href="#DejaVuSans-105"/>
       <use x="172.949219" xlink:href="#DejaVuSans-99"/>
       <use x="227.929688" xlink:href="#DejaVuSans-104"/>
      </g>
     </g>
    </g>
    <g id="xtick_14">
     <g id="line2d_14">
      <g>
       <use style="stroke:#000000;stroke-width:0.8;" x="607.298507" xlink:href="#md8a809ec31" y="189"/>
      </g>
     </g>
     <g id="text_14">
      <!-- new -->
      <g transform="translate(602.13132 199.799219)scale(0.05 -0.05)">
       <use xlink:href="#DejaVuSans-110"/>
       <use x="63.378906" xlink:href="#DejaVuSans-101"/>
       <use x="124.902344" xlink:href="#DejaVuSans-119"/>
      </g>
     </g>
    </g>
    <g id="xtick_15">
     <g id="line2d_15">
      <g>
       <use style="stroke:#000000;stroke-width:0.8;" x="632.283582" xlink:href="#md8a809ec31" y="189"/>
      </g>
     </g>
     <g id="text_15">
      <!-- prehensions -->
      <g transform="translate(617.066395 199.799219)scale(0.05 -0.05)">
       <use xlink:href="#DejaVuSans-112"/>
       <use x="63.476562" xlink:href="#DejaVuSans-114"/>
       <use x="102.339844" xlink:href="#DejaVuSans-101"/>
       <use x="163.863281" xlink:href="#DejaVuSans-104"/>
       <use x="227.242188" xlink:href="#DejaVuSans-101"/>
       <use x="288.765625" xlink:href="#DejaVuSans-110"/>
       <use x="352.144531" xlink:href="#DejaVuSans-115"/>
       <use x="404.244141" xlink:href="#DejaVuSans-105"/>
       <use x="432.027344" xlink:href="#DejaVuSans-111"/>
       <use x="493.208984" xlink:href="#DejaVuSans-110"/>
       <use x="556.587891" xlink:href="#DejaVuSans-115"/>
      </g>
     </g>
    </g>
    <g id="xtick_16">
     <g id="line2d_16">
      <g>
       <use style="stroke:#000000;stroke-width:0.8;" x="657.268657" xlink:href="#md8a809ec31" y="189"/>
      </g>
     </g>
     <g id="text_16">
      <!-- arise -->
      <g transform="translate(651.173735 199.799219)scale(0.05 -0.05)">
       <use xlink:href="#DejaVuSans-97"/>
       <use x="61.279297" xlink:href="#DejaVuSans-114"/>
       <use x="102.392578" xlink:href="#DejaVuSans-105"/>
       <use x="130.175781" xlink:href="#DejaVuSans-115"/>
       <use x="182.275391" xlink:href="#DejaVuSans-101"/>
      </g>
     </g>
    </g>
    <g id="xtick_17">
     <g id="line2d_17">
      <g>
       <use style="stroke:#000000;stroke-width:0.8;" x="682.253731" xlink:href="#md8a809ec31" y="189"/>
      </g>
     </g>
     <g id="text_17">
      <!-- by -->
      <g transform="translate(679.186934 199.799219)scale(0.05 -0.05)">
       <defs>
        <path d="M 48.6875 27.296875 
Q 48.6875 37.203125 44.609375 42.84375 
Q 40.53125 48.484375 33.40625 48.484375 
Q 26.265625 48.484375 22.1875 42.84375 
Q 18.109375 37.203125 18.109375 27.296875 
Q 18.109375 17.390625 22.1875 11.75 
Q 26.265625 6.109375 33.40625 6.109375 
Q 40.53125 6.109375 44.609375 11.75 
Q 48.6875 17.390625 48.6875 27.296875 
z
M 18.109375 46.390625 
Q 20.953125 51.265625 25.265625 53.625 
Q 29.59375 56 35.59375 56 
Q 45.5625 56 51.78125 48.09375 
Q 58.015625 40.1875 58.015625 27.296875 
Q 58.015625 14.40625 51.78125 6.484375 
Q 45.5625 -1.421875 35.59375 -1.421875 
Q 29.59375 -1.421875 25.265625 0.953125 
Q 20.953125 3.328125 18.109375 8.203125 
L 18.109375 0 
L 9.078125 0 
L 9.078125 75.984375 
L 18.109375 75.984375 
z
" id="DejaVuSans-98"/>
        <path d="M 32.171875 -5.078125 
Q 28.375 -14.84375 24.75 -17.8125 
Q 21.140625 -20.796875 15.09375 -20.796875 
L 7.90625 -20.796875 
L 7.90625 -13.28125 
L 13.1875 -13.28125 
Q 16.890625 -13.28125 18.9375 -11.515625 
Q 21 -9.765625 23.484375 -3.21875 
L 25.09375 0.875 
L 2.984375 54.6875 
L 12.5 54.6875 
L 29.59375 11.921875 
L 46.6875 54.6875 
L 56.203125 54.6875 
z
" id="DejaVuSans-121"/>
       </defs>
       <use xlink:href="#DejaVuSans-98"/>
       <use x="63.476562" xlink:href="#DejaVuSans-121"/>
      </g>
     </g>
    </g>
    <g id="xtick_18">
     <g id="line2d_18">
      <g>
       <use style="stroke:#000000;stroke-width:0.8;" x="707.238806" xlink:href="#md8a809ec31" y="189"/>
      </g>
     </g>
     <g id="text_18">
      <!-- integration -->
      <g transform="translate(693.505993 199.799219)scale(0.05 -0.05)">
       <defs>
        <path d="M 45.40625 27.984375 
Q 45.40625 37.75 41.375 43.109375 
Q 37.359375 48.484375 30.078125 48.484375 
Q 22.859375 48.484375 18.828125 43.109375 
Q 14.796875 37.75 14.796875 27.984375 
Q 14.796875 18.265625 18.828125 12.890625 
Q 22.859375 7.515625 30.078125 7.515625 
Q 37.359375 7.515625 41.375 12.890625 
Q 45.40625 18.265625 45.40625 27.984375 
z
M 54.390625 6.78125 
Q 54.390625 -7.171875 48.1875 -13.984375 
Q 42 -20.796875 29.203125 -20.796875 
Q 24.46875 -20.796875 20.265625 -20.09375 
Q 16.0625 -19.390625 12.109375 -17.921875 
L 12.109375 -9.1875 
Q 16.0625 -11.328125 19.921875 -12.34375 
Q 23.78125 -13.375 27.78125 -13.375 
Q 36.625 -13.375 41.015625 -8.765625 
Q 45.40625 -4.15625 45.40625 5.171875 
L 45.40625 9.625 
Q 42.625 4.78125 38.28125 2.390625 
Q 33.9375 0 27.875 0 
Q 17.828125 0 11.671875 7.65625 
Q 5.515625 15.328125 5.515625 27.984375 
Q 5.515625 40.671875 11.671875 48.328125 
Q 17.828125 56 27.875 56 
Q 33.9375 56 38.28125 53.609375 
Q 42.625 51.21875 45.40625 46.390625 
L 45.40625 54.6875 
L 54.390625 54.6875 
z
" id="DejaVuSans-103"/>
       </defs>
       <use xlink:href="#DejaVuSans-105"/>
       <use x="27.783203" xlink:href="#DejaVuSans-110"/>
       <use x="91.162109" xlink:href="#DejaVuSans-116"/>
       <use x="130.371094" xlink:href="#DejaVuSans-101"/>
       <use x="191.894531" xlink:href="#DejaVuSans-103"/>
       <use x="255.371094" xlink:href="#DejaVuSans-114"/>
       <use x="296.484375" xlink:href="#DejaVuSans-97"/>
       <use x="357.763672" xlink:href="#DejaVuSans-116"/>
       <use x="396.972656" xlink:href="#DejaVuSans-105"/>
       <use x="424.755859" xlink:href="#DejaVuSans-111"/>
       <use x="485.9375" xlink:href="#DejaVuSans-110"/>
      </g>
     </g>
    </g>
    <g id="xtick_19">
     <g id="line2d_19">
      <g>
       <use style="stroke:#000000;stroke-width:0.8;" x="732.223881" xlink:href="#md8a809ec31" y="189"/>
      </g>
     </g>
     <g id="text_19">
      <!-- of -->
      <g transform="translate(729.814115 199.799219)scale(0.05 -0.05)">
       <use xlink:href="#DejaVuSans-111"/>
       <use x="61.181641" xlink:href="#DejaVuSans-102"/>
      </g>
     </g>
    </g>
    <g id="xtick_20">
     <g id="line2d_20">
      <g>
       <use style="stroke:#000000;stroke-width:0.8;" x="757.208955" xlink:href="#md8a809ec31" y="189"/>
      </g>
     </g>
     <g id="text_20">
      <!-- prehensions -->
      <g transform="translate(741.991768 199.799219)scale(0.05 -0.05)">
       <use xlink:href="#DejaVuSans-112"/>
       <use x="63.476562" xlink:href="#DejaVuSans-114"/>
       <use x="102.339844" xlink:href="#DejaVuSans-101"/>
       <use x="163.863281" xlink:href="#DejaVuSans-104"/>
       <use x="227.242188" xlink:href="#DejaVuSans-101"/>
       <use x="288.765625" xlink:href="#DejaVuSans-110"/>
       <use x="352.144531" xlink:href="#DejaVuSans-115"/>
       <use x="404.244141" xlink:href="#DejaVuSans-105"/>
       <use x="432.027344" xlink:href="#DejaVuSans-111"/>
       <use x="493.208984" xlink:href="#DejaVuSans-110"/>
       <use x="556.587891" xlink:href="#DejaVuSans-115"/>
      </g>
     </g>
    </g>
    <g id="xtick_21">
     <g id="line2d_21">
      <g>
       <use style="stroke:#000000;stroke-width:0.8;" x="782.19403" xlink:href="#md8a809ec31" y="189"/>
      </g>
     </g>
     <g id="text_21">
      <!-- in -->
      <g transform="translate(779.915124 199.799219)scale(0.05 -0.05)">
       <use xlink:href="#DejaVuSans-105"/>
       <use x="27.783203" xlink:href="#DejaVuSans-110"/>
      </g>
     </g>
    </g>
    <g id="xtick_22">
     <g id="line2d_22">
      <g>
       <use style="stroke:#000000;stroke-width:0.8;" x="807.179104" xlink:href="#md8a809ec31" y="189"/>
      </g>
     </g>
     <g id="text_22">
      <!-- antecedent -->
      <g transform="translate(792.941604 199.799219)scale(0.05 -0.05)">
       <defs>
        <path d="M 45.40625 46.390625 
L 45.40625 75.984375 
L 54.390625 75.984375 
L 54.390625 0 
L 45.40625 0 
L 45.40625 8.203125 
Q 42.578125 3.328125 38.25 0.953125 
Q 33.9375 -1.421875 27.875 -1.421875 
Q 17.96875 -1.421875 11.734375 6.484375 
Q 5.515625 14.40625 5.515625 27.296875 
Q 5.515625 40.1875 11.734375 48.09375 
Q 17.96875 56 27.875 56 
Q 33.9375 56 38.25 53.625 
Q 42.578125 51.265625 45.40625 46.390625 
z
M 14.796875 27.296875 
Q 14.796875 17.390625 18.875 11.75 
Q 22.953125 6.109375 30.078125 6.109375 
Q 37.203125 6.109375 41.296875 11.75 
Q 45.40625 17.390625 45.40625 27.296875 
Q 45.40625 37.203125 41.296875 42.84375 
Q 37.203125 48.484375 30.078125 48.484375 
Q 22.953125 48.484375 18.875 42.84375 
Q 14.796875 37.203125 14.796875 27.296875 
z
" id="DejaVuSans-100"/>
       </defs>
       <use xlink:href="#DejaVuSans-97"/>
       <use x="61.279297" xlink:href="#DejaVuSans-110"/>
       <use x="124.658203" xlink:href="#DejaVuSans-116"/>
       <use x="163.867188" xlink:href="#DejaVuSans-101"/>
       <use x="225.390625" xlink:href="#DejaVuSans-99"/>
       <use x="280.371094" xlink:href="#DejaVuSans-101"/>
       <use x="341.894531" xlink:href="#DejaVuSans-100"/>
       <use x="405.371094" xlink:href="#DejaVuSans-101"/>
       <use x="466.894531" xlink:href="#DejaVuSans-110"/>
       <use x="530.273438" xlink:href="#DejaVuSans-116"/>
      </g>
     </g>
    </g>
    <g id="xtick_23">
     <g id="line2d_23">
      <g>
       <use style="stroke:#000000;stroke-width:0.8;" x="832.164179" xlink:href="#md8a809ec31" y="189"/>
      </g>
     </g>
     <g id="text_23">
      <!-- phases -->
      <g transform="translate(823.317695 199.799219)scale(0.05 -0.05)">
       <use xlink:href="#DejaVuSans-112"/>
       <use x="63.476562" xlink:href="#DejaVuSans-104"/>
       <use x="126.855469" xlink:href="#DejaVuSans-97"/>
       <use x="188.134766" xlink:href="#DejaVuSans-115"/>
       <use x="240.234375" xlink:href="#DejaVuSans-101"/>
       <use x="301.757812" xlink:href="#DejaVuSans-115"/>
      </g>
     </g>
    </g>
    <g id="xtick_24">
     <g id="line2d_24">
      <g>
       <use style="stroke:#000000;stroke-width:0.8;" x="857.149254" xlink:href="#md8a809ec31" y="189"/>
      </g>
     </g>
     <g id="text_24">
      <!-- In -->
      <g transform="translate(854.827379 199.799219)scale(0.05 -0.05)">
       <use xlink:href="#DejaVuSans-73"/>
       <use x="29.492188" xlink:href="#DejaVuSans-110"/>
      </g>
     </g>
    </g>
    <g id="xtick_25">
     <g id="line2d_25">
      <g>
       <use style="stroke:#000000;stroke-width:0.8;" x="882.134328" xlink:href="#md8a809ec31" y="189"/>
      </g>
     </g>
     <g id="text_25">
      <!-- these -->
      <g transform="translate(875.190969 199.799219)scale(0.05 -0.05)">
       <use xlink:href="#DejaVuSans-116"/>
       <use x="39.208984" xlink:href="#DejaVuSans-104"/>
       <use x="102.587891" xlink:href="#DejaVuSans-101"/>
       <use x="164.111328" xlink:href="#DejaVuSans-115"/>
       <use x="216.210938" xlink:href="#DejaVuSans-101"/>
      </g>
     </g>
    </g>
    <g id="xtick_26">
     <g id="line2d_26">
      <g>
       <use style="stroke:#000000;stroke-width:0.8;" x="907.119403" xlink:href="#md8a809ec31" y="189"/>
      </g>
     </g>
     <g id="text_26">
      <!-- integrations -->
      <g transform="translate(892.084247 199.799219)scale(0.05 -0.05)">
       <use xlink:href="#DejaVuSans-105"/>
       <use x="27.783203" xlink:href="#DejaVuSans-110"/>
       <use x="91.162109" xlink:href="#DejaVuSans-116"/>
       <use x="130.371094" xlink:href="#DejaVuSans-101"/>
       <use x="191.894531" xlink:href="#DejaVuSans-103"/>
       <use x="255.371094" xlink:href="#DejaVuSans-114"/>
       <use x="296.484375" xlink:href="#DejaVuSans-97"/>
       <use x="357.763672" xlink:href="#DejaVuSans-116"/>
       <use x="396.972656" xlink:href="#DejaVuSans-105"/>
       <use x="424.755859" xlink:href="#DejaVuSans-111"/>
       <use x="485.9375" xlink:href="#DejaVuSans-110"/>
       <use x="549.316406" xlink:href="#DejaVuSans-115"/>
      </g>
     </g>
    </g>
    <g id="xtick_27">
     <g id="line2d_27">
      <g>
       <use style="stroke:#000000;stroke-width:0.8;" x="932.104478" xlink:href="#md8a809ec31" y="189"/>
      </g>
     </g>
     <g id="text_27">
      <!-- feelings -->
      <g transform="translate(922.284946 199.799219)scale(0.05 -0.05)">
       <defs>
        <path d="M 9.421875 75.984375 
L 18.40625 75.984375 
L 18.40625 0 
L 9.421875 0 
z
" id="DejaVuSans-108"/>
       </defs>
       <use xlink:href="#DejaVuSans-102"/>
       <use x="35.205078" xlink:href="#DejaVuSans-101"/>
       <use x="96.728516" xlink:href="#DejaVuSans-101"/>
       <use x="158.251953" xlink:href="#DejaVuSans-108"/>
       <use x="186.035156" xlink:href="#DejaVuSans-105"/>
       <use x="213.818359" xlink:href="#DejaVuSans-110"/>
       <use x="277.197266" xlink:href="#DejaVuSans-103"/>
       <use x="340.673828" xlink:href="#DejaVuSans-115"/>
      </g>
     </g>
    </g>
    <g id="xtick_28">
     <g id="line2d_28">
      <g>
       <use style="stroke:#000000;stroke-width:0.8;" x="957.089552" xlink:href="#md8a809ec31" y="189"/>
      </g>
     </g>
     <g id="text_28">
      <!-- contribute -->
      <g transform="translate(944.208693 199.799219)scale(0.05 -0.05)">
       <use xlink:href="#DejaVuSans-99"/>
       <use x="54.980469" xlink:href="#DejaVuSans-111"/>
       <use x="116.162109" xlink:href="#DejaVuSans-110"/>
       <use x="179.541016" xlink:href="#DejaVuSans-116"/>
       <use x="218.75" xlink:href="#DejaVuSans-114"/>
       <use x="259.863281" xlink:href="#DejaVuSans-105"/>
       <use x="287.646484" xlink:href="#DejaVuSans-98"/>
       <use x="351.123047" xlink:href="#DejaVuSans-117"/>
       <use x="414.501953" xlink:href="#DejaVuSans-116"/>
       <use x="453.710938" xlink:href="#DejaVuSans-101"/>
      </g>
     </g>
    </g>
    <g id="xtick_29">
     <g id="line2d_29">
      <g>
       <use style="stroke:#000000;stroke-width:0.8;" x="982.074627" xlink:href="#md8a809ec31" y="189"/>
      </g>
     </g>
     <g id="text_29">
      <!-- their -->
      <g transform="translate(976.249627 199.799219)scale(0.05 -0.05)">
       <use xlink:href="#DejaVuSans-116"/>
       <use x="39.208984" xlink:href="#DejaVuSans-104"/>
       <use x="102.587891" xlink:href="#DejaVuSans-101"/>
       <use x="164.111328" xlink:href="#DejaVuSans-105"/>
       <use x="191.894531" xlink:href="#DejaVuSans-114"/>
      </g>
     </g>
    </g>
    <g id="xtick_30">
     <g id="line2d_30">
      <g>
       <use style="stroke:#000000;stroke-width:0.8;" x="1007.059701" xlink:href="#md8a809ec31" y="189"/>
      </g>
     </g>
     <g id="text_30">
      <!-- subjective -->
      <g transform="translate(994.285873 199.799219)scale(0.05 -0.05)">
       <defs>
        <path d="M 9.421875 54.6875 
L 18.40625 54.6875 
L 18.40625 -0.984375 
Q 18.40625 -11.421875 14.421875 -16.109375 
Q 10.453125 -20.796875 1.609375 -20.796875 
L -1.8125 -20.796875 
L -1.8125 -13.1875 
L 0.59375 -13.1875 
Q 5.71875 -13.1875 7.5625 -10.8125 
Q 9.421875 -8.453125 9.421875 -0.984375 
z
M 9.421875 75.984375 
L 18.40625 75.984375 
L 18.40625 64.59375 
L 9.421875 64.59375 
z
" id="DejaVuSans-106"/>
        <path d="M 2.984375 54.6875 
L 12.5 54.6875 
L 29.59375 8.796875 
L 46.6875 54.6875 
L 56.203125 54.6875 
L 35.6875 0 
L 23.484375 0 
z
" id="DejaVuSans-118"/>
       </defs>
       <use xlink:href="#DejaVuSans-115"/>
       <use x="52.099609" xlink:href="#DejaVuSans-117"/>
       <use x="115.478516" xlink:href="#DejaVuSans-98"/>
       <use x="178.955078" xlink:href="#DejaVuSans-106"/>
       <use x="206.738281" xlink:href="#DejaVuSans-101"/>
       <use x="268.261719" xlink:href="#DejaVuSans-99"/>
       <use x="323.242188" xlink:href="#DejaVuSans-116"/>
       <use x="362.451172" xlink:href="#DejaVuSans-105"/>
       <use x="390.234375" xlink:href="#DejaVuSans-118"/>
       <use x="449.414062" xlink:href="#DejaVuSans-101"/>
      </g>
     </g>
    </g>
    <g id="xtick_31">
     <g id="line2d_31">
      <g>
       <use style="stroke:#000000;stroke-width:0.8;" x="1032.044776" xlink:href="#md8a809ec31" y="189"/>
      </g>
     </g>
     <g id="text_31">
      <!-- forms -->
      <g transform="translate(1024.913526 199.799219)scale(0.05 -0.05)">
       <defs>
        <path d="M 52 44.1875 
Q 55.375 50.25 60.0625 53.125 
Q 64.75 56 71.09375 56 
Q 79.640625 56 84.28125 50.015625 
Q 88.921875 44.046875 88.921875 33.015625 
L 88.921875 0 
L 79.890625 0 
L 79.890625 32.71875 
Q 79.890625 40.578125 77.09375 44.375 
Q 74.3125 48.1875 68.609375 48.1875 
Q 61.625 48.1875 57.5625 43.546875 
Q 53.515625 38.921875 53.515625 30.90625 
L 53.515625 0 
L 44.484375 0 
L 44.484375 32.71875 
Q 44.484375 40.625 41.703125 44.40625 
Q 38.921875 48.1875 33.109375 48.1875 
Q 26.21875 48.1875 22.15625 43.53125 
Q 18.109375 38.875 18.109375 30.90625 
L 18.109375 0 
L 9.078125 0 
L 9.078125 54.6875 
L 18.109375 54.6875 
L 18.109375 46.1875 
Q 21.1875 51.21875 25.484375 53.609375 
Q 29.78125 56 35.6875 56 
Q 41.65625 56 45.828125 52.96875 
Q 50 49.953125 52 44.1875 
z
" id="DejaVuSans-109"/>
       </defs>
       <use xlink:href="#DejaVuSans-102"/>
       <use x="35.205078" xlink:href="#DejaVuSans-111"/>
       <use x="96.386719" xlink:href="#DejaVuSans-114"/>
       <use x="135.75" xlink:href="#DejaVuSans-109"/>
       <use x="233.162109" xlink:href="#DejaVuSans-115"/>
      </g>
     </g>
    </g>
    <g id="xtick_32">
     <g id="line2d_32">
      <g>
       <use style="stroke:#000000;stroke-width:0.8;" x="1057.029851" xlink:href="#md8a809ec31" y="189"/>
      </g>
     </g>
     <g id="text_32">
      <!-- 7 -->
      <g transform="translate(1055.439226 199.799219)scale(0.05 -0.05)">
       <defs>
        <path d="M 8.203125 72.90625 
L 55.078125 72.90625 
L 55.078125 68.703125 
L 28.609375 0 
L 18.3125 0 
L 43.21875 64.59375 
L 8.203125 64.59375 
z
" id="DejaVuSans-55"/>
       </defs>
       <use xlink:href="#DejaVuSans-55"/>
      </g>
     </g>
    </g>
    <g id="xtick_33">
     <g id="line2d_33">
      <g>
       <use style="stroke:#000000;stroke-width:0.8;" x="1082.014925" xlink:href="#md8a809ec31" y="189"/>
      </g>
     </g>
     <g id="text_33">
      <!-- and -->
      <g transform="translate(1077.31141 199.799219)scale(0.05 -0.05)">
       <use xlink:href="#DejaVuSans-97"/>
       <use x="61.279297" xlink:href="#DejaVuSans-110"/>
       <use x="124.658203" xlink:href="#DejaVuSans-100"/>
      </g>
     </g>
    </g>
    <g id="xtick_34">
     <g id="line2d_34">
      <g>
       <use style="stroke:#000000;stroke-width:0.8;" x="1107" xlink:href="#md8a809ec31" y="189"/>
      </g>
     </g>
     <g id="text_34">
      <!-- their -->
      <g transform="translate(1101.175 199.799219)scale(0.05 -0.05)">
       <use xlink:href="#DejaVuSans-116"/>
       <use x="39.208984" xlink:href="#DejaVuSans-104"/>
       <use x="102.587891" xlink:href="#DejaVuSans-101"/>
       <use x="164.111328" xlink:href="#DejaVuSans-105"/>
       <use x="191.894531" xlink:href="#DejaVuSans-114"/>
      </g>
     </g>
    </g>
    <g id="xtick_35">
     <g id="line2d_35">
      <g>
       <use style="stroke:#000000;stroke-width:0.8;" x="1131.985075" xlink:href="#md8a809ec31" y="189"/>
      </g>
     </g>
     <g id="text_35">
      <!-- data -->
      <g transform="translate(1126.353825 199.799219)scale(0.05 -0.05)">
       <use xlink:href="#DejaVuSans-100"/>
       <use x="63.476562" xlink:href="#DejaVuSans-97"/>
       <use x="124.755859" xlink:href="#DejaVuSans-116"/>
       <use x="163.964844" xlink:href="#DejaVuSans-97"/>
      </g>
     </g>
    </g>
    <g id="xtick_36">
     <g id="line2d_36">
      <g>
       <use style="stroke:#000000;stroke-width:0.8;" x="1156.970149" xlink:href="#md8a809ec31" y="189"/>
      </g>
     </g>
     <g id="text_36">
      <!-- to -->
      <g transform="translate(1154.460384 199.799219)scale(0.05 -0.05)">
       <use xlink:href="#DejaVuSans-116"/>
       <use x="39.208984" xlink:href="#DejaVuSans-111"/>
      </g>
     </g>
    </g>
    <g id="xtick_37">
     <g id="line2d_37">
      <g>
       <use style="stroke:#000000;stroke-width:0.8;" x="1181.955224" xlink:href="#md8a809ec31" y="189"/>
      </g>
     </g>
     <g id="text_37">
      <!-- the -->
      <g transform="translate(1177.85249 199.799219)scale(0.05 -0.05)">
       <use xlink:href="#DejaVuSans-116"/>
       <use x="39.208984" xlink:href="#DejaVuSans-104"/>
       <use x="102.587891" xlink:href="#DejaVuSans-101"/>
      </g>
     </g>
    </g>
    <g id="xtick_38">
     <g id="line2d_38">
      <g>
       <use style="stroke:#000000;stroke-width:0.8;" x="1206.940299" xlink:href="#md8a809ec31" y="189"/>
      </g>
     </g>
     <g id="text_38">
      <!-- formation -->
      <g transform="translate(1194.790689 199.799219)scale(0.05 -0.05)">
       <use xlink:href="#DejaVuSans-102"/>
       <use x="35.205078" xlink:href="#DejaVuSans-111"/>
       <use x="96.386719" xlink:href="#DejaVuSans-114"/>
       <use x="135.75" xlink:href="#DejaVuSans-109"/>
       <use x="233.162109" xlink:href="#DejaVuSans-97"/>
       <use x="294.441406" xlink:href="#DejaVuSans-116"/>
       <use x="333.650391" xlink:href="#DejaVuSans-105"/>
       <use x="361.433594" xlink:href="#DejaVuSans-111"/>
       <use x="422.615234" xlink:href="#DejaVuSans-110"/>
      </g>
     </g>
    </g>
    <g id="xtick_39">
     <g id="line2d_39">
      <g>
       <use style="stroke:#000000;stroke-width:0.8;" x="1231.925373" xlink:href="#md8a809ec31" y="189"/>
      </g>
     </g>
     <g id="text_39">
      <!-- of -->
      <g transform="translate(1229.515608 199.799219)scale(0.05 -0.05)">
       <use xlink:href="#DejaVuSans-111"/>
       <use x="61.181641" xlink:href="#DejaVuSans-102"/>
      </g>
     </g>
    </g>
    <g id="xtick_40">
     <g id="line2d_40">
      <g>
       <use style="stroke:#000000;stroke-width:0.8;" x="1256.910448" xlink:href="#md8a809ec31" y="189"/>
      </g>
     </g>
     <g id="text_40">
      <!-- novel -->
      <g transform="translate(1250.083885 199.799219)scale(0.05 -0.05)">
       <use xlink:href="#DejaVuSans-110"/>
       <use x="63.378906" xlink:href="#DejaVuSans-111"/>
       <use x="124.560547" xlink:href="#DejaVuSans-118"/>
       <use x="183.740234" xlink:href="#DejaVuSans-101"/>
       <use x="245.263672" xlink:href="#DejaVuSans-108"/>
      </g>
     </g>
    </g>
    <g id="xtick_41">
     <g id="line2d_41">
      <g>
       <use style="stroke:#000000;stroke-width:0.8;" x="1281.895522" xlink:href="#md8a809ec31" y="189"/>
      </g>
     </g>
     <g id="text_41">
      <!-- integral -->
      <g transform="translate(1272.256851 199.799219)scale(0.05 -0.05)">
       <use xlink:href="#DejaVuSans-105"/>
       <use x="27.783203" xlink:href="#DejaVuSans-110"/>
       <use x="91.162109" xlink:href="#DejaVuSans-116"/>
       <use x="130.371094" xlink:href="#DejaVuSans-101"/>
       <use x="191.894531" xlink:href="#DejaVuSans-103"/>
       <use x="255.371094" xlink:href="#DejaVuSans-114"/>
       <use x="296.484375" xlink:href="#DejaVuSans-97"/>
       <use x="357.763672" xlink:href="#DejaVuSans-108"/>
      </g>
     </g>
    </g>
    <g id="xtick_42">
     <g id="line2d_42">
      <g>
       <use style="stroke:#000000;stroke-width:0.8;" x="1306.880597" xlink:href="#md8a809ec31" y="189"/>
      </g>
     </g>
     <g id="text_42">
      <!-- prehensions -->
      <g transform="translate(1291.66341 199.799219)scale(0.05 -0.05)">
       <use xlink:href="#DejaVuSans-112"/>
       <use x="63.476562" xlink:href="#DejaVuSans-114"/>
       <use x="102.339844" xlink:href="#DejaVuSans-101"/>
       <use x="163.863281" xlink:href="#DejaVuSans-104"/>
       <use x="227.242188" xlink:href="#DejaVuSans-101"/>
       <use x="288.765625" xlink:href="#DejaVuSans-110"/>
       <use x="352.144531" xlink:href="#DejaVuSans-115"/>
       <use x="404.244141" xlink:href="#DejaVuSans-105"/>
       <use x="432.027344" xlink:href="#DejaVuSans-111"/>
       <use x="493.208984" xlink:href="#DejaVuSans-110"/>
       <use x="556.587891" xlink:href="#DejaVuSans-115"/>
      </g>
     </g>
    </g>
    <g id="xtick_43">
     <g id="line2d_43">
      <g>
       <use style="stroke:#000000;stroke-width:0.8;" x="1331.865672" xlink:href="#md8a809ec31" y="189"/>
      </g>
     </g>
     <g id="text_43">
      <!-- but -->
      <g transform="translate(1327.714109 199.799219)scale(0.05 -0.05)">
       <use xlink:href="#DejaVuSans-98"/>
       <use x="63.476562" xlink:href="#DejaVuSans-117"/>
       <use x="126.855469" xlink:href="#DejaVuSans-116"/>
      </g>
     </g>
    </g>
    <g id="xtick_44">
     <g id="line2d_44">
      <g>
       <use style="stroke:#000000;stroke-width:0.8;" x="1356.850746" xlink:href="#md8a809ec31" y="189"/>
      </g>
     </g>
     <g id="text_44">
      <!-- nega -->
      <g transform="translate(1350.608949 199.799219)scale(0.05 -0.05)">
       <use xlink:href="#DejaVuSans-110"/>
       <use x="63.378906" xlink:href="#DejaVuSans-101"/>
       <use x="124.902344" xlink:href="#DejaVuSans-103"/>
       <use x="188.378906" xlink:href="#DejaVuSans-97"/>
      </g>
     </g>
    </g>
    <g id="xtick_45">
     <g id="line2d_45">
      <g>
       <use style="stroke:#000000;stroke-width:0.8;" x="1381.835821" xlink:href="#md8a809ec31" y="189"/>
      </g>
     </g>
     <g id="text_45">
      <!-- tive -->
      <g transform="translate(1377.143243 199.799219)scale(0.05 -0.05)">
       <use xlink:href="#DejaVuSans-116"/>
       <use x="39.208984" xlink:href="#DejaVuSans-105"/>
       <use x="66.992188" xlink:href="#DejaVuSans-118"/>
       <use x="126.171875" xlink:href="#DejaVuSans-101"/>
      </g>
     </g>
    </g>
    <g id="xtick_46">
     <g id="line2d_46">
      <g>
       <use style="stroke:#000000;stroke-width:0.8;" x="1406.820896" xlink:href="#md8a809ec31" y="189"/>
      </g>
     </g>
     <g id="text_46">
      <!-- prehensions -->
      <g transform="translate(1391.603708 199.799219)scale(0.05 -0.05)">
       <use xlink:href="#DejaVuSans-112"/>
       <use x="63.476562" xlink:href="#DejaVuSans-114"/>
       <use x="102.339844" xlink:href="#DejaVuSans-101"/>
       <use x="163.863281" xlink:href="#DejaVuSans-104"/>
       <use x="227.242188" xlink:href="#DejaVuSans-101"/>
       <use x="288.765625" xlink:href="#DejaVuSans-110"/>
       <use x="352.144531" xlink:href="#DejaVuSans-115"/>
       <use x="404.244141" xlink:href="#DejaVuSans-105"/>
       <use x="432.027344" xlink:href="#DejaVuSans-111"/>
       <use x="493.208984" xlink:href="#DejaVuSans-110"/>
       <use x="556.587891" xlink:href="#DejaVuSans-115"/>
      </g>
     </g>
    </g>
    <g id="xtick_47">
     <g id="line2d_47">
      <g>
       <use style="stroke:#000000;stroke-width:0.8;" x="1431.80597" xlink:href="#md8a809ec31" y="189"/>
      </g>
     </g>
     <g id="text_47">
      <!-- contribute -->
      <g transform="translate(1418.925111 199.799219)scale(0.05 -0.05)">
       <use xlink:href="#DejaVuSans-99"/>
       <use x="54.980469" xlink:href="#DejaVuSans-111"/>
       <use x="116.162109" xlink:href="#DejaVuSans-110"/>
       <use x="179.541016" xlink:href="#DejaVuSans-116"/>
       <use x="218.75" xlink:href="#DejaVuSans-114"/>
       <use x="259.863281" xlink:href="#DejaVuSans-105"/>
       <use x="287.646484" xlink:href="#DejaVuSans-98"/>
       <use x="351.123047" xlink:href="#DejaVuSans-117"/>
       <use x="414.501953" xlink:href="#DejaVuSans-116"/>
       <use x="453.710938" xlink:href="#DejaVuSans-101"/>
      </g>
     </g>
    </g>
    <g id="xtick_48">
     <g id="line2d_48">
      <g>
       <use style="stroke:#000000;stroke-width:0.8;" x="1456.791045" xlink:href="#md8a809ec31" y="189"/>
      </g>
     </g>
     <g id="text_48">
      <!-- only -->
      <g transform="translate(1451.502764 199.799219)scale(0.05 -0.05)">
       <use xlink:href="#DejaVuSans-111"/>
       <use x="61.181641" xlink:href="#DejaVuSans-110"/>
       <use x="124.560547" xlink:href="#DejaVuSans-108"/>
       <use x="152.34375" xlink:href="#DejaVuSans-121"/>
      </g>
     </g>
    </g>
    <g id="xtick_49">
     <g id="line2d_49">
      <g>
       <use style="stroke:#000000;stroke-width:0.8;" x="1481.776119" xlink:href="#md8a809ec31" y="189"/>
      </g>
     </g>
     <g id="text_49">
      <!-- their -->
      <g transform="translate(1475.951119 199.799219)scale(0.05 -0.05)">
       <use xlink:href="#DejaVuSans-116"/>
       <use x="39.208984" xlink:href="#DejaVuSans-104"/>
       <use x="102.587891" xlink:href="#DejaVuSans-101"/>
       <use x="164.111328" xlink:href="#DejaVuSans-105"/>
       <use x="191.894531" xlink:href="#DejaVuSans-114"/>
      </g>
     </g>
    </g>
    <g id="xtick_50">
     <g id="line2d_50">
      <g>
       <use style="stroke:#000000;stroke-width:0.8;" x="1506.761194" xlink:href="#md8a809ec31" y="189"/>
      </g>
     </g>
     <g id="text_50">
      <!-- subjective -->
      <g transform="translate(1493.987366 199.799219)scale(0.05 -0.05)">
       <use xlink:href="#DejaVuSans-115"/>
       <use x="52.099609" xlink:href="#DejaVuSans-117"/>
       <use x="115.478516" xlink:href="#DejaVuSans-98"/>
       <use x="178.955078" xlink:href="#DejaVuSans-106"/>
       <use x="206.738281" xlink:href="#DejaVuSans-101"/>
       <use x="268.261719" xlink:href="#DejaVuSans-99"/>
       <use x="323.242188" xlink:href="#DejaVuSans-116"/>
       <use x="362.451172" xlink:href="#DejaVuSans-105"/>
       <use x="390.234375" xlink:href="#DejaVuSans-118"/>
       <use x="449.414062" xlink:href="#DejaVuSans-101"/>
      </g>
     </g>
    </g>
    <g id="xtick_51">
     <g id="line2d_51">
      <g>
       <use style="stroke:#000000;stroke-width:0.8;" x="1531.746269" xlink:href="#md8a809ec31" y="189"/>
      </g>
     </g>
     <g id="text_51">
      <!-- forms -->
      <g transform="translate(1524.615019 199.799219)scale(0.05 -0.05)">
       <use xlink:href="#DejaVuSans-102"/>
       <use x="35.205078" xlink:href="#DejaVuSans-111"/>
       <use x="96.386719" xlink:href="#DejaVuSans-114"/>
       <use x="135.75" xlink:href="#DejaVuSans-109"/>
       <use x="233.162109" xlink:href="#DejaVuSans-115"/>
      </g>
     </g>
    </g>
    <g id="xtick_52">
     <g id="line2d_52">
      <g>
       <use style="stroke:#000000;stroke-width:0.8;" x="1556.731343" xlink:href="#md8a809ec31" y="189"/>
      </g>
     </g>
     <g id="text_52">
      <!-- The -->
      <g transform="translate(1552.081734 199.799219)scale(0.05 -0.05)">
       <defs>
        <path d="M -0.296875 72.90625 
L 61.375 72.90625 
L 61.375 64.59375 
L 35.5 64.59375 
L 35.5 0 
L 25.59375 0 
L 25.59375 64.59375 
L -0.296875 64.59375 
z
" id="DejaVuSans-84"/>
       </defs>
       <use xlink:href="#DejaVuSans-84"/>
       <use x="61.083984" xlink:href="#DejaVuSans-104"/>
       <use x="124.462891" xlink:href="#DejaVuSans-101"/>
      </g>
     </g>
    </g>
    <g id="xtick_53">
     <g id="line2d_53">
      <g>
       <use style="stroke:#000000;stroke-width:0.8;" x="1581.716418" xlink:href="#md8a809ec31" y="189"/>
      </g>
     </g>
     <g id="text_53">
      <!-- process -->
      <g transform="translate(1572.110559 199.799219)scale(0.05 -0.05)">
       <use xlink:href="#DejaVuSans-112"/>
       <use x="63.476562" xlink:href="#DejaVuSans-114"/>
       <use x="102.339844" xlink:href="#DejaVuSans-111"/>
       <use x="163.521484" xlink:href="#DejaVuSans-99"/>
       <use x="218.501953" xlink:href="#DejaVuSans-101"/>
       <use x="280.025391" xlink:href="#DejaVuSans-115"/>
       <use x="332.125" xlink:href="#DejaVuSans-115"/>
      </g>
     </g>
    </g>
    <g id="xtick_54">
     <g id="line2d_54">
      <g>
       <use style="stroke:#000000;stroke-width:0.8;" x="1606.701493" xlink:href="#md8a809ec31" y="189"/>
      </g>
     </g>
     <g id="text_54">
      <!-- con -->
      <g transform="translate(1602.212821 199.799219)scale(0.05 -0.05)">
       <use xlink:href="#DejaVuSans-99"/>
       <use x="54.980469" xlink:href="#DejaVuSans-111"/>
       <use x="116.162109" xlink:href="#DejaVuSans-110"/>
      </g>
     </g>
    </g>
    <g id="xtick_55">
     <g id="line2d_55">
      <g>
       <use style="stroke:#000000;stroke-width:0.8;" x="1631.686567" xlink:href="#md8a809ec31" y="189"/>
      </g>
     </g>
     <g id="text_55">
      <!-- tinues -->
      <g transform="translate(1624.002583 199.799219)scale(0.05 -0.05)">
       <use xlink:href="#DejaVuSans-116"/>
       <use x="39.208984" xlink:href="#DejaVuSans-105"/>
       <use x="66.992188" xlink:href="#DejaVuSans-110"/>
       <use x="130.371094" xlink:href="#DejaVuSans-117"/>
       <use x="193.75" xlink:href="#DejaVuSans-101"/>
       <use x="255.273438" xlink:href="#DejaVuSans-115"/>
      </g>
     </g>
    </g>
    <g id="xtick_56">
     <g id="line2d_56">
      <g>
       <use style="stroke:#000000;stroke-width:0.8;" x="1656.671642" xlink:href="#md8a809ec31" y="189"/>
      </g>
     </g>
     <g id="text_56">
      <!-- till -->
      <g transform="translate(1653.60797 199.799219)scale(0.05 -0.05)">
       <use xlink:href="#DejaVuSans-116"/>
       <use x="39.208984" xlink:href="#DejaVuSans-105"/>
       <use x="66.992188" xlink:href="#DejaVuSans-108"/>
       <use x="94.775391" xlink:href="#DejaVuSans-108"/>
      </g>
     </g>
    </g>
    <g id="xtick_57">
     <g id="line2d_57">
      <g>
       <use style="stroke:#000000;stroke-width:0.8;" x="1681.656716" xlink:href="#md8a809ec31" y="189"/>
      </g>
     </g>
     <g id="text_57">
      <!-- all -->
      <g transform="translate(1678.735623 199.799219)scale(0.05 -0.05)">
       <use xlink:href="#DejaVuSans-97"/>
       <use x="61.279297" xlink:href="#DejaVuSans-108"/>
       <use x="89.0625" xlink:href="#DejaVuSans-108"/>
      </g>
     </g>
    </g>
    <g id="xtick_58">
     <g id="line2d_58">
      <g>
       <use style="stroke:#000000;stroke-width:0.8;" x="1706.641791" xlink:href="#md8a809ec31" y="189"/>
      </g>
     </g>
     <g id="text_58">
      <!-- prehensions -->
      <g transform="translate(1691.424604 199.799219)scale(0.05 -0.05)">
       <use xlink:href="#DejaVuSans-112"/>
       <use x="63.476562" xlink:href="#DejaVuSans-114"/>
       <use x="102.339844" xlink:href="#DejaVuSans-101"/>
       <use x="163.863281" xlink:href="#DejaVuSans-104"/>
       <use x="227.242188" xlink:href="#DejaVuSans-101"/>
       <use x="288.765625" xlink:href="#DejaVuSans-110"/>
       <use x="352.144531" xlink:href="#DejaVuSans-115"/>
       <use x="404.244141" xlink:href="#DejaVuSans-105"/>
       <use x="432.027344" xlink:href="#DejaVuSans-111"/>
       <use x="493.208984" xlink:href="#DejaVuSans-110"/>
       <use x="556.587891" xlink:href="#DejaVuSans-115"/>
      </g>
     </g>
    </g>
    <g id="xtick_59">
     <g id="line2d_59">
      <g>
       <use style="stroke:#000000;stroke-width:0.8;" x="1731.626866" xlink:href="#md8a809ec31" y="189"/>
      </g>
     </g>
     <g id="text_59">
      <!-- are -->
      <g transform="translate(1727.585069 199.799219)scale(0.05 -0.05)">
       <use xlink:href="#DejaVuSans-97"/>
       <use x="61.279297" xlink:href="#DejaVuSans-114"/>
       <use x="100.142578" xlink:href="#DejaVuSans-101"/>
      </g>
     </g>
    </g>
    <g id="xtick_60">
     <g id="line2d_60">
      <g>
       <use style="stroke:#000000;stroke-width:0.8;" x="1756.61194" xlink:href="#md8a809ec31" y="189"/>
      </g>
     </g>
     <g id="text_60">
      <!-- components -->
      <g transform="translate(1741.166237 199.799219)scale(0.05 -0.05)">
       <use xlink:href="#DejaVuSans-99"/>
       <use x="54.980469" xlink:href="#DejaVuSans-111"/>
       <use x="116.162109" xlink:href="#DejaVuSans-109"/>
       <use x="213.574219" xlink:href="#DejaVuSans-112"/>
       <use x="277.050781" xlink:href="#DejaVuSans-111"/>
       <use x="338.232422" xlink:href="#DejaVuSans-110"/>
       <use x="401.611328" xlink:href="#DejaVuSans-101"/>
       <use x="463.134766" xlink:href="#DejaVuSans-110"/>
       <use x="526.513672" xlink:href="#DejaVuSans-116"/>
       <use x="565.722656" xlink:href="#DejaVuSans-115"/>
      </g>
     </g>
    </g>
    <g id="xtick_61">
     <g id="line2d_61">
      <g>
       <use style="stroke:#000000;stroke-width:0.8;" x="1781.597015" xlink:href="#md8a809ec31" y="189"/>
      </g>
     </g>
     <g id="text_61">
      <!-- in -->
      <g transform="translate(1779.318109 199.799219)scale(0.05 -0.05)">
       <use xlink:href="#DejaVuSans-105"/>
       <use x="27.783203" xlink:href="#DejaVuSans-110"/>
      </g>
     </g>
    </g>
    <g id="xtick_62">
     <g id="line2d_62">
      <g>
       <use style="stroke:#000000;stroke-width:0.8;" x="1806.58209" xlink:href="#md8a809ec31" y="189"/>
      </g>
     </g>
     <g id="text_62">
      <!-- the -->
      <g transform="translate(1802.479355 199.799219)scale(0.05 -0.05)">
       <use xlink:href="#DejaVuSans-116"/>
       <use x="39.208984" xlink:href="#DejaVuSans-104"/>
       <use x="102.587891" xlink:href="#DejaVuSans-101"/>
      </g>
     </g>
    </g>
    <g id="xtick_63">
     <g id="line2d_63">
      <g>
       <use style="stroke:#000000;stroke-width:0.8;" x="1831.567164" xlink:href="#md8a809ec31" y="189"/>
      </g>
     </g>
     <g id="text_63">
      <!-- one -->
      <g transform="translate(1826.91482 199.799219)scale(0.05 -0.05)">
       <use xlink:href="#DejaVuSans-111"/>
       <use x="61.181641" xlink:href="#DejaVuSans-110"/>
       <use x="124.560547" xlink:href="#DejaVuSans-101"/>
      </g>
     </g>
    </g>
    <g id="xtick_64">
     <g id="line2d_64">
      <g>
       <use style="stroke:#000000;stroke-width:0.8;" x="1856.552239" xlink:href="#md8a809ec31" y="189"/>
      </g>
     </g>
     <g id="text_64">
      <!-- determinate -->
      <g transform="translate(1841.160051 199.799219)scale(0.05 -0.05)">
       <use xlink:href="#DejaVuSans-100"/>
       <use x="63.476562" xlink:href="#DejaVuSans-101"/>
       <use x="125" xlink:href="#DejaVuSans-116"/>
       <use x="164.208984" xlink:href="#DejaVuSans-101"/>
       <use x="225.732422" xlink:href="#DejaVuSans-114"/>
       <use x="265.095703" xlink:href="#DejaVuSans-109"/>
       <use x="362.507812" xlink:href="#DejaVuSans-105"/>
       <use x="390.291016" xlink:href="#DejaVuSans-110"/>
       <use x="453.669922" xlink:href="#DejaVuSans-97"/>
       <use x="514.949219" xlink:href="#DejaVuSans-116"/>
       <use x="554.158203" xlink:href="#DejaVuSans-101"/>
      </g>
     </g>
    </g>
    <g id="xtick_65">
     <g id="line2d_65">
      <g>
       <use style="stroke:#000000;stroke-width:0.8;" x="1881.537313" xlink:href="#md8a809ec31" y="189"/>
      </g>
     </g>
     <g id="text_65">
      <!-- integral -->
      <g transform="translate(1871.898642 199.799219)scale(0.05 -0.05)">
       <use xlink:href="#DejaVuSans-105"/>
       <use x="27.783203" xlink:href="#DejaVuSans-110"/>
       <use x="91.162109" xlink:href="#DejaVuSans-116"/>
       <use x="130.371094" xlink:href="#DejaVuSans-101"/>
       <use x="191.894531" xlink:href="#DejaVuSans-103"/>
       <use x="255.371094" xlink:href="#DejaVuSans-114"/>
       <use x="296.484375" xlink:href="#DejaVuSans-97"/>
       <use x="357.763672" xlink:href="#DejaVuSans-108"/>
      </g>
     </g>
    </g>
    <g id="xtick_66">
     <g id="line2d_66">
      <g>
       <use style="stroke:#000000;stroke-width:0.8;" x="1906.522388" xlink:href="#md8a809ec31" y="189"/>
      </g>
     </g>
     <g id="text_66">
      <!-- satisfaction -->
      <g transform="translate(1892.135669 199.799219)scale(0.05 -0.05)">
       <use xlink:href="#DejaVuSans-115"/>
       <use x="52.099609" xlink:href="#DejaVuSans-97"/>
       <use x="113.378906" xlink:href="#DejaVuSans-116"/>
       <use x="152.587891" xlink:href="#DejaVuSans-105"/>
       <use x="180.371094" xlink:href="#DejaVuSans-115"/>
       <use x="232.470703" xlink:href="#DejaVuSans-102"/>
       <use x="267.675781" xlink:href="#DejaVuSans-97"/>
       <use x="328.955078" xlink:href="#DejaVuSans-99"/>
       <use x="383.935547" xlink:href="#DejaVuSans-116"/>
       <use x="423.144531" xlink:href="#DejaVuSans-105"/>
       <use x="450.927734" xlink:href="#DejaVuSans-111"/>
       <use x="512.109375" xlink:href="#DejaVuSans-110"/>
      </g>
     </g>
    </g>
   </g>
   <g id="matplotlib.axis_2">
    <g id="ytick_1">
     <g id="line2d_67">
      <defs>
       <path d="M 0 0 
L -3.5 0 
" id="mad1a8c51cc" style="stroke:#000000;stroke-width:0.8;"/>
      </defs>
      <g>
       <use style="stroke:#000000;stroke-width:0.8;" x="270" xlink:href="#mad1a8c51cc" y="185.364189"/>
      </g>
     </g>
     <g id="text_67">
      <!-- 1 -->
      <g transform="translate(248.257812 189.163408)scale(0.1 -0.1)">
       <defs>
        <path d="M 10.59375 35.5 
L 73.1875 35.5 
L 73.1875 27.203125 
L 10.59375 27.203125 
z
" id="DejaVuSans-8722"/>
        <path d="M 12.40625 8.296875 
L 28.515625 8.296875 
L 28.515625 63.921875 
L 10.984375 60.40625 
L 10.984375 69.390625 
L 28.421875 72.90625 
L 38.28125 72.90625 
L 38.28125 8.296875 
L 54.390625 8.296875 
L 54.390625 0 
L 12.40625 0 
z
" id="DejaVuSans-49"/>
       </defs>
       <use xlink:href="#DejaVuSans-8722"/>
       <use x="83.789062" xlink:href="#DejaVuSans-49"/>
      </g>
     </g>
    </g>
    <g id="ytick_2">
     <g id="line2d_68">
      <g>
       <use style="stroke:#000000;stroke-width:0.8;" x="270" xlink:href="#mad1a8c51cc" y="163.813613"/>
      </g>
     </g>
     <g id="text_68">
      <!-- 0 -->
      <g transform="translate(256.6375 167.612831)scale(0.1 -0.1)">
       <defs>
        <path d="M 31.78125 66.40625 
Q 24.171875 66.40625 20.328125 58.90625 
Q 16.5 51.421875 16.5 36.375 
Q 16.5 21.390625 20.328125 13.890625 
Q 24.171875 6.390625 31.78125 6.390625 
Q 39.453125 6.390625 43.28125 13.890625 
Q 47.125 21.390625 47.125 36.375 
Q 47.125 51.421875 43.28125 58.90625 
Q 39.453125 66.40625 31.78125 66.40625 
z
M 31.78125 74.21875 
Q 44.046875 74.21875 50.515625 64.515625 
Q 56.984375 54.828125 56.984375 36.375 
Q 56.984375 17.96875 50.515625 8.265625 
Q 44.046875 -1.421875 31.78125 -1.421875 
Q 19.53125 -1.421875 13.0625 8.265625 
Q 6.59375 17.96875 6.59375 36.375 
Q 6.59375 54.828125 13.0625 64.515625 
Q 19.53125 74.21875 31.78125 74.21875 
z
" id="DejaVuSans-48"/>
       </defs>
       <use xlink:href="#DejaVuSans-48"/>
      </g>
     </g>
    </g>
    <g id="ytick_3">
     <g id="line2d_69">
      <g>
       <use style="stroke:#000000;stroke-width:0.8;" x="270" xlink:href="#mad1a8c51cc" y="142.263036"/>
      </g>
     </g>
     <g id="text_69">
      <!-- 1 -->
      <g transform="translate(256.6375 146.062255)scale(0.1 -0.1)">
       <use xlink:href="#DejaVuSans-49"/>
      </g>
     </g>
    </g>
    <g id="ytick_4">
     <g id="line2d_70">
      <g>
       <use style="stroke:#000000;stroke-width:0.8;" x="270" xlink:href="#mad1a8c51cc" y="120.712459"/>
      </g>
     </g>
     <g id="text_70">
      <!-- 2 -->
      <g transform="translate(256.6375 124.511678)scale(0.1 -0.1)">
       <defs>
        <path d="M 19.1875 8.296875 
L 53.609375 8.296875 
L 53.609375 0 
L 7.328125 0 
L 7.328125 8.296875 
Q 12.9375 14.109375 22.625 23.890625 
Q 32.328125 33.6875 34.8125 36.53125 
Q 39.546875 41.84375 41.421875 45.53125 
Q 43.3125 49.21875 43.3125 52.78125 
Q 43.3125 58.59375 39.234375 62.25 
Q 35.15625 65.921875 28.609375 65.921875 
Q 23.96875 65.921875 18.8125 64.3125 
Q 13.671875 62.703125 7.8125 59.421875 
L 7.8125 69.390625 
Q 13.765625 71.78125 18.9375 73 
Q 24.125 74.21875 28.421875 74.21875 
Q 39.75 74.21875 46.484375 68.546875 
Q 53.21875 62.890625 53.21875 53.421875 
Q 53.21875 48.921875 51.53125 44.890625 
Q 49.859375 40.875 45.40625 35.40625 
Q 44.1875 33.984375 37.640625 27.21875 
Q 31.109375 20.453125 19.1875 8.296875 
z
" id="DejaVuSans-50"/>
       </defs>
       <use xlink:href="#DejaVuSans-50"/>
      </g>
     </g>
    </g>
    <g id="ytick_5">
     <g id="line2d_71">
      <g>
       <use style="stroke:#000000;stroke-width:0.8;" x="270" xlink:href="#mad1a8c51cc" y="99.161882"/>
      </g>
     </g>
     <g id="text_71">
      <!-- 3 -->
      <g transform="translate(256.6375 102.961101)scale(0.1 -0.1)">
       <defs>
        <path d="M 40.578125 39.3125 
Q 47.65625 37.796875 51.625 33 
Q 55.609375 28.21875 55.609375 21.1875 
Q 55.609375 10.40625 48.1875 4.484375 
Q 40.765625 -1.421875 27.09375 -1.421875 
Q 22.515625 -1.421875 17.65625 -0.515625 
Q 12.796875 0.390625 7.625 2.203125 
L 7.625 11.71875 
Q 11.71875 9.328125 16.59375 8.109375 
Q 21.484375 6.890625 26.8125 6.890625 
Q 36.078125 6.890625 40.9375 10.546875 
Q 45.796875 14.203125 45.796875 21.1875 
Q 45.796875 27.640625 41.28125 31.265625 
Q 36.765625 34.90625 28.71875 34.90625 
L 20.21875 34.90625 
L 20.21875 43.015625 
L 29.109375 43.015625 
Q 36.375 43.015625 40.234375 45.921875 
Q 44.09375 48.828125 44.09375 54.296875 
Q 44.09375 59.90625 40.109375 62.90625 
Q 36.140625 65.921875 28.71875 65.921875 
Q 24.65625 65.921875 20.015625 65.03125 
Q 15.375 64.15625 9.8125 62.3125 
L 9.8125 71.09375 
Q 15.4375 72.65625 20.34375 73.4375 
Q 25.25 74.21875 29.59375 74.21875 
Q 40.828125 74.21875 47.359375 69.109375 
Q 53.90625 64.015625 53.90625 55.328125 
Q 53.90625 49.265625 50.4375 45.09375 
Q 46.96875 40.921875 40.578125 39.3125 
z
" id="DejaVuSans-51"/>
       </defs>
       <use xlink:href="#DejaVuSans-51"/>
      </g>
     </g>
    </g>
    <g id="ytick_6">
     <g id="line2d_72">
      <g>
       <use style="stroke:#000000;stroke-width:0.8;" x="270" xlink:href="#mad1a8c51cc" y="77.611306"/>
      </g>
     </g>
     <g id="text_72">
      <!-- 4 -->
      <g transform="translate(256.6375 81.410524)scale(0.1 -0.1)">
       <defs>
        <path d="M 37.796875 64.3125 
L 12.890625 25.390625 
L 37.796875 25.390625 
z
M 35.203125 72.90625 
L 47.609375 72.90625 
L 47.609375 25.390625 
L 58.015625 25.390625 
L 58.015625 17.1875 
L 47.609375 17.1875 
L 47.609375 0 
L 37.796875 0 
L 37.796875 17.1875 
L 4.890625 17.1875 
L 4.890625 26.703125 
z
" id="DejaVuSans-52"/>
       </defs>
       <use xlink:href="#DejaVuSans-52"/>
      </g>
     </g>
    </g>
    <g id="ytick_7">
     <g id="line2d_73">
      <g>
       <use style="stroke:#000000;stroke-width:0.8;" x="270" xlink:href="#mad1a8c51cc" y="56.060729"/>
      </g>
     </g>
     <g id="text_73">
      <!-- 5 -->
      <g transform="translate(256.6375 59.859948)scale(0.1 -0.1)">
       <defs>
        <path d="M 10.796875 72.90625 
L 49.515625 72.90625 
L 49.515625 64.59375 
L 19.828125 64.59375 
L 19.828125 46.734375 
Q 21.96875 47.46875 24.109375 47.828125 
Q 26.265625 48.1875 28.421875 48.1875 
Q 40.625 48.1875 47.75 41.5 
Q 54.890625 34.8125 54.890625 23.390625 
Q 54.890625 11.625 47.5625 5.09375 
Q 40.234375 -1.421875 26.90625 -1.421875 
Q 22.3125 -1.421875 17.546875 -0.640625 
Q 12.796875 0.140625 7.71875 1.703125 
L 7.71875 11.625 
Q 12.109375 9.234375 16.796875 8.0625 
Q 21.484375 6.890625 26.703125 6.890625 
Q 35.15625 6.890625 40.078125 11.328125 
Q 45.015625 15.765625 45.015625 23.390625 
Q 45.015625 31 40.078125 35.4375 
Q 35.15625 39.890625 26.703125 39.890625 
Q 22.75 39.890625 18.8125 39.015625 
Q 14.890625 38.140625 10.796875 36.28125 
z
" id="DejaVuSans-53"/>
       </defs>
       <use xlink:href="#DejaVuSans-53"/>
      </g>
     </g>
    </g>
    <g id="ytick_8">
     <g id="line2d_74">
      <g>
       <use style="stroke:#000000;stroke-width:0.8;" x="270" xlink:href="#mad1a8c51cc" y="34.510152"/>
      </g>
     </g>
     <g id="text_74">
      <!-- 6 -->
      <g transform="translate(256.6375 38.309371)scale(0.1 -0.1)">
       <defs>
        <path d="M 33.015625 40.375 
Q 26.375 40.375 22.484375 35.828125 
Q 18.609375 31.296875 18.609375 23.390625 
Q 18.609375 15.53125 22.484375 10.953125 
Q 26.375 6.390625 33.015625 6.390625 
Q 39.65625 6.390625 43.53125 10.953125 
Q 47.40625 15.53125 47.40625 23.390625 
Q 47.40625 31.296875 43.53125 35.828125 
Q 39.65625 40.375 33.015625 40.375 
z
M 52.59375 71.296875 
L 52.59375 62.3125 
Q 48.875 64.0625 45.09375 64.984375 
Q 41.3125 65.921875 37.59375 65.921875 
Q 27.828125 65.921875 22.671875 59.328125 
Q 17.53125 52.734375 16.796875 39.40625 
Q 19.671875 43.65625 24.015625 45.921875 
Q 28.375 48.1875 33.59375 48.1875 
Q 44.578125 48.1875 50.953125 41.515625 
Q 57.328125 34.859375 57.328125 23.390625 
Q 57.328125 12.15625 50.6875 5.359375 
Q 44.046875 -1.421875 33.015625 -1.421875 
Q 20.359375 -1.421875 13.671875 8.265625 
Q 6.984375 17.96875 6.984375 36.375 
Q 6.984375 53.65625 15.1875 63.9375 
Q 23.390625 74.21875 37.203125 74.21875 
Q 40.921875 74.21875 44.703125 73.484375 
Q 48.484375 72.75 52.59375 71.296875 
z
" id="DejaVuSans-54"/>
       </defs>
       <use xlink:href="#DejaVuSans-54"/>
      </g>
     </g>
    </g>
    <g id="text_75">
     <!-- alpha scaled TF-IDF -->
     <g transform="translate(242.178125 156.490469)rotate(-90)scale(0.1 -0.1)">
      <defs>
       <path id="DejaVuSans-32"/>
       <path d="M 9.8125 72.90625 
L 51.703125 72.90625 
L 51.703125 64.59375 
L 19.671875 64.59375 
L 19.671875 43.109375 
L 48.578125 43.109375 
L 48.578125 34.8125 
L 19.671875 34.8125 
L 19.671875 0 
L 9.8125 0 
z
" id="DejaVuSans-70"/>
       <path d="M 4.890625 31.390625 
L 31.203125 31.390625 
L 31.203125 23.390625 
L 4.890625 23.390625 
z
" id="DejaVuSans-45"/>
       <path d="M 19.671875 64.796875 
L 19.671875 8.109375 
L 31.59375 8.109375 
Q 46.6875 8.109375 53.6875 14.9375 
Q 60.6875 21.78125 60.6875 36.53125 
Q 60.6875 51.171875 53.6875 57.984375 
Q 46.6875 64.796875 31.59375 64.796875 
z
M 9.8125 72.90625 
L 30.078125 72.90625 
Q 51.265625 72.90625 61.171875 64.09375 
Q 71.09375 55.28125 71.09375 36.53125 
Q 71.09375 17.671875 61.125 8.828125 
Q 51.171875 0 30.078125 0 
L 9.8125 0 
z
" id="DejaVuSans-68"/>
      </defs>
      <use xlink:href="#DejaVuSans-97"/>
      <use x="61.279297" xlink:href="#DejaVuSans-108"/>
      <use x="89.0625" xlink:href="#DejaVuSans-112"/>
      <use x="152.539062" xlink:href="#DejaVuSans-104"/>
      <use x="215.917969" xlink:href="#DejaVuSans-97"/>
      <use x="277.197266" xlink:href="#DejaVuSans-32"/>
      <use x="308.984375" xlink:href="#DejaVuSans-115"/>
      <use x="361.083984" xlink:href="#DejaVuSans-99"/>
      <use x="416.064453" xlink:href="#DejaVuSans-97"/>
      <use x="477.34375" xlink:href="#DejaVuSans-108"/>
      <use x="505.126953" xlink:href="#DejaVuSans-101"/>
      <use x="566.650391" xlink:href="#DejaVuSans-100"/>
      <use x="630.126953" xlink:href="#DejaVuSans-32"/>
      <use x="661.914062" xlink:href="#DejaVuSans-84"/>
      <use x="722.998047" xlink:href="#DejaVuSans-70"/>
      <use x="780.517578" xlink:href="#DejaVuSans-45"/>
      <use x="816.601562" xlink:href="#DejaVuSans-73"/>
      <use x="846.09375" xlink:href="#DejaVuSans-68"/>
      <use x="923.095703" xlink:href="#DejaVuSans-70"/>
     </g>
    </g>
   </g>
   <g id="line2d_75">
    <path clip-path="url(#pd2977b5c0e)" d="M 282.492537 163.813613 
L 287.924075 171.227256 
L 293.355613 173.370563 
L 298.787151 171.572356 
L 304.218689 167.161456 
L 315.081765 155.816861 
L 320.513303 151.540808 
L 325.944841 149.967348 
L 331.376379 152.425301 
L 336.807917 159.725608 
L 342.239455 168.85174 
L 347.670993 175.071689 
L 353.102531 173.645354 
L 358.534069 159.850579 
L 363.965607 132.76985 
L 369.397145 99.974306 
L 374.828683 70.183656 
L 380.260221 52.117611 
L 385.691759 53.876673 
L 391.123297 74.296186 
L 396.554835 105.079156 
L 401.986372 137.74512 
L 407.41791 163.813613 
L 412.849448 176.914006 
L 418.280986 179.115003 
L 423.712524 174.595143 
L 429.144062 167.532963 
L 434.5756 162.049354 
L 440.007138 160.024201 
L 445.438676 160.426241 
L 456.301752 163.608624 
L 461.73329 164.092048 
L 467.164828 163.552298 
L 472.596366 162.574255 
L 478.027904 161.745215 
L 483.459442 161.650746 
L 488.89098 162.509415 
L 494.322518 163.720973 
L 499.754056 164.574375 
L 505.185594 164.35858 
L 510.617132 162.427384 
L 516.04867 159.104788 
L 521.480208 155.461657 
L 526.911746 152.588065 
L 532.343284 151.57409 
L 537.774822 153.12006 
L 543.20636 156.367315 
L 548.637897 160.067446 
L 554.069435 162.972046 
L 559.500973 163.863517 
L 564.932511 162.722049 
L 570.364049 161.0838 
L 575.795587 160.588914 
L 581.227125 162.877535 
L 586.658663 169.051656 
L 592.090201 176.235989 
L 597.521739 179.772615 
L 602.953277 174.995207 
L 608.384815 157.256073 
L 613.816353 125.857569 
L 619.247891 88.915147 
L 624.679429 55.736724 
L 630.110967 35.630219 
L 635.542505 37.242693 
L 640.974043 59.332834 
L 646.405581 93.047236 
L 651.837119 129.336688 
L 657.268657 159.151974 
L 662.700195 175.573793 
L 668.131733 180.20249 
L 673.563271 176.768322 
L 678.994809 169.001545 
L 684.426347 160.60114 
L 689.857884 154.05028 
L 695.289422 150.252756 
L 700.72096 150.006807 
L 706.152498 154.110674 
L 711.584036 162.859035 
L 717.015574 172.824967 
L 722.447112 178.913505 
L 727.87865 176.021822 
L 733.310188 159.067272 
L 738.741726 127.246717 
L 744.173264 89.305161 
L 749.604802 55.279533 
L 755.03634 35.206763 
L 760.467878 38.387888 
L 765.899416 63.112822 
L 771.330954 99.195096 
L 776.762492 136.230197 
L 782.19403 163.813613 
L 787.625568 174.278145 
L 793.057106 170.905853 
L 798.488644 159.716107 
L 803.920182 146.72828 
L 809.35172 137.875275 
L 814.783258 135.728475 
L 820.214796 138.492538 
L 825.646334 144.080283 
L 831.077872 150.404532 
L 836.509409 155.581436 
L 841.940947 159.229895 
L 847.372485 161.642346 
L 852.804023 163.114401 
L 858.235561 163.941378 
L 863.667099 164.355867 
L 869.098637 164.4505 
L 874.530175 164.298975 
L 879.961713 163.974988 
L 885.393251 163.531122 
L 890.824789 162.704018 
L 896.256327 160.987106 
L 901.687865 157.867558 
L 907.119403 152.832548 
L 912.550941 145.750992 
L 917.982479 138.018771 
L 923.414017 131.413511 
L 928.845555 127.712837 
L 934.277093 128.6542 
L 939.708631 134.413355 
L 945.140169 143.137356 
L 950.571707 152.837675 
L 956.003245 161.525783 
L 961.434783 167.409973 
L 966.866321 170.153138 
L 972.297859 170.070134 
L 977.729396 167.478891 
L 983.160934 162.698585 
L 988.592472 156.312771 
L 994.02401 149.494859 
L 999.455548 143.498074 
L 1004.887086 139.575638 
L 1010.318624 138.893797 
L 1015.750162 141.317341 
L 1021.1817 145.709194 
L 1026.613238 150.906511 
L 1032.044776 155.746447 
L 1037.476314 159.306118 
L 1042.907852 161.622488 
L 1048.33939 162.972481 
L 1053.770928 163.633023 
L 1059.202466 163.879163 
L 1070.065542 163.841865 
L 1080.928618 163.788694 
L 1097.223232 164.405244 
L 1102.65477 164.26352 
L 1108.086308 163.642856 
L 1113.517846 162.509521 
L 1118.949384 161.162709 
L 1124.380921 159.946659 
L 1129.812459 159.205614 
L 1135.243997 159.259712 
L 1140.675535 160.068485 
L 1156.970149 163.813613 
L 1162.401687 164.486513 
L 1167.833225 164.708887 
L 1173.264763 164.569226 
L 1178.696301 164.156023 
L 1194.990915 162.378626 
L 1200.422453 162.159001 
L 1205.853991 162.430811 
L 1211.285529 163.311404 
L 1216.717067 164.430325 
L 1222.148605 165.198489 
L 1227.580143 165.025775 
L 1233.011681 163.324987 
L 1243.874757 156.850304 
L 1249.306295 155.092101 
L 1254.737833 156.45512 
L 1260.169371 162.305876 
L 1265.600909 170.497062 
L 1271.032446 176.176429 
L 1276.463984 174.422146 
L 1281.895522 160.312382 
L 1287.32706 131.35533 
L 1292.758598 94.779282 
L 1298.190136 60.242553 
L 1303.621674 37.403459 
L 1309.053212 35.711849 
L 1314.48475 56.513386 
L 1319.916288 90.626116 
L 1325.347826 128.164506 
L 1330.779364 159.243021 
L 1336.210902 175.329158 
L 1341.64244 177.890143 
L 1347.073978 172.875111 
L 1352.505516 166.254339 
L 1357.937054 163.98218 
L 1363.368592 168.637734 
L 1368.80013 175.269453 
L 1374.231668 177.906845 
L 1379.663206 170.579417 
L 1385.094744 147.888831 
L 1390.526282 112.997884 
L 1395.95782 75.65975 
L 1401.389358 45.797131 
L 1406.820896 33.332727 
L 1412.252433 44.919247 
L 1417.683971 74.129417 
L 1423.115509 111.26597 
L 1428.547047 146.631637 
L 1433.978585 170.68498 
L 1439.410123 179.942376 
L 1444.841661 178.789523 
L 1450.273199 172.138036 
L 1455.704737 164.899533 
L 1461.136275 161.390493 
L 1466.567813 161.528959 
L 1471.999351 163.261584 
L 1477.430889 164.525718 
L 1482.862427 163.263935 
L 1488.293965 158.525768 
L 1499.157041 145.031654 
L 1504.588579 139.98266 
L 1510.020117 138.425807 
L 1515.451655 140.439459 
L 1520.883193 144.821095 
L 1531.746269 155.746447 
L 1537.177807 160.019665 
L 1542.609345 162.921627 
L 1548.040883 164.419496 
L 1553.472421 164.480435 
L 1558.903958 163.080257 
L 1564.335496 160.531003 
L 1569.767034 157.581483 
L 1575.198572 155.0097 
L 1580.63011 153.593654 
L 1586.061648 153.987112 
L 1591.493186 155.925659 
L 1596.924724 158.733348 
L 1602.356262 161.732293 
L 1607.7878 164.245549 
L 1613.219338 165.79614 
L 1618.650876 166.353239 
L 1624.082414 165.946389 
L 1629.513952 164.605132 
L 1634.94549 162.400546 
L 1640.377028 160.025221 
L 1645.808566 158.650183 
L 1651.240104 159.458768 
L 1656.671642 163.634312 
L 1667.534718 178.935534 
L 1672.966256 181.587273 
L 1678.397794 174.600128 
L 1683.829332 153.397859 
L 1689.26087 119.370866 
L 1694.692408 81.660431 
L 1700.123945 49.925842 
L 1705.555483 33.826385 
L 1710.987021 41.363638 
L 1716.418559 68.287662 
L 1727.281635 141.305714 
L 1732.713173 167.885473 
L 1738.144711 179.034232 
L 1743.576249 178.526572 
L 1749.007787 171.400428 
L 1754.439325 162.693736 
L 1759.870863 157.204841 
L 1765.302401 156.14712 
L 1770.733939 157.97423 
L 1776.165477 161.068838 
L 1781.597015 163.813613 
L 1787.028553 164.978628 
L 1792.460091 164.883586 
L 1797.891629 164.235595 
L 1803.323167 163.74176 
L 1808.754705 164.091306 
L 1819.617781 166.392985 
L 1825.049319 166.46614 
L 1830.480857 164.527945 
L 1835.912395 159.832477 
L 1841.343933 153.287456 
L 1846.77547 146.541769 
L 1852.207008 141.247798 
L 1857.638546 139.053992 
L 1863.070084 140.774796 
L 1868.501622 145.363878 
L 1873.93316 151.523132 
L 1879.364698 157.954451 
L 1884.796236 163.359731 
L 1890.227774 166.440864 
L 1895.659312 165.899744 
L 1901.09085 160.438265 
L 1906.522388 148.758321 
L 1906.522388 148.758321 
" style="fill:none;stroke:#1f77b4;stroke-linecap:square;stroke-width:1.5;"/>
   </g>
   <g id="text_76">
    <!-- Fluctuating degrees of characteristic verbal eccentricity in a longer excerpt from Whitehead's Process &amp; Reality -->
    <g transform="translate(771.835312 19.92)scale(0.12 -0.12)">
     <defs>
      <path d="M 54.890625 54.6875 
L 35.109375 28.078125 
L 55.90625 0 
L 45.3125 0 
L 29.390625 21.484375 
L 13.484375 0 
L 2.875 0 
L 24.125 28.609375 
L 4.6875 54.6875 
L 15.28125 54.6875 
L 29.78125 35.203125 
L 44.28125 54.6875 
z
" id="DejaVuSans-120"/>
      <path d="M 3.328125 72.90625 
L 13.28125 72.90625 
L 28.609375 11.28125 
L 43.890625 72.90625 
L 54.984375 72.90625 
L 70.3125 11.28125 
L 85.59375 72.90625 
L 95.609375 72.90625 
L 77.296875 0 
L 64.890625 0 
L 49.515625 63.28125 
L 33.984375 0 
L 21.578125 0 
z
" id="DejaVuSans-87"/>
      <path d="M 17.921875 72.90625 
L 17.921875 45.796875 
L 9.625 45.796875 
L 9.625 72.90625 
z
" id="DejaVuSans-39"/>
      <path d="M 19.671875 64.796875 
L 19.671875 37.40625 
L 32.078125 37.40625 
Q 38.96875 37.40625 42.71875 40.96875 
Q 46.484375 44.53125 46.484375 51.125 
Q 46.484375 57.671875 42.71875 61.234375 
Q 38.96875 64.796875 32.078125 64.796875 
z
M 9.8125 72.90625 
L 32.078125 72.90625 
Q 44.34375 72.90625 50.609375 67.359375 
Q 56.890625 61.8125 56.890625 51.125 
Q 56.890625 40.328125 50.609375 34.8125 
Q 44.34375 29.296875 32.078125 29.296875 
L 19.671875 29.296875 
L 19.671875 0 
L 9.8125 0 
z
" id="DejaVuSans-80"/>
      <path d="M 24.3125 39.203125 
Q 19.875 35.25 17.796875 31.3125 
Q 15.71875 27.390625 15.71875 23.09375 
Q 15.71875 15.96875 20.890625 11.234375 
Q 26.078125 6.5 33.890625 6.5 
Q 38.53125 6.5 42.578125 8.03125 
Q 46.625 9.578125 50.203125 12.703125 
z
M 31.203125 44.671875 
L 56 19.28125 
Q 58.890625 23.640625 60.5 28.59375 
Q 62.109375 33.546875 62.40625 39.109375 
L 71.484375 39.109375 
Q 70.90625 32.671875 68.359375 26.359375 
Q 65.828125 20.0625 61.28125 13.921875 
L 74.90625 0 
L 62.59375 0 
L 55.609375 7.171875 
Q 50.53125 2.828125 44.96875 0.703125 
Q 39.40625 -1.421875 33.015625 -1.421875 
Q 21.234375 -1.421875 13.765625 5.296875 
Q 6.296875 12.015625 6.296875 22.515625 
Q 6.296875 28.765625 9.5625 34.25 
Q 12.84375 39.75 19.390625 44.578125 
Q 17.046875 47.65625 15.8125 50.703125 
Q 14.59375 53.765625 14.59375 56.6875 
Q 14.59375 64.59375 20.015625 69.40625 
Q 25.4375 74.21875 34.421875 74.21875 
Q 38.484375 74.21875 42.5 73.34375 
Q 46.53125 72.46875 50.6875 70.703125 
L 50.6875 61.8125 
Q 46.4375 64.109375 42.578125 65.296875 
Q 38.71875 66.5 35.40625 66.5 
Q 30.28125 66.5 27.078125 63.78125 
Q 23.875 61.078125 23.875 56.78125 
Q 23.875 54.296875 25.3125 51.78125 
Q 26.765625 49.265625 31.203125 44.671875 
z
" id="DejaVuSans-38"/>
      <path d="M 44.390625 34.1875 
Q 47.5625 33.109375 50.5625 29.59375 
Q 53.5625 26.078125 56.59375 19.921875 
L 66.609375 0 
L 56 0 
L 46.6875 18.703125 
Q 43.0625 26.03125 39.671875 28.421875 
Q 36.28125 30.8125 30.421875 30.8125 
L 19.671875 30.8125 
L 19.671875 0 
L 9.8125 0 
L 9.8125 72.90625 
L 32.078125 72.90625 
Q 44.578125 72.90625 50.734375 67.671875 
Q 56.890625 62.453125 56.890625 51.90625 
Q 56.890625 45.015625 53.6875 40.46875 
Q 50.484375 35.9375 44.390625 34.1875 
z
M 19.671875 64.796875 
L 19.671875 38.921875 
L 32.078125 38.921875 
Q 39.203125 38.921875 42.84375 42.21875 
Q 46.484375 45.515625 46.484375 51.90625 
Q 46.484375 58.296875 42.84375 61.546875 
Q 39.203125 64.796875 32.078125 64.796875 
z
" id="DejaVuSans-82"/>
     </defs>
     <use xlink:href="#DejaVuSans-70"/>
     <use x="57.519531" xlink:href="#DejaVuSans-108"/>
     <use x="85.302734" xlink:href="#DejaVuSans-117"/>
     <use x="148.681641" xlink:href="#DejaVuSans-99"/>
     <use x="203.662109" xlink:href="#DejaVuSans-116"/>
     <use x="242.871094" xlink:href="#DejaVuSans-117"/>
     <use x="306.25" xlink:href="#DejaVuSans-97"/>
     <use x="367.529297" xlink:href="#DejaVuSans-116"/>
     <use x="406.738281" xlink:href="#DejaVuSans-105"/>
     <use x="434.521484" xlink:href="#DejaVuSans-110"/>
     <use x="497.900391" xlink:href="#DejaVuSans-103"/>
     <use x="561.376953" xlink:href="#DejaVuSans-32"/>
     <use x="593.164062" xlink:href="#DejaVuSans-100"/>
     <use x="656.640625" xlink:href="#DejaVuSans-101"/>
     <use x="718.164062" xlink:href="#DejaVuSans-103"/>
     <use x="781.640625" xlink:href="#DejaVuSans-114"/>
     <use x="820.503906" xlink:href="#DejaVuSans-101"/>
     <use x="882.027344" xlink:href="#DejaVuSans-101"/>
     <use x="943.550781" xlink:href="#DejaVuSans-115"/>
     <use x="995.650391" xlink:href="#DejaVuSans-32"/>
     <use x="1027.4375" xlink:href="#DejaVuSans-111"/>
     <use x="1088.619141" xlink:href="#DejaVuSans-102"/>
     <use x="1123.824219" xlink:href="#DejaVuSans-32"/>
     <use x="1155.611328" xlink:href="#DejaVuSans-99"/>
     <use x="1210.591797" xlink:href="#DejaVuSans-104"/>
     <use x="1273.970703" xlink:href="#DejaVuSans-97"/>
     <use x="1335.25" xlink:href="#DejaVuSans-114"/>
     <use x="1376.363281" xlink:href="#DejaVuSans-97"/>
     <use x="1437.642578" xlink:href="#DejaVuSans-99"/>
     <use x="1492.623047" xlink:href="#DejaVuSans-116"/>
     <use x="1531.832031" xlink:href="#DejaVuSans-101"/>
     <use x="1593.355469" xlink:href="#DejaVuSans-114"/>
     <use x="1634.46875" xlink:href="#DejaVuSans-105"/>
     <use x="1662.251953" xlink:href="#DejaVuSans-115"/>
     <use x="1714.351562" xlink:href="#DejaVuSans-116"/>
     <use x="1753.560547" xlink:href="#DejaVuSans-105"/>
     <use x="1781.34375" xlink:href="#DejaVuSans-99"/>
     <use x="1836.324219" xlink:href="#DejaVuSans-32"/>
     <use x="1868.111328" xlink:href="#DejaVuSans-118"/>
     <use x="1927.291016" xlink:href="#DejaVuSans-101"/>
     <use x="1988.814453" xlink:href="#DejaVuSans-114"/>
     <use x="2029.927734" xlink:href="#DejaVuSans-98"/>
     <use x="2093.404297" xlink:href="#DejaVuSans-97"/>
     <use x="2154.683594" xlink:href="#DejaVuSans-108"/>
     <use x="2182.466797" xlink:href="#DejaVuSans-32"/>
     <use x="2214.253906" xlink:href="#DejaVuSans-101"/>
     <use x="2275.777344" xlink:href="#DejaVuSans-99"/>
     <use x="2330.757812" xlink:href="#DejaVuSans-99"/>
     <use x="2385.738281" xlink:href="#DejaVuSans-101"/>
     <use x="2447.261719" xlink:href="#DejaVuSans-110"/>
     <use x="2510.640625" xlink:href="#DejaVuSans-116"/>
     <use x="2549.849609" xlink:href="#DejaVuSans-114"/>
     <use x="2590.962891" xlink:href="#DejaVuSans-105"/>
     <use x="2618.746094" xlink:href="#DejaVuSans-99"/>
     <use x="2673.726562" xlink:href="#DejaVuSans-105"/>
     <use x="2701.509766" xlink:href="#DejaVuSans-116"/>
     <use x="2740.71875" xlink:href="#DejaVuSans-121"/>
     <use x="2799.898438" xlink:href="#DejaVuSans-32"/>
     <use x="2831.685547" xlink:href="#DejaVuSans-105"/>
     <use x="2859.46875" xlink:href="#DejaVuSans-110"/>
     <use x="2922.847656" xlink:href="#DejaVuSans-32"/>
     <use x="2954.634766" xlink:href="#DejaVuSans-97"/>
     <use x="3015.914062" xlink:href="#DejaVuSans-32"/>
     <use x="3047.701172" xlink:href="#DejaVuSans-108"/>
     <use x="3075.484375" xlink:href="#DejaVuSans-111"/>
     <use x="3136.666016" xlink:href="#DejaVuSans-110"/>
     <use x="3200.044922" xlink:href="#DejaVuSans-103"/>
     <use x="3263.521484" xlink:href="#DejaVuSans-101"/>
     <use x="3325.044922" xlink:href="#DejaVuSans-114"/>
     <use x="3366.158203" xlink:href="#DejaVuSans-32"/>
     <use x="3397.945312" xlink:href="#DejaVuSans-101"/>
     <use x="3457.71875" xlink:href="#DejaVuSans-120"/>
     <use x="3515.148438" xlink:href="#DejaVuSans-99"/>
     <use x="3570.128906" xlink:href="#DejaVuSans-101"/>
     <use x="3631.652344" xlink:href="#DejaVuSans-114"/>
     <use x="3672.765625" xlink:href="#DejaVuSans-112"/>
     <use x="3736.242188" xlink:href="#DejaVuSans-116"/>
     <use x="3775.451172" xlink:href="#DejaVuSans-32"/>
     <use x="3807.238281" xlink:href="#DejaVuSans-102"/>
     <use x="3842.443359" xlink:href="#DejaVuSans-114"/>
     <use x="3881.306641" xlink:href="#DejaVuSans-111"/>
     <use x="3942.488281" xlink:href="#DejaVuSans-109"/>
     <use x="4039.900391" xlink:href="#DejaVuSans-32"/>
     <use x="4071.6875" xlink:href="#DejaVuSans-87"/>
     <use x="4170.564453" xlink:href="#DejaVuSans-104"/>
     <use x="4233.943359" xlink:href="#DejaVuSans-105"/>
     <use x="4261.726562" xlink:href="#DejaVuSans-116"/>
     <use x="4300.935547" xlink:href="#DejaVuSans-101"/>
     <use x="4362.458984" xlink:href="#DejaVuSans-104"/>
     <use x="4425.837891" xlink:href="#DejaVuSans-101"/>
     <use x="4487.361328" xlink:href="#DejaVuSans-97"/>
     <use x="4548.640625" xlink:href="#DejaVuSans-100"/>
     <use x="4612.117188" xlink:href="#DejaVuSans-39"/>
     <use x="4639.607422" xlink:href="#DejaVuSans-115"/>
     <use x="4691.707031" xlink:href="#DejaVuSans-32"/>
     <use x="4723.494141" xlink:href="#DejaVuSans-80"/>
     <use x="4782.046875" xlink:href="#DejaVuSans-114"/>
     <use x="4820.910156" xlink:href="#DejaVuSans-111"/>
     <use x="4882.091797" xlink:href="#DejaVuSans-99"/>
     <use x="4937.072266" xlink:href="#DejaVuSans-101"/>
     <use x="4998.595703" xlink:href="#DejaVuSans-115"/>
     <use x="5050.695312" xlink:href="#DejaVuSans-115"/>
     <use x="5102.794922" xlink:href="#DejaVuSans-32"/>
     <use x="5134.582031" xlink:href="#DejaVuSans-38"/>
     <use x="5212.560547" xlink:href="#DejaVuSans-32"/>
     <use x="5244.347656" xlink:href="#DejaVuSans-82"/>
     <use x="5309.330078" xlink:href="#DejaVuSans-101"/>
     <use x="5370.853516" xlink:href="#DejaVuSans-97"/>
     <use x="5432.132812" xlink:href="#DejaVuSans-108"/>
     <use x="5459.916016" xlink:href="#DejaVuSans-105"/>
     <use x="5487.699219" xlink:href="#DejaVuSans-116"/>
     <use x="5526.908203" xlink:href="#DejaVuSans-121"/>
    </g>
   </g>
  </g>
 </g>
 <defs>
  <clipPath id="pd2977b5c0e">
   <rect height="163.08" width="1674" x="270" y="25.92"/>
  </clipPath>
 </defs>
</svg>
