<?xml version="1.0" encoding="utf-8" standalone="no"?>
<!DOCTYPE svg PUBLIC "-//W3C//DTD SVG 1.1//EN"
  "http://www.w3.org/Graphics/SVG/1.1/DTD/svg11.dtd">
<!-- Created with matplotlib (https://matplotlib.org/) -->
<svg height="360pt" version="1.1" viewBox="0 0 1800 360" width="1800pt" xmlns="http://www.w3.org/2000/svg" xmlns:xlink="http://www.w3.org/1999/xlink">
 <metadata>
  <rdf:RDF xmlns:cc="http://creativecommons.org/ns#" xmlns:dc="http://purl.org/dc/elements/1.1/" xmlns:rdf="http://www.w3.org/1999/02/22-rdf-syntax-ns#">
   <cc:Work>
    <dc:type rdf:resource="http://purl.org/dc/dcmitype/StillImage"/>
    <dc:date>2021-02-28T19:15:07.055770</dc:date>
    <dc:format>image/svg+xml</dc:format>
    <dc:creator>
     <cc:Agent>
      <dc:title>Matplotlib v3.3.3, https://matplotlib.org/</dc:title>
     </cc:Agent>
    </dc:creator>
   </cc:Work>
  </rdf:RDF>
 </metadata>
 <defs>
  <style type="text/css">*{stroke-linecap:butt;stroke-linejoin:round;}</style>
 </defs>
 <g id="figure_1">
  <g id="patch_1">
   <path d="M 0 360 
L 1800 360 
L 1800 0 
L 0 0 
z
" style="fill:none;"/>
  </g>
  <g id="axes_1">
   <g id="patch_2">
    <path d="M 225 315 
L 1620 315 
L 1620 43.2 
L 225 43.2 
z
" style="fill:#ffffff;"/>
   </g>
   <g id="matplotlib.axis_1">
    <g id="xtick_1">
     <g id="line2d_1">
      <defs>
       <path d="M 0 0 
L 0 3.5 
" id="mc6d37df21a" style="stroke:#000000;stroke-width:0.8;"/>
      </defs>
      <g>
       <use style="stroke:#000000;stroke-width:0.8;" x="288.409091" xlink:href="#mc6d37df21a" y="315"/>
      </g>
     </g>
     <g id="text_1">
      <!-- In -->
      <g transform="translate(283.765341 329.598437)scale(0.1 -0.1)">
       <defs>
        <path d="M 9.8125 72.90625 
L 19.671875 72.90625 
L 19.671875 0 
L 9.8125 0 
z
" id="DejaVuSans-73"/>
        <path d="M 54.890625 33.015625 
L 54.890625 0 
L 45.90625 0 
L 45.90625 32.71875 
Q 45.90625 40.484375 42.875 44.328125 
Q 39.84375 48.1875 33.796875 48.1875 
Q 26.515625 48.1875 22.3125 43.546875 
Q 18.109375 38.921875 18.109375 30.90625 
L 18.109375 0 
L 9.078125 0 
L 9.078125 54.6875 
L 18.109375 54.6875 
L 18.109375 46.1875 
Q 21.34375 51.125 25.703125 53.5625 
Q 30.078125 56 35.796875 56 
Q 45.21875 56 50.046875 50.171875 
Q 54.890625 44.34375 54.890625 33.015625 
z
" id="DejaVuSans-110"/>
       </defs>
       <use xlink:href="#DejaVuSans-73"/>
       <use x="29.492188" xlink:href="#DejaVuSans-110"/>
      </g>
     </g>
    </g>
    <g id="xtick_2">
     <g id="line2d_2">
      <g>
       <use style="stroke:#000000;stroke-width:0.8;" x="343.547431" xlink:href="#mc6d37df21a" y="315"/>
      </g>
     </g>
     <g id="text_2">
      <!-- any -->
      <g transform="translate(334.355243 329.598437)scale(0.1 -0.1)">
       <defs>
        <path d="M 34.28125 27.484375 
Q 23.390625 27.484375 19.1875 25 
Q 14.984375 22.515625 14.984375 16.5 
Q 14.984375 11.71875 18.140625 8.90625 
Q 21.296875 6.109375 26.703125 6.109375 
Q 34.1875 6.109375 38.703125 11.40625 
Q 43.21875 16.703125 43.21875 25.484375 
L 43.21875 27.484375 
z
M 52.203125 31.203125 
L 52.203125 0 
L 43.21875 0 
L 43.21875 8.296875 
Q 40.140625 3.328125 35.546875 0.953125 
Q 30.953125 -1.421875 24.3125 -1.421875 
Q 15.921875 -1.421875 10.953125 3.296875 
Q 6 8.015625 6 15.921875 
Q 6 25.140625 12.171875 29.828125 
Q 18.359375 34.515625 30.609375 34.515625 
L 43.21875 34.515625 
L 43.21875 35.40625 
Q 43.21875 41.609375 39.140625 45 
Q 35.0625 48.390625 27.6875 48.390625 
Q 23 48.390625 18.546875 47.265625 
Q 14.109375 46.140625 10.015625 43.890625 
L 10.015625 52.203125 
Q 14.9375 54.109375 19.578125 55.046875 
Q 24.21875 56 28.609375 56 
Q 40.484375 56 46.34375 49.84375 
Q 52.203125 43.703125 52.203125 31.203125 
z
" id="DejaVuSans-97"/>
        <path d="M 32.171875 -5.078125 
Q 28.375 -14.84375 24.75 -17.8125 
Q 21.140625 -20.796875 15.09375 -20.796875 
L 7.90625 -20.796875 
L 7.90625 -13.28125 
L 13.1875 -13.28125 
Q 16.890625 -13.28125 18.9375 -11.515625 
Q 21 -9.765625 23.484375 -3.21875 
L 25.09375 0.875 
L 2.984375 54.6875 
L 12.5 54.6875 
L 29.59375 11.921875 
L 46.6875 54.6875 
L 56.203125 54.6875 
z
" id="DejaVuSans-121"/>
       </defs>
       <use xlink:href="#DejaVuSans-97"/>
       <use x="61.279297" xlink:href="#DejaVuSans-110"/>
       <use x="124.658203" xlink:href="#DejaVuSans-121"/>
      </g>
     </g>
    </g>
    <g id="xtick_3">
     <g id="line2d_3">
      <g>
       <use style="stroke:#000000;stroke-width:0.8;" x="398.685771" xlink:href="#mc6d37df21a" y="315"/>
      </g>
     </g>
     <g id="text_3">
      <!-- given -->
      <g transform="translate(384.917802 329.598437)scale(0.1 -0.1)">
       <defs>
        <path d="M 45.40625 27.984375 
Q 45.40625 37.75 41.375 43.109375 
Q 37.359375 48.484375 30.078125 48.484375 
Q 22.859375 48.484375 18.828125 43.109375 
Q 14.796875 37.75 14.796875 27.984375 
Q 14.796875 18.265625 18.828125 12.890625 
Q 22.859375 7.515625 30.078125 7.515625 
Q 37.359375 7.515625 41.375 12.890625 
Q 45.40625 18.265625 45.40625 27.984375 
z
M 54.390625 6.78125 
Q 54.390625 -7.171875 48.1875 -13.984375 
Q 42 -20.796875 29.203125 -20.796875 
Q 24.46875 -20.796875 20.265625 -20.09375 
Q 16.0625 -19.390625 12.109375 -17.921875 
L 12.109375 -9.1875 
Q 16.0625 -11.328125 19.921875 -12.34375 
Q 23.78125 -13.375 27.78125 -13.375 
Q 36.625 -13.375 41.015625 -8.765625 
Q 45.40625 -4.15625 45.40625 5.171875 
L 45.40625 9.625 
Q 42.625 4.78125 38.28125 2.390625 
Q 33.9375 0 27.875 0 
Q 17.828125 0 11.671875 7.65625 
Q 5.515625 15.328125 5.515625 27.984375 
Q 5.515625 40.671875 11.671875 48.328125 
Q 17.828125 56 27.875 56 
Q 33.9375 56 38.28125 53.609375 
Q 42.625 51.21875 45.40625 46.390625 
L 45.40625 54.6875 
L 54.390625 54.6875 
z
" id="DejaVuSans-103"/>
        <path d="M 9.421875 54.6875 
L 18.40625 54.6875 
L 18.40625 0 
L 9.421875 0 
z
M 9.421875 75.984375 
L 18.40625 75.984375 
L 18.40625 64.59375 
L 9.421875 64.59375 
z
" id="DejaVuSans-105"/>
        <path d="M 2.984375 54.6875 
L 12.5 54.6875 
L 29.59375 8.796875 
L 46.6875 54.6875 
L 56.203125 54.6875 
L 35.6875 0 
L 23.484375 0 
z
" id="DejaVuSans-118"/>
        <path d="M 56.203125 29.59375 
L 56.203125 25.203125 
L 14.890625 25.203125 
Q 15.484375 15.921875 20.484375 11.0625 
Q 25.484375 6.203125 34.421875 6.203125 
Q 39.59375 6.203125 44.453125 7.46875 
Q 49.3125 8.734375 54.109375 11.28125 
L 54.109375 2.78125 
Q 49.265625 0.734375 44.1875 -0.34375 
Q 39.109375 -1.421875 33.890625 -1.421875 
Q 20.796875 -1.421875 13.15625 6.1875 
Q 5.515625 13.8125 5.515625 26.8125 
Q 5.515625 40.234375 12.765625 48.109375 
Q 20.015625 56 32.328125 56 
Q 43.359375 56 49.78125 48.890625 
Q 56.203125 41.796875 56.203125 29.59375 
z
M 47.21875 32.234375 
Q 47.125 39.59375 43.09375 43.984375 
Q 39.0625 48.390625 32.421875 48.390625 
Q 24.90625 48.390625 20.390625 44.140625 
Q 15.875 39.890625 15.1875 32.171875 
z
" id="DejaVuSans-101"/>
       </defs>
       <use xlink:href="#DejaVuSans-103"/>
       <use x="63.476562" xlink:href="#DejaVuSans-105"/>
       <use x="91.259766" xlink:href="#DejaVuSans-118"/>
       <use x="150.439453" xlink:href="#DejaVuSans-101"/>
       <use x="211.962891" xlink:href="#DejaVuSans-110"/>
      </g>
     </g>
    </g>
    <g id="xtick_4">
     <g id="line2d_4">
      <g>
       <use style="stroke:#000000;stroke-width:0.8;" x="453.824111" xlink:href="#mc6d37df21a" y="315"/>
      </g>
     </g>
     <g id="text_4">
      <!-- concrescence, -->
      <g transform="translate(418.063954 329.598437)scale(0.1 -0.1)">
       <defs>
        <path d="M 48.78125 52.59375 
L 48.78125 44.1875 
Q 44.96875 46.296875 41.140625 47.34375 
Q 37.3125 48.390625 33.40625 48.390625 
Q 24.65625 48.390625 19.8125 42.84375 
Q 14.984375 37.3125 14.984375 27.296875 
Q 14.984375 17.28125 19.8125 11.734375 
Q 24.65625 6.203125 33.40625 6.203125 
Q 37.3125 6.203125 41.140625 7.25 
Q 44.96875 8.296875 48.78125 10.40625 
L 48.78125 2.09375 
Q 45.015625 0.34375 40.984375 -0.53125 
Q 36.96875 -1.421875 32.421875 -1.421875 
Q 20.0625 -1.421875 12.78125 6.34375 
Q 5.515625 14.109375 5.515625 27.296875 
Q 5.515625 40.671875 12.859375 48.328125 
Q 20.21875 56 33.015625 56 
Q 37.15625 56 41.109375 55.140625 
Q 45.0625 54.296875 48.78125 52.59375 
z
" id="DejaVuSans-99"/>
        <path d="M 30.609375 48.390625 
Q 23.390625 48.390625 19.1875 42.75 
Q 14.984375 37.109375 14.984375 27.296875 
Q 14.984375 17.484375 19.15625 11.84375 
Q 23.34375 6.203125 30.609375 6.203125 
Q 37.796875 6.203125 41.984375 11.859375 
Q 46.1875 17.53125 46.1875 27.296875 
Q 46.1875 37.015625 41.984375 42.703125 
Q 37.796875 48.390625 30.609375 48.390625 
z
M 30.609375 56 
Q 42.328125 56 49.015625 48.375 
Q 55.71875 40.765625 55.71875 27.296875 
Q 55.71875 13.875 49.015625 6.21875 
Q 42.328125 -1.421875 30.609375 -1.421875 
Q 18.84375 -1.421875 12.171875 6.21875 
Q 5.515625 13.875 5.515625 27.296875 
Q 5.515625 40.765625 12.171875 48.375 
Q 18.84375 56 30.609375 56 
z
" id="DejaVuSans-111"/>
        <path d="M 41.109375 46.296875 
Q 39.59375 47.171875 37.8125 47.578125 
Q 36.03125 48 33.890625 48 
Q 26.265625 48 22.1875 43.046875 
Q 18.109375 38.09375 18.109375 28.8125 
L 18.109375 0 
L 9.078125 0 
L 9.078125 54.6875 
L 18.109375 54.6875 
L 18.109375 46.1875 
Q 20.953125 51.171875 25.484375 53.578125 
Q 30.03125 56 36.53125 56 
Q 37.453125 56 38.578125 55.875 
Q 39.703125 55.765625 41.0625 55.515625 
z
" id="DejaVuSans-114"/>
        <path d="M 44.28125 53.078125 
L 44.28125 44.578125 
Q 40.484375 46.53125 36.375 47.5 
Q 32.28125 48.484375 27.875 48.484375 
Q 21.1875 48.484375 17.84375 46.4375 
Q 14.5 44.390625 14.5 40.28125 
Q 14.5 37.15625 16.890625 35.375 
Q 19.28125 33.59375 26.515625 31.984375 
L 29.59375 31.296875 
Q 39.15625 29.25 43.1875 25.515625 
Q 47.21875 21.78125 47.21875 15.09375 
Q 47.21875 7.46875 41.1875 3.015625 
Q 35.15625 -1.421875 24.609375 -1.421875 
Q 20.21875 -1.421875 15.453125 -0.5625 
Q 10.6875 0.296875 5.421875 2 
L 5.421875 11.28125 
Q 10.40625 8.6875 15.234375 7.390625 
Q 20.0625 6.109375 24.8125 6.109375 
Q 31.15625 6.109375 34.5625 8.28125 
Q 37.984375 10.453125 37.984375 14.40625 
Q 37.984375 18.0625 35.515625 20.015625 
Q 33.0625 21.96875 24.703125 23.78125 
L 21.578125 24.515625 
Q 13.234375 26.265625 9.515625 29.90625 
Q 5.8125 33.546875 5.8125 39.890625 
Q 5.8125 47.609375 11.28125 51.796875 
Q 16.75 56 26.8125 56 
Q 31.78125 56 36.171875 55.265625 
Q 40.578125 54.546875 44.28125 53.078125 
z
" id="DejaVuSans-115"/>
        <path d="M 11.71875 12.40625 
L 22.015625 12.40625 
L 22.015625 4 
L 14.015625 -11.625 
L 7.71875 -11.625 
L 11.71875 4 
z
" id="DejaVuSans-44"/>
       </defs>
       <use xlink:href="#DejaVuSans-99"/>
       <use x="54.980469" xlink:href="#DejaVuSans-111"/>
       <use x="116.162109" xlink:href="#DejaVuSans-110"/>
       <use x="179.541016" xlink:href="#DejaVuSans-99"/>
       <use x="234.521484" xlink:href="#DejaVuSans-114"/>
       <use x="273.384766" xlink:href="#DejaVuSans-101"/>
       <use x="334.908203" xlink:href="#DejaVuSans-115"/>
       <use x="387.007812" xlink:href="#DejaVuSans-99"/>
       <use x="441.988281" xlink:href="#DejaVuSans-101"/>
       <use x="503.511719" xlink:href="#DejaVuSans-110"/>
       <use x="566.890625" xlink:href="#DejaVuSans-99"/>
       <use x="621.871094" xlink:href="#DejaVuSans-101"/>
       <use x="683.394531" xlink:href="#DejaVuSans-44"/>
      </g>
     </g>
    </g>
    <g id="xtick_5">
     <g id="line2d_5">
      <g>
       <use style="stroke:#000000;stroke-width:0.8;" x="508.962451" xlink:href="#mc6d37df21a" y="315"/>
      </g>
     </g>
     <g id="text_5">
      <!-- it -->
      <g transform="translate(505.613232 329.598437)scale(0.1 -0.1)">
       <defs>
        <path d="M 18.3125 70.21875 
L 18.3125 54.6875 
L 36.8125 54.6875 
L 36.8125 47.703125 
L 18.3125 47.703125 
L 18.3125 18.015625 
Q 18.3125 11.328125 20.140625 9.421875 
Q 21.96875 7.515625 27.59375 7.515625 
L 36.8125 7.515625 
L 36.8125 0 
L 27.59375 0 
Q 17.1875 0 13.234375 3.875 
Q 9.28125 7.765625 9.28125 18.015625 
L 9.28125 47.703125 
L 2.6875 47.703125 
L 2.6875 54.6875 
L 9.28125 54.6875 
L 9.28125 70.21875 
z
" id="DejaVuSans-116"/>
       </defs>
       <use xlink:href="#DejaVuSans-105"/>
       <use x="27.783203" xlink:href="#DejaVuSans-116"/>
      </g>
     </g>
    </g>
    <g id="xtick_6">
     <g id="line2d_6">
      <g>
       <use style="stroke:#000000;stroke-width:0.8;" x="564.100791" xlink:href="#mc6d37df21a" y="315"/>
      </g>
     </g>
     <g id="text_6">
      <!-- may -->
      <g transform="translate(553.207041 329.598437)scale(0.1 -0.1)">
       <defs>
        <path d="M 52 44.1875 
Q 55.375 50.25 60.0625 53.125 
Q 64.75 56 71.09375 56 
Q 79.640625 56 84.28125 50.015625 
Q 88.921875 44.046875 88.921875 33.015625 
L 88.921875 0 
L 79.890625 0 
L 79.890625 32.71875 
Q 79.890625 40.578125 77.09375 44.375 
Q 74.3125 48.1875 68.609375 48.1875 
Q 61.625 48.1875 57.5625 43.546875 
Q 53.515625 38.921875 53.515625 30.90625 
L 53.515625 0 
L 44.484375 0 
L 44.484375 32.71875 
Q 44.484375 40.625 41.703125 44.40625 
Q 38.921875 48.1875 33.109375 48.1875 
Q 26.21875 48.1875 22.15625 43.53125 
Q 18.109375 38.875 18.109375 30.90625 
L 18.109375 0 
L 9.078125 0 
L 9.078125 54.6875 
L 18.109375 54.6875 
L 18.109375 46.1875 
Q 21.1875 51.21875 25.484375 53.609375 
Q 29.78125 56 35.6875 56 
Q 41.65625 56 45.828125 52.96875 
Q 50 49.953125 52 44.1875 
z
" id="DejaVuSans-109"/>
       </defs>
       <use xlink:href="#DejaVuSans-109"/>
       <use x="97.412109" xlink:href="#DejaVuSans-97"/>
       <use x="158.691406" xlink:href="#DejaVuSans-121"/>
      </g>
     </g>
    </g>
    <g id="xtick_7">
     <g id="line2d_7">
      <g>
       <use style="stroke:#000000;stroke-width:0.8;" x="619.23913" xlink:href="#mc6d37df21a" y="315"/>
      </g>
     </g>
     <g id="text_7">
      <!-- be -->
      <g transform="translate(612.988349 329.598437)scale(0.1 -0.1)">
       <defs>
        <path d="M 48.6875 27.296875 
Q 48.6875 37.203125 44.609375 42.84375 
Q 40.53125 48.484375 33.40625 48.484375 
Q 26.265625 48.484375 22.1875 42.84375 
Q 18.109375 37.203125 18.109375 27.296875 
Q 18.109375 17.390625 22.1875 11.75 
Q 26.265625 6.109375 33.40625 6.109375 
Q 40.53125 6.109375 44.609375 11.75 
Q 48.6875 17.390625 48.6875 27.296875 
z
M 18.109375 46.390625 
Q 20.953125 51.265625 25.265625 53.625 
Q 29.59375 56 35.59375 56 
Q 45.5625 56 51.78125 48.09375 
Q 58.015625 40.1875 58.015625 27.296875 
Q 58.015625 14.40625 51.78125 6.484375 
Q 45.5625 -1.421875 35.59375 -1.421875 
Q 29.59375 -1.421875 25.265625 0.953125 
Q 20.953125 3.328125 18.109375 8.203125 
L 18.109375 0 
L 9.078125 0 
L 9.078125 75.984375 
L 18.109375 75.984375 
z
" id="DejaVuSans-98"/>
       </defs>
       <use xlink:href="#DejaVuSans-98"/>
       <use x="63.476562" xlink:href="#DejaVuSans-101"/>
      </g>
     </g>
    </g>
    <g id="xtick_8">
     <g id="line2d_8">
      <g>
       <use style="stroke:#000000;stroke-width:0.8;" x="674.37747" xlink:href="#mc6d37df21a" y="315"/>
      </g>
     </g>
     <g id="text_8">
      <!-- included -->
      <g transform="translate(653.087627 329.598437)scale(0.1 -0.1)">
       <defs>
        <path d="M 9.421875 75.984375 
L 18.40625 75.984375 
L 18.40625 0 
L 9.421875 0 
z
" id="DejaVuSans-108"/>
        <path d="M 8.5 21.578125 
L 8.5 54.6875 
L 17.484375 54.6875 
L 17.484375 21.921875 
Q 17.484375 14.15625 20.5 10.265625 
Q 23.53125 6.390625 29.59375 6.390625 
Q 36.859375 6.390625 41.078125 11.03125 
Q 45.3125 15.671875 45.3125 23.6875 
L 45.3125 54.6875 
L 54.296875 54.6875 
L 54.296875 0 
L 45.3125 0 
L 45.3125 8.40625 
Q 42.046875 3.421875 37.71875 1 
Q 33.40625 -1.421875 27.6875 -1.421875 
Q 18.265625 -1.421875 13.375 4.4375 
Q 8.5 10.296875 8.5 21.578125 
z
M 31.109375 56 
z
" id="DejaVuSans-117"/>
        <path d="M 45.40625 46.390625 
L 45.40625 75.984375 
L 54.390625 75.984375 
L 54.390625 0 
L 45.40625 0 
L 45.40625 8.203125 
Q 42.578125 3.328125 38.25 0.953125 
Q 33.9375 -1.421875 27.875 -1.421875 
Q 17.96875 -1.421875 11.734375 6.484375 
Q 5.515625 14.40625 5.515625 27.296875 
Q 5.515625 40.1875 11.734375 48.09375 
Q 17.96875 56 27.875 56 
Q 33.9375 56 38.25 53.625 
Q 42.578125 51.265625 45.40625 46.390625 
z
M 14.796875 27.296875 
Q 14.796875 17.390625 18.875 11.75 
Q 22.953125 6.109375 30.078125 6.109375 
Q 37.203125 6.109375 41.296875 11.75 
Q 45.40625 17.390625 45.40625 27.296875 
Q 45.40625 37.203125 41.296875 42.84375 
Q 37.203125 48.484375 30.078125 48.484375 
Q 22.953125 48.484375 18.875 42.84375 
Q 14.796875 37.203125 14.796875 27.296875 
z
" id="DejaVuSans-100"/>
       </defs>
       <use xlink:href="#DejaVuSans-105"/>
       <use x="27.783203" xlink:href="#DejaVuSans-110"/>
       <use x="91.162109" xlink:href="#DejaVuSans-99"/>
       <use x="146.142578" xlink:href="#DejaVuSans-108"/>
       <use x="173.925781" xlink:href="#DejaVuSans-117"/>
       <use x="237.304688" xlink:href="#DejaVuSans-100"/>
       <use x="300.78125" xlink:href="#DejaVuSans-101"/>
       <use x="362.304688" xlink:href="#DejaVuSans-100"/>
      </g>
     </g>
    </g>
    <g id="xtick_9">
     <g id="line2d_9">
      <g>
       <use style="stroke:#000000;stroke-width:0.8;" x="729.51581" xlink:href="#mc6d37df21a" y="315"/>
      </g>
     </g>
     <g id="text_9">
      <!-- positively -->
      <g transform="translate(705.554873 329.598437)scale(0.1 -0.1)">
       <defs>
        <path d="M 18.109375 8.203125 
L 18.109375 -20.796875 
L 9.078125 -20.796875 
L 9.078125 54.6875 
L 18.109375 54.6875 
L 18.109375 46.390625 
Q 20.953125 51.265625 25.265625 53.625 
Q 29.59375 56 35.59375 56 
Q 45.5625 56 51.78125 48.09375 
Q 58.015625 40.1875 58.015625 27.296875 
Q 58.015625 14.40625 51.78125 6.484375 
Q 45.5625 -1.421875 35.59375 -1.421875 
Q 29.59375 -1.421875 25.265625 0.953125 
Q 20.953125 3.328125 18.109375 8.203125 
z
M 48.6875 27.296875 
Q 48.6875 37.203125 44.609375 42.84375 
Q 40.53125 48.484375 33.40625 48.484375 
Q 26.265625 48.484375 22.1875 42.84375 
Q 18.109375 37.203125 18.109375 27.296875 
Q 18.109375 17.390625 22.1875 11.75 
Q 26.265625 6.109375 33.40625 6.109375 
Q 40.53125 6.109375 44.609375 11.75 
Q 48.6875 17.390625 48.6875 27.296875 
z
" id="DejaVuSans-112"/>
       </defs>
       <use xlink:href="#DejaVuSans-112"/>
       <use x="63.476562" xlink:href="#DejaVuSans-111"/>
       <use x="124.658203" xlink:href="#DejaVuSans-115"/>
       <use x="176.757812" xlink:href="#DejaVuSans-105"/>
       <use x="204.541016" xlink:href="#DejaVuSans-116"/>
       <use x="243.75" xlink:href="#DejaVuSans-105"/>
       <use x="271.533203" xlink:href="#DejaVuSans-118"/>
       <use x="330.712891" xlink:href="#DejaVuSans-101"/>
       <use x="392.236328" xlink:href="#DejaVuSans-108"/>
       <use x="420.019531" xlink:href="#DejaVuSans-121"/>
      </g>
     </g>
    </g>
    <g id="xtick_10">
     <g id="line2d_10">
      <g>
       <use style="stroke:#000000;stroke-width:0.8;" x="784.65415" xlink:href="#mc6d37df21a" y="315"/>
      </g>
     </g>
     <g id="text_10">
      <!-- by -->
      <g transform="translate(778.520556 329.598437)scale(0.1 -0.1)">
       <use xlink:href="#DejaVuSans-98"/>
       <use x="63.476562" xlink:href="#DejaVuSans-121"/>
      </g>
     </g>
    </g>
    <g id="xtick_11">
     <g id="line2d_11">
      <g>
       <use style="stroke:#000000;stroke-width:0.8;" x="839.79249" xlink:href="#mc6d37df21a" y="315"/>
      </g>
     </g>
     <g id="text_11">
      <!-- means -->
      <g transform="translate(823.008115 329.598437)scale(0.1 -0.1)">
       <use xlink:href="#DejaVuSans-109"/>
       <use x="97.412109" xlink:href="#DejaVuSans-101"/>
       <use x="158.935547" xlink:href="#DejaVuSans-97"/>
       <use x="220.214844" xlink:href="#DejaVuSans-110"/>
       <use x="283.59375" xlink:href="#DejaVuSans-115"/>
      </g>
     </g>
    </g>
    <g id="xtick_12">
     <g id="line2d_12">
      <g>
       <use style="stroke:#000000;stroke-width:0.8;" x="894.93083" xlink:href="#mc6d37df21a" y="315"/>
      </g>
     </g>
     <g id="text_12">
      <!-- of -->
      <g transform="translate(890.111299 329.598437)scale(0.1 -0.1)">
       <defs>
        <path d="M 37.109375 75.984375 
L 37.109375 68.5 
L 28.515625 68.5 
Q 23.6875 68.5 21.796875 66.546875 
Q 19.921875 64.59375 19.921875 59.515625 
L 19.921875 54.6875 
L 34.71875 54.6875 
L 34.71875 47.703125 
L 19.921875 47.703125 
L 19.921875 0 
L 10.890625 0 
L 10.890625 47.703125 
L 2.296875 47.703125 
L 2.296875 54.6875 
L 10.890625 54.6875 
L 10.890625 58.5 
Q 10.890625 67.625 15.140625 71.796875 
Q 19.390625 75.984375 28.609375 75.984375 
z
" id="DejaVuSans-102"/>
       </defs>
       <use xlink:href="#DejaVuSans-111"/>
       <use x="61.181641" xlink:href="#DejaVuSans-102"/>
      </g>
     </g>
    </g>
    <g id="xtick_13">
     <g id="line2d_13">
      <g>
       <use style="stroke:#000000;stroke-width:0.8;" x="950.06917" xlink:href="#mc6d37df21a" y="315"/>
      </g>
     </g>
     <g id="text_13">
      <!-- a -->
      <g transform="translate(947.005107 329.598437)scale(0.1 -0.1)">
       <use xlink:href="#DejaVuSans-97"/>
      </g>
     </g>
    </g>
    <g id="xtick_14">
     <g id="line2d_14">
      <g>
       <use style="stroke:#000000;stroke-width:0.8;" x="1005.20751" xlink:href="#mc6d37df21a" y="315"/>
      </g>
     </g>
     <g id="text_14">
      <!-- conceptual -->
      <g transform="translate(977.648135 329.598437)scale(0.1 -0.1)">
       <use xlink:href="#DejaVuSans-99"/>
       <use x="54.980469" xlink:href="#DejaVuSans-111"/>
       <use x="116.162109" xlink:href="#DejaVuSans-110"/>
       <use x="179.541016" xlink:href="#DejaVuSans-99"/>
       <use x="234.521484" xlink:href="#DejaVuSans-101"/>
       <use x="296.044922" xlink:href="#DejaVuSans-112"/>
       <use x="359.521484" xlink:href="#DejaVuSans-116"/>
       <use x="398.730469" xlink:href="#DejaVuSans-117"/>
       <use x="462.109375" xlink:href="#DejaVuSans-97"/>
       <use x="523.388672" xlink:href="#DejaVuSans-108"/>
      </g>
     </g>
    </g>
    <g id="xtick_15">
     <g id="line2d_15">
      <g>
       <use style="stroke:#000000;stroke-width:0.8;" x="1060.34585" xlink:href="#mc6d37df21a" y="315"/>
      </g>
     </g>
     <g id="text_15">
      <!-- feeling; -->
      <g transform="translate(1041.6271 329.598437)scale(0.1 -0.1)">
       <defs>
        <path d="M 11.71875 51.703125 
L 22.015625 51.703125 
L 22.015625 39.3125 
L 11.71875 39.3125 
z
M 11.71875 12.40625 
L 22.015625 12.40625 
L 22.015625 4 
L 14.015625 -11.625 
L 7.71875 -11.625 
L 11.71875 4 
z
" id="DejaVuSans-59"/>
       </defs>
       <use xlink:href="#DejaVuSans-102"/>
       <use x="35.205078" xlink:href="#DejaVuSans-101"/>
       <use x="96.728516" xlink:href="#DejaVuSans-101"/>
       <use x="158.251953" xlink:href="#DejaVuSans-108"/>
       <use x="186.035156" xlink:href="#DejaVuSans-105"/>
       <use x="213.818359" xlink:href="#DejaVuSans-110"/>
       <use x="277.197266" xlink:href="#DejaVuSans-103"/>
       <use x="340.673828" xlink:href="#DejaVuSans-59"/>
      </g>
     </g>
    </g>
    <g id="xtick_16">
     <g id="line2d_16">
      <g>
       <use style="stroke:#000000;stroke-width:0.8;" x="1115.48419" xlink:href="#mc6d37df21a" y="315"/>
      </g>
     </g>
     <g id="text_16">
      <!-- but -->
      <g transform="translate(1107.181065 329.598437)scale(0.1 -0.1)">
       <use xlink:href="#DejaVuSans-98"/>
       <use x="63.476562" xlink:href="#DejaVuSans-117"/>
       <use x="126.855469" xlink:href="#DejaVuSans-116"/>
      </g>
     </g>
    </g>
    <g id="xtick_17">
     <g id="line2d_17">
      <g>
       <use style="stroke:#000000;stroke-width:0.8;" x="1170.62253" xlink:href="#mc6d37df21a" y="315"/>
      </g>
     </g>
     <g id="text_17">
      <!-- it -->
      <g transform="translate(1167.273311 329.598437)scale(0.1 -0.1)">
       <use xlink:href="#DejaVuSans-105"/>
       <use x="27.783203" xlink:href="#DejaVuSans-116"/>
      </g>
     </g>
    </g>
    <g id="xtick_18">
     <g id="line2d_18">
      <g>
       <use style="stroke:#000000;stroke-width:0.8;" x="1225.76087" xlink:href="#mc6d37df21a" y="315"/>
      </g>
     </g>
     <g id="text_18">
      <!-- may -->
      <g transform="translate(1214.86712 329.598437)scale(0.1 -0.1)">
       <use xlink:href="#DejaVuSans-109"/>
       <use x="97.412109" xlink:href="#DejaVuSans-97"/>
       <use x="158.691406" xlink:href="#DejaVuSans-121"/>
      </g>
     </g>
    </g>
    <g id="xtick_19">
     <g id="line2d_19">
      <g>
       <use style="stroke:#000000;stroke-width:0.8;" x="1280.899209" xlink:href="#mc6d37df21a" y="315"/>
      </g>
     </g>
     <g id="text_19">
      <!-- be -->
      <g transform="translate(1274.648428 329.598437)scale(0.1 -0.1)">
       <use xlink:href="#DejaVuSans-98"/>
       <use x="63.476562" xlink:href="#DejaVuSans-101"/>
      </g>
     </g>
    </g>
    <g id="xtick_20">
     <g id="line2d_20">
      <g>
       <use style="stroke:#000000;stroke-width:0.8;" x="1336.037549" xlink:href="#mc6d37df21a" y="315"/>
      </g>
     </g>
     <g id="text_20">
      <!-- excluded -->
      <g transform="translate(1313.444581 329.598437)scale(0.1 -0.1)">
       <defs>
        <path d="M 54.890625 54.6875 
L 35.109375 28.078125 
L 55.90625 0 
L 45.3125 0 
L 29.390625 21.484375 
L 13.484375 0 
L 2.875 0 
L 24.125 28.609375 
L 4.6875 54.6875 
L 15.28125 54.6875 
L 29.78125 35.203125 
L 44.28125 54.6875 
z
" id="DejaVuSans-120"/>
       </defs>
       <use xlink:href="#DejaVuSans-101"/>
       <use x="59.773438" xlink:href="#DejaVuSans-120"/>
       <use x="117.203125" xlink:href="#DejaVuSans-99"/>
       <use x="172.183594" xlink:href="#DejaVuSans-108"/>
       <use x="199.966797" xlink:href="#DejaVuSans-117"/>
       <use x="263.345703" xlink:href="#DejaVuSans-100"/>
       <use x="326.822266" xlink:href="#DejaVuSans-101"/>
       <use x="388.345703" xlink:href="#DejaVuSans-100"/>
      </g>
     </g>
    </g>
    <g id="xtick_21">
     <g id="line2d_21">
      <g>
       <use style="stroke:#000000;stroke-width:0.8;" x="1391.175889" xlink:href="#mc6d37df21a" y="315"/>
      </g>
     </g>
     <g id="text_21">
      <!-- by -->
      <g transform="translate(1385.042296 329.598437)scale(0.1 -0.1)">
       <use xlink:href="#DejaVuSans-98"/>
       <use x="63.476562" xlink:href="#DejaVuSans-121"/>
      </g>
     </g>
    </g>
    <g id="xtick_22">
     <g id="line2d_22">
      <g>
       <use style="stroke:#000000;stroke-width:0.8;" x="1446.314229" xlink:href="#mc6d37df21a" y="315"/>
      </g>
     </g>
     <g id="text_22">
      <!-- a -->
      <g transform="translate(1443.250167 329.598437)scale(0.1 -0.1)">
       <use xlink:href="#DejaVuSans-97"/>
      </g>
     </g>
    </g>
    <g id="xtick_23">
     <g id="line2d_23">
      <g>
       <use style="stroke:#000000;stroke-width:0.8;" x="1501.452569" xlink:href="#mc6d37df21a" y="315"/>
      </g>
     </g>
     <g id="text_23">
      <!-- negative -->
      <g transform="translate(1479.583819 329.598437)scale(0.1 -0.1)">
       <use xlink:href="#DejaVuSans-110"/>
       <use x="63.378906" xlink:href="#DejaVuSans-101"/>
       <use x="124.902344" xlink:href="#DejaVuSans-103"/>
       <use x="188.378906" xlink:href="#DejaVuSans-97"/>
       <use x="249.658203" xlink:href="#DejaVuSans-116"/>
       <use x="288.867188" xlink:href="#DejaVuSans-105"/>
       <use x="316.650391" xlink:href="#DejaVuSans-118"/>
       <use x="375.830078" xlink:href="#DejaVuSans-101"/>
      </g>
     </g>
    </g>
    <g id="xtick_24">
     <g id="line2d_24">
      <g>
       <use style="stroke:#000000;stroke-width:0.8;" x="1556.590909" xlink:href="#mc6d37df21a" y="315"/>
      </g>
     </g>
     <g id="text_24">
      <!-- prehension. -->
      <g transform="translate(1527.172159 329.598437)scale(0.1 -0.1)">
       <defs>
        <path d="M 54.890625 33.015625 
L 54.890625 0 
L 45.90625 0 
L 45.90625 32.71875 
Q 45.90625 40.484375 42.875 44.328125 
Q 39.84375 48.1875 33.796875 48.1875 
Q 26.515625 48.1875 22.3125 43.546875 
Q 18.109375 38.921875 18.109375 30.90625 
L 18.109375 0 
L 9.078125 0 
L 9.078125 75.984375 
L 18.109375 75.984375 
L 18.109375 46.1875 
Q 21.34375 51.125 25.703125 53.5625 
Q 30.078125 56 35.796875 56 
Q 45.21875 56 50.046875 50.171875 
Q 54.890625 44.34375 54.890625 33.015625 
z
" id="DejaVuSans-104"/>
        <path d="M 10.6875 12.40625 
L 21 12.40625 
L 21 0 
L 10.6875 0 
z
" id="DejaVuSans-46"/>
       </defs>
       <use xlink:href="#DejaVuSans-112"/>
       <use x="63.476562" xlink:href="#DejaVuSans-114"/>
       <use x="102.339844" xlink:href="#DejaVuSans-101"/>
       <use x="163.863281" xlink:href="#DejaVuSans-104"/>
       <use x="227.242188" xlink:href="#DejaVuSans-101"/>
       <use x="288.765625" xlink:href="#DejaVuSans-110"/>
       <use x="352.144531" xlink:href="#DejaVuSans-115"/>
       <use x="404.244141" xlink:href="#DejaVuSans-105"/>
       <use x="432.027344" xlink:href="#DejaVuSans-111"/>
       <use x="493.208984" xlink:href="#DejaVuSans-110"/>
       <use x="556.587891" xlink:href="#DejaVuSans-46"/>
      </g>
     </g>
    </g>
   </g>
   <g id="matplotlib.axis_2">
    <g id="ytick_1">
     <g id="line2d_25">
      <defs>
       <path d="M 0 0 
L -3.5 0 
" id="mf51e0ae451" style="stroke:#000000;stroke-width:0.8;"/>
      </defs>
      <g>
       <use style="stroke:#000000;stroke-width:0.8;" x="225" xlink:href="#mf51e0ae451" y="302.645455"/>
      </g>
     </g>
     <g id="text_25">
      <!-- 0 -->
      <g transform="translate(211.6375 306.444673)scale(0.1 -0.1)">
       <defs>
        <path d="M 31.78125 66.40625 
Q 24.171875 66.40625 20.328125 58.90625 
Q 16.5 51.421875 16.5 36.375 
Q 16.5 21.390625 20.328125 13.890625 
Q 24.171875 6.390625 31.78125 6.390625 
Q 39.453125 6.390625 43.28125 13.890625 
Q 47.125 21.390625 47.125 36.375 
Q 47.125 51.421875 43.28125 58.90625 
Q 39.453125 66.40625 31.78125 66.40625 
z
M 31.78125 74.21875 
Q 44.046875 74.21875 50.515625 64.515625 
Q 56.984375 54.828125 56.984375 36.375 
Q 56.984375 17.96875 50.515625 8.265625 
Q 44.046875 -1.421875 31.78125 -1.421875 
Q 19.53125 -1.421875 13.0625 8.265625 
Q 6.59375 17.96875 6.59375 36.375 
Q 6.59375 54.828125 13.0625 64.515625 
Q 19.53125 74.21875 31.78125 74.21875 
z
" id="DejaVuSans-48"/>
       </defs>
       <use xlink:href="#DejaVuSans-48"/>
      </g>
     </g>
    </g>
    <g id="ytick_2">
     <g id="line2d_26">
      <g>
       <use style="stroke:#000000;stroke-width:0.8;" x="225" xlink:href="#mf51e0ae451" y="255.80647"/>
      </g>
     </g>
     <g id="text_26">
      <!-- 1 -->
      <g transform="translate(211.6375 259.605689)scale(0.1 -0.1)">
       <defs>
        <path d="M 12.40625 8.296875 
L 28.515625 8.296875 
L 28.515625 63.921875 
L 10.984375 60.40625 
L 10.984375 69.390625 
L 28.421875 72.90625 
L 38.28125 72.90625 
L 38.28125 8.296875 
L 54.390625 8.296875 
L 54.390625 0 
L 12.40625 0 
z
" id="DejaVuSans-49"/>
       </defs>
       <use xlink:href="#DejaVuSans-49"/>
      </g>
     </g>
    </g>
    <g id="ytick_3">
     <g id="line2d_27">
      <g>
       <use style="stroke:#000000;stroke-width:0.8;" x="225" xlink:href="#mf51e0ae451" y="208.967486"/>
      </g>
     </g>
     <g id="text_27">
      <!-- 2 -->
      <g transform="translate(211.6375 212.766704)scale(0.1 -0.1)">
       <defs>
        <path d="M 19.1875 8.296875 
L 53.609375 8.296875 
L 53.609375 0 
L 7.328125 0 
L 7.328125 8.296875 
Q 12.9375 14.109375 22.625 23.890625 
Q 32.328125 33.6875 34.8125 36.53125 
Q 39.546875 41.84375 41.421875 45.53125 
Q 43.3125 49.21875 43.3125 52.78125 
Q 43.3125 58.59375 39.234375 62.25 
Q 35.15625 65.921875 28.609375 65.921875 
Q 23.96875 65.921875 18.8125 64.3125 
Q 13.671875 62.703125 7.8125 59.421875 
L 7.8125 69.390625 
Q 13.765625 71.78125 18.9375 73 
Q 24.125 74.21875 28.421875 74.21875 
Q 39.75 74.21875 46.484375 68.546875 
Q 53.21875 62.890625 53.21875 53.421875 
Q 53.21875 48.921875 51.53125 44.890625 
Q 49.859375 40.875 45.40625 35.40625 
Q 44.1875 33.984375 37.640625 27.21875 
Q 31.109375 20.453125 19.1875 8.296875 
z
" id="DejaVuSans-50"/>
       </defs>
       <use xlink:href="#DejaVuSans-50"/>
      </g>
     </g>
    </g>
    <g id="ytick_4">
     <g id="line2d_28">
      <g>
       <use style="stroke:#000000;stroke-width:0.8;" x="225" xlink:href="#mf51e0ae451" y="162.128501"/>
      </g>
     </g>
     <g id="text_28">
      <!-- 3 -->
      <g transform="translate(211.6375 165.92772)scale(0.1 -0.1)">
       <defs>
        <path d="M 40.578125 39.3125 
Q 47.65625 37.796875 51.625 33 
Q 55.609375 28.21875 55.609375 21.1875 
Q 55.609375 10.40625 48.1875 4.484375 
Q 40.765625 -1.421875 27.09375 -1.421875 
Q 22.515625 -1.421875 17.65625 -0.515625 
Q 12.796875 0.390625 7.625 2.203125 
L 7.625 11.71875 
Q 11.71875 9.328125 16.59375 8.109375 
Q 21.484375 6.890625 26.8125 6.890625 
Q 36.078125 6.890625 40.9375 10.546875 
Q 45.796875 14.203125 45.796875 21.1875 
Q 45.796875 27.640625 41.28125 31.265625 
Q 36.765625 34.90625 28.71875 34.90625 
L 20.21875 34.90625 
L 20.21875 43.015625 
L 29.109375 43.015625 
Q 36.375 43.015625 40.234375 45.921875 
Q 44.09375 48.828125 44.09375 54.296875 
Q 44.09375 59.90625 40.109375 62.90625 
Q 36.140625 65.921875 28.71875 65.921875 
Q 24.65625 65.921875 20.015625 65.03125 
Q 15.375 64.15625 9.8125 62.3125 
L 9.8125 71.09375 
Q 15.4375 72.65625 20.34375 73.4375 
Q 25.25 74.21875 29.59375 74.21875 
Q 40.828125 74.21875 47.359375 69.109375 
Q 53.90625 64.015625 53.90625 55.328125 
Q 53.90625 49.265625 50.4375 45.09375 
Q 46.96875 40.921875 40.578125 39.3125 
z
" id="DejaVuSans-51"/>
       </defs>
       <use xlink:href="#DejaVuSans-51"/>
      </g>
     </g>
    </g>
    <g id="ytick_5">
     <g id="line2d_29">
      <g>
       <use style="stroke:#000000;stroke-width:0.8;" x="225" xlink:href="#mf51e0ae451" y="115.289516"/>
      </g>
     </g>
     <g id="text_29">
      <!-- 4 -->
      <g transform="translate(211.6375 119.088735)scale(0.1 -0.1)">
       <defs>
        <path d="M 37.796875 64.3125 
L 12.890625 25.390625 
L 37.796875 25.390625 
z
M 35.203125 72.90625 
L 47.609375 72.90625 
L 47.609375 25.390625 
L 58.015625 25.390625 
L 58.015625 17.1875 
L 47.609375 17.1875 
L 47.609375 0 
L 37.796875 0 
L 37.796875 17.1875 
L 4.890625 17.1875 
L 4.890625 26.703125 
z
" id="DejaVuSans-52"/>
       </defs>
       <use xlink:href="#DejaVuSans-52"/>
      </g>
     </g>
    </g>
    <g id="ytick_6">
     <g id="line2d_30">
      <g>
       <use style="stroke:#000000;stroke-width:0.8;" x="225" xlink:href="#mf51e0ae451" y="68.450532"/>
      </g>
     </g>
     <g id="text_30">
      <!-- 5 -->
      <g transform="translate(211.6375 72.249751)scale(0.1 -0.1)">
       <defs>
        <path d="M 10.796875 72.90625 
L 49.515625 72.90625 
L 49.515625 64.59375 
L 19.828125 64.59375 
L 19.828125 46.734375 
Q 21.96875 47.46875 24.109375 47.828125 
Q 26.265625 48.1875 28.421875 48.1875 
Q 40.625 48.1875 47.75 41.5 
Q 54.890625 34.8125 54.890625 23.390625 
Q 54.890625 11.625 47.5625 5.09375 
Q 40.234375 -1.421875 26.90625 -1.421875 
Q 22.3125 -1.421875 17.546875 -0.640625 
Q 12.796875 0.140625 7.71875 1.703125 
L 7.71875 11.625 
Q 12.109375 9.234375 16.796875 8.0625 
Q 21.484375 6.890625 26.703125 6.890625 
Q 35.15625 6.890625 40.078125 11.328125 
Q 45.015625 15.765625 45.015625 23.390625 
Q 45.015625 31 40.078125 35.4375 
Q 35.15625 39.890625 26.703125 39.890625 
Q 22.75 39.890625 18.8125 39.015625 
Q 14.890625 38.140625 10.796875 36.28125 
z
" id="DejaVuSans-53"/>
       </defs>
       <use xlink:href="#DejaVuSans-53"/>
      </g>
     </g>
    </g>
    <g id="text_31">
     <!-- TF-IDF -->
     <g transform="translate(205.557812 195.034375)rotate(-90)scale(0.1 -0.1)">
      <defs>
       <path d="M -0.296875 72.90625 
L 61.375 72.90625 
L 61.375 64.59375 
L 35.5 64.59375 
L 35.5 0 
L 25.59375 0 
L 25.59375 64.59375 
L -0.296875 64.59375 
z
" id="DejaVuSans-84"/>
       <path d="M 9.8125 72.90625 
L 51.703125 72.90625 
L 51.703125 64.59375 
L 19.671875 64.59375 
L 19.671875 43.109375 
L 48.578125 43.109375 
L 48.578125 34.8125 
L 19.671875 34.8125 
L 19.671875 0 
L 9.8125 0 
z
" id="DejaVuSans-70"/>
       <path d="M 4.890625 31.390625 
L 31.203125 31.390625 
L 31.203125 23.390625 
L 4.890625 23.390625 
z
" id="DejaVuSans-45"/>
       <path d="M 19.671875 64.796875 
L 19.671875 8.109375 
L 31.59375 8.109375 
Q 46.6875 8.109375 53.6875 14.9375 
Q 60.6875 21.78125 60.6875 36.53125 
Q 60.6875 51.171875 53.6875 57.984375 
Q 46.6875 64.796875 31.59375 64.796875 
z
M 9.8125 72.90625 
L 30.078125 72.90625 
Q 51.265625 72.90625 61.171875 64.09375 
Q 71.09375 55.28125 71.09375 36.53125 
Q 71.09375 17.671875 61.125 8.828125 
Q 51.171875 0 30.078125 0 
L 9.8125 0 
z
" id="DejaVuSans-68"/>
      </defs>
      <use xlink:href="#DejaVuSans-84"/>
      <use x="61.083984" xlink:href="#DejaVuSans-70"/>
      <use x="118.603516" xlink:href="#DejaVuSans-45"/>
      <use x="154.6875" xlink:href="#DejaVuSans-73"/>
      <use x="184.179688" xlink:href="#DejaVuSans-68"/>
      <use x="261.181641" xlink:href="#DejaVuSans-70"/>
     </g>
    </g>
   </g>
   <g id="line2d_31">
    <path clip-path="url(#p4b92bda7b2)" d="M 288.409091 302.645455 
L 343.547431 302.645455 
L 398.685771 295.992801 
L 453.824111 55.554545 
L 508.962451 302.645455 
L 564.100791 302.645455 
L 619.23913 302.645455 
L 674.37747 298.36641 
L 729.51581 300.843814 
L 784.65415 302.645455 
L 839.79249 297.381941 
L 894.93083 302.645455 
L 950.06917 302.645455 
L 1005.20751 145.808332 
L 1060.34585 218.531798 
L 1115.48419 302.645455 
L 1170.62253 302.645455 
L 1225.76087 302.645455 
L 1280.899209 302.645455 
L 1336.037549 300.594694 
L 1391.175889 302.645455 
L 1446.314229 302.645455 
L 1501.452569 296.426854 
L 1556.590909 115.923347 
" style="fill:none;stroke:#1f77b4;stroke-linecap:square;stroke-width:1.5;"/>
    <defs>
     <path d="M 0 3 
L 0 -3 
" id="m7c3af27abc" style="stroke:#1f77b4;"/>
    </defs>
    <g clip-path="url(#p4b92bda7b2)">
     <use style="fill:#1f77b4;stroke:#1f77b4;" x="288.409091" xlink:href="#m7c3af27abc" y="302.645455"/>
     <use style="fill:#1f77b4;stroke:#1f77b4;" x="343.547431" xlink:href="#m7c3af27abc" y="302.645455"/>
     <use style="fill:#1f77b4;stroke:#1f77b4;" x="398.685771" xlink:href="#m7c3af27abc" y="295.992801"/>
     <use style="fill:#1f77b4;stroke:#1f77b4;" x="453.824111" xlink:href="#m7c3af27abc" y="55.554545"/>
     <use style="fill:#1f77b4;stroke:#1f77b4;" x="508.962451" xlink:href="#m7c3af27abc" y="302.645455"/>
     <use style="fill:#1f77b4;stroke:#1f77b4;" x="564.100791" xlink:href="#m7c3af27abc" y="302.645455"/>
     <use style="fill:#1f77b4;stroke:#1f77b4;" x="619.23913" xlink:href="#m7c3af27abc" y="302.645455"/>
     <use style="fill:#1f77b4;stroke:#1f77b4;" x="674.37747" xlink:href="#m7c3af27abc" y="298.36641"/>
     <use style="fill:#1f77b4;stroke:#1f77b4;" x="729.51581" xlink:href="#m7c3af27abc" y="300.843814"/>
     <use style="fill:#1f77b4;stroke:#1f77b4;" x="784.65415" xlink:href="#m7c3af27abc" y="302.645455"/>
     <use style="fill:#1f77b4;stroke:#1f77b4;" x="839.79249" xlink:href="#m7c3af27abc" y="297.381941"/>
     <use style="fill:#1f77b4;stroke:#1f77b4;" x="894.93083" xlink:href="#m7c3af27abc" y="302.645455"/>
     <use style="fill:#1f77b4;stroke:#1f77b4;" x="950.06917" xlink:href="#m7c3af27abc" y="302.645455"/>
     <use style="fill:#1f77b4;stroke:#1f77b4;" x="1005.20751" xlink:href="#m7c3af27abc" y="145.808332"/>
     <use style="fill:#1f77b4;stroke:#1f77b4;" x="1060.34585" xlink:href="#m7c3af27abc" y="218.531798"/>
     <use style="fill:#1f77b4;stroke:#1f77b4;" x="1115.48419" xlink:href="#m7c3af27abc" y="302.645455"/>
     <use style="fill:#1f77b4;stroke:#1f77b4;" x="1170.62253" xlink:href="#m7c3af27abc" y="302.645455"/>
     <use style="fill:#1f77b4;stroke:#1f77b4;" x="1225.76087" xlink:href="#m7c3af27abc" y="302.645455"/>
     <use style="fill:#1f77b4;stroke:#1f77b4;" x="1280.899209" xlink:href="#m7c3af27abc" y="302.645455"/>
     <use style="fill:#1f77b4;stroke:#1f77b4;" x="1336.037549" xlink:href="#m7c3af27abc" y="300.594694"/>
     <use style="fill:#1f77b4;stroke:#1f77b4;" x="1391.175889" xlink:href="#m7c3af27abc" y="302.645455"/>
     <use style="fill:#1f77b4;stroke:#1f77b4;" x="1446.314229" xlink:href="#m7c3af27abc" y="302.645455"/>
     <use style="fill:#1f77b4;stroke:#1f77b4;" x="1501.452569" xlink:href="#m7c3af27abc" y="296.426854"/>
     <use style="fill:#1f77b4;stroke:#1f77b4;" x="1556.590909" xlink:href="#m7c3af27abc" y="115.923347"/>
    </g>
   </g>
   <g id="patch_3">
    <path d="M 225 315 
L 225 43.2 
" style="fill:none;stroke:#000000;stroke-linecap:square;stroke-linejoin:miter;stroke-width:0.8;"/>
   </g>
   <g id="patch_4">
    <path d="M 1620 315 
L 1620 43.2 
" style="fill:none;stroke:#000000;stroke-linecap:square;stroke-linejoin:miter;stroke-width:0.8;"/>
   </g>
   <g id="patch_5">
    <path d="M 225 315 
L 1620 315 
" style="fill:none;stroke:#000000;stroke-linecap:square;stroke-linejoin:miter;stroke-width:0.8;"/>
   </g>
   <g id="patch_6">
    <path d="M 225 43.2 
L 1620 43.2 
" style="fill:none;stroke:#000000;stroke-linecap:square;stroke-linejoin:miter;stroke-width:0.8;"/>
   </g>
   <g id="text_32">
    <!-- Fluctuating verbal eccentricity in an excerpt from Alfred North Whitehead's Process and Reality' -->
    <g transform="translate(634.475625 37.2)scale(0.12 -0.12)">
     <defs>
      <path id="DejaVuSans-32"/>
      <path d="M 34.1875 63.1875 
L 20.796875 26.90625 
L 47.609375 26.90625 
z
M 28.609375 72.90625 
L 39.796875 72.90625 
L 67.578125 0 
L 57.328125 0 
L 50.6875 18.703125 
L 17.828125 18.703125 
L 11.1875 0 
L 0.78125 0 
z
" id="DejaVuSans-65"/>
      <path d="M 9.8125 72.90625 
L 23.09375 72.90625 
L 55.421875 11.921875 
L 55.421875 72.90625 
L 64.984375 72.90625 
L 64.984375 0 
L 51.703125 0 
L 19.390625 60.984375 
L 19.390625 0 
L 9.8125 0 
z
" id="DejaVuSans-78"/>
      <path d="M 3.328125 72.90625 
L 13.28125 72.90625 
L 28.609375 11.28125 
L 43.890625 72.90625 
L 54.984375 72.90625 
L 70.3125 11.28125 
L 85.59375 72.90625 
L 95.609375 72.90625 
L 77.296875 0 
L 64.890625 0 
L 49.515625 63.28125 
L 33.984375 0 
L 21.578125 0 
z
" id="DejaVuSans-87"/>
      <path d="M 17.921875 72.90625 
L 17.921875 45.796875 
L 9.625 45.796875 
L 9.625 72.90625 
z
" id="DejaVuSans-39"/>
      <path d="M 19.671875 64.796875 
L 19.671875 37.40625 
L 32.078125 37.40625 
Q 38.96875 37.40625 42.71875 40.96875 
Q 46.484375 44.53125 46.484375 51.125 
Q 46.484375 57.671875 42.71875 61.234375 
Q 38.96875 64.796875 32.078125 64.796875 
z
M 9.8125 72.90625 
L 32.078125 72.90625 
Q 44.34375 72.90625 50.609375 67.359375 
Q 56.890625 61.8125 56.890625 51.125 
Q 56.890625 40.328125 50.609375 34.8125 
Q 44.34375 29.296875 32.078125 29.296875 
L 19.671875 29.296875 
L 19.671875 0 
L 9.8125 0 
z
" id="DejaVuSans-80"/>
      <path d="M 44.390625 34.1875 
Q 47.5625 33.109375 50.5625 29.59375 
Q 53.5625 26.078125 56.59375 19.921875 
L 66.609375 0 
L 56 0 
L 46.6875 18.703125 
Q 43.0625 26.03125 39.671875 28.421875 
Q 36.28125 30.8125 30.421875 30.8125 
L 19.671875 30.8125 
L 19.671875 0 
L 9.8125 0 
L 9.8125 72.90625 
L 32.078125 72.90625 
Q 44.578125 72.90625 50.734375 67.671875 
Q 56.890625 62.453125 56.890625 51.90625 
Q 56.890625 45.015625 53.6875 40.46875 
Q 50.484375 35.9375 44.390625 34.1875 
z
M 19.671875 64.796875 
L 19.671875 38.921875 
L 32.078125 38.921875 
Q 39.203125 38.921875 42.84375 42.21875 
Q 46.484375 45.515625 46.484375 51.90625 
Q 46.484375 58.296875 42.84375 61.546875 
Q 39.203125 64.796875 32.078125 64.796875 
z
" id="DejaVuSans-82"/>
     </defs>
     <use xlink:href="#DejaVuSans-70"/>
     <use x="57.519531" xlink:href="#DejaVuSans-108"/>
     <use x="85.302734" xlink:href="#DejaVuSans-117"/>
     <use x="148.681641" xlink:href="#DejaVuSans-99"/>
     <use x="203.662109" xlink:href="#DejaVuSans-116"/>
     <use x="242.871094" xlink:href="#DejaVuSans-117"/>
     <use x="306.25" xlink:href="#DejaVuSans-97"/>
     <use x="367.529297" xlink:href="#DejaVuSans-116"/>
     <use x="406.738281" xlink:href="#DejaVuSans-105"/>
     <use x="434.521484" xlink:href="#DejaVuSans-110"/>
     <use x="497.900391" xlink:href="#DejaVuSans-103"/>
     <use x="561.376953" xlink:href="#DejaVuSans-32"/>
     <use x="593.164062" xlink:href="#DejaVuSans-118"/>
     <use x="652.34375" xlink:href="#DejaVuSans-101"/>
     <use x="713.867188" xlink:href="#DejaVuSans-114"/>
     <use x="754.980469" xlink:href="#DejaVuSans-98"/>
     <use x="818.457031" xlink:href="#DejaVuSans-97"/>
     <use x="879.736328" xlink:href="#DejaVuSans-108"/>
     <use x="907.519531" xlink:href="#DejaVuSans-32"/>
     <use x="939.306641" xlink:href="#DejaVuSans-101"/>
     <use x="1000.830078" xlink:href="#DejaVuSans-99"/>
     <use x="1055.810547" xlink:href="#DejaVuSans-99"/>
     <use x="1110.791016" xlink:href="#DejaVuSans-101"/>
     <use x="1172.314453" xlink:href="#DejaVuSans-110"/>
     <use x="1235.693359" xlink:href="#DejaVuSans-116"/>
     <use x="1274.902344" xlink:href="#DejaVuSans-114"/>
     <use x="1316.015625" xlink:href="#DejaVuSans-105"/>
     <use x="1343.798828" xlink:href="#DejaVuSans-99"/>
     <use x="1398.779297" xlink:href="#DejaVuSans-105"/>
     <use x="1426.5625" xlink:href="#DejaVuSans-116"/>
     <use x="1465.771484" xlink:href="#DejaVuSans-121"/>
     <use x="1524.951172" xlink:href="#DejaVuSans-32"/>
     <use x="1556.738281" xlink:href="#DejaVuSans-105"/>
     <use x="1584.521484" xlink:href="#DejaVuSans-110"/>
     <use x="1647.900391" xlink:href="#DejaVuSans-32"/>
     <use x="1679.6875" xlink:href="#DejaVuSans-97"/>
     <use x="1740.966797" xlink:href="#DejaVuSans-110"/>
     <use x="1804.345703" xlink:href="#DejaVuSans-32"/>
     <use x="1836.132812" xlink:href="#DejaVuSans-101"/>
     <use x="1895.90625" xlink:href="#DejaVuSans-120"/>
     <use x="1953.335938" xlink:href="#DejaVuSans-99"/>
     <use x="2008.316406" xlink:href="#DejaVuSans-101"/>
     <use x="2069.839844" xlink:href="#DejaVuSans-114"/>
     <use x="2110.953125" xlink:href="#DejaVuSans-112"/>
     <use x="2174.429688" xlink:href="#DejaVuSans-116"/>
     <use x="2213.638672" xlink:href="#DejaVuSans-32"/>
     <use x="2245.425781" xlink:href="#DejaVuSans-102"/>
     <use x="2280.630859" xlink:href="#DejaVuSans-114"/>
     <use x="2319.494141" xlink:href="#DejaVuSans-111"/>
     <use x="2380.675781" xlink:href="#DejaVuSans-109"/>
     <use x="2478.087891" xlink:href="#DejaVuSans-32"/>
     <use x="2509.875" xlink:href="#DejaVuSans-65"/>
     <use x="2578.283203" xlink:href="#DejaVuSans-108"/>
     <use x="2606.066406" xlink:href="#DejaVuSans-102"/>
     <use x="2641.271484" xlink:href="#DejaVuSans-114"/>
     <use x="2680.134766" xlink:href="#DejaVuSans-101"/>
     <use x="2741.658203" xlink:href="#DejaVuSans-100"/>
     <use x="2805.134766" xlink:href="#DejaVuSans-32"/>
     <use x="2836.921875" xlink:href="#DejaVuSans-78"/>
     <use x="2911.726562" xlink:href="#DejaVuSans-111"/>
     <use x="2972.908203" xlink:href="#DejaVuSans-114"/>
     <use x="3014.021484" xlink:href="#DejaVuSans-116"/>
     <use x="3053.230469" xlink:href="#DejaVuSans-104"/>
     <use x="3116.609375" xlink:href="#DejaVuSans-32"/>
     <use x="3148.396484" xlink:href="#DejaVuSans-87"/>
     <use x="3247.273438" xlink:href="#DejaVuSans-104"/>
     <use x="3310.652344" xlink:href="#DejaVuSans-105"/>
     <use x="3338.435547" xlink:href="#DejaVuSans-116"/>
     <use x="3377.644531" xlink:href="#DejaVuSans-101"/>
     <use x="3439.167969" xlink:href="#DejaVuSans-104"/>
     <use x="3502.546875" xlink:href="#DejaVuSans-101"/>
     <use x="3564.070312" xlink:href="#DejaVuSans-97"/>
     <use x="3625.349609" xlink:href="#DejaVuSans-100"/>
     <use x="3688.826172" xlink:href="#DejaVuSans-39"/>
     <use x="3716.316406" xlink:href="#DejaVuSans-115"/>
     <use x="3768.416016" xlink:href="#DejaVuSans-32"/>
     <use x="3800.203125" xlink:href="#DejaVuSans-80"/>
     <use x="3858.755859" xlink:href="#DejaVuSans-114"/>
     <use x="3897.619141" xlink:href="#DejaVuSans-111"/>
     <use x="3958.800781" xlink:href="#DejaVuSans-99"/>
     <use x="4013.78125" xlink:href="#DejaVuSans-101"/>
     <use x="4075.304688" xlink:href="#DejaVuSans-115"/>
     <use x="4127.404297" xlink:href="#DejaVuSans-115"/>
     <use x="4179.503906" xlink:href="#DejaVuSans-32"/>
     <use x="4211.291016" xlink:href="#DejaVuSans-97"/>
     <use x="4272.570312" xlink:href="#DejaVuSans-110"/>
     <use x="4335.949219" xlink:href="#DejaVuSans-100"/>
     <use x="4399.425781" xlink:href="#DejaVuSans-32"/>
     <use x="4431.212891" xlink:href="#DejaVuSans-82"/>
     <use x="4496.195312" xlink:href="#DejaVuSans-101"/>
     <use x="4557.71875" xlink:href="#DejaVuSans-97"/>
     <use x="4618.998047" xlink:href="#DejaVuSans-108"/>
     <use x="4646.78125" xlink:href="#DejaVuSans-105"/>
     <use x="4674.564453" xlink:href="#DejaVuSans-116"/>
     <use x="4713.773438" xlink:href="#DejaVuSans-121"/>
     <use x="4772.953125" xlink:href="#DejaVuSans-39"/>
    </g>
   </g>
  </g>
 </g>
 <defs>
  <clipPath id="p4b92bda7b2">
   <rect height="271.8" width="1395" x="225" y="43.2"/>
  </clipPath>
 </defs>
</svg>
